<?xml version="1.0" encoding="UTF-8"?>
<svg width="20px" height="20px" viewBox="0 0 20 20" version="1.1" xmlns="http://www.w3.org/2000/svg" xmlns:xlink="http://www.w3.org/1999/xlink">
    <!-- Generator: sketchtool 55.2 (78181) - https://sketchapp.com -->
    <title>35E6D08F-8B2C-4E19-962E-0F7BFE41C3CB</title>
    <desc>Created with sketchtool.</desc>
    <g id="00-GUIDE" stroke="none" stroke-width="1" fill="none" fill-rule="evenodd">
        <g id="04_BUTTON" transform="translate(-478.000000, -1835.000000)">
            <rect fill="#FFFFFF" x="0" y="0" width="1513" height="2445"></rect>
            <g id="Glyphs/Table/Linkout/G" transform="translate(482.000000, 1837.000000)" stroke="#555555" stroke-linecap="round" stroke-linejoin="round" stroke-width="1.3">
                <path d="M11.5,10.0015869 L11.5,12.5 C11.5,13.0522847 11.0522847,13.5 10.5,13.5 L1.5,13.5 C0.94771525,13.5 0.5,13.0522847 0.5,12.5 L0.5,3.5 C0.5,2.94771525 0.94771525,2.5 1.5,2.5 L3.99597168,2.5" id="Path"></path>
                <g id="Group" transform="translate(7.986854, 6.056854) rotate(-315.000000) translate(-7.986854, -6.056854) translate(4.986854, 1.056854)">
                    <path d="M2.97157288,0.428571429 L2.96908601,9.92857143" id="Path-2"></path>
                    <polyline id="Path" transform="translate(3.000000, 2.828427) rotate(-45.000000) translate(-3.000000, -2.828427) " points="1 0.828427125 5 0.828427125 5 4.82842712"></polyline>
                </g>
            </g>
        </g>
    </g>
</svg>