<svg xmlns="http://www.w3.org/2000/svg" width="24" height="24" viewBox="0 0 24 24">
    <g fill="none" fill-rule="evenodd">
        <path fill="#F5F5F5" d="M-1151-128H728v280h-1879z"/>
        <path fill="#FFF" d="M-950-28H74v80H-950z"/>
        <path d="M0 0h24v24H0z"/>
        <path fill="#111" d="M12 0C5.373 0 0 5.373 0 12s5.373 12 12 12 12-5.373 12-12S18.627 0 12 0zM1.636 12a10.364 10.364 0 1 1 18.508 6.41 10.495 10.495 0 0 0-5.177-4.032 5.187 5.187 0 0 0 1.397-3.605c0-2.728-1.959-4.91-4.364-4.91s-4.364 2.182-4.364 4.91a5.17 5.17 0 0 0 1.506 3.698 9.71 9.71 0 0 0-5.073 4.189A10.315 10.315 0 0 1 1.636 12zm10.637 1.91a8.836 8.836 0 0 0-.895.048 3.202 3.202 0 0 1-2.105-3.185C9.273 8.967 10.495 7.5 12 7.5s2.727 1.467 2.727 3.273a3.235 3.235 0 0 1-2.007 3.152c-.147-.005-.295-.016-.447-.016zm-6.993 6a7.98 7.98 0 0 1 6-4.266 3.73 3.73 0 0 0 1.604-.039 8.384 8.384 0 0 1 6.098 4.048 10.325 10.325 0 0 1-13.718.256h.016z"/>
        <path d="M-902 0h24v24h-24z"/>
        <path fill="#111" d="M-899.09 7h18.18c.503 0 .91-.448.91-1s-.407-1-.91-1h-18.18c-.503 0-.91.448-.91 1s.407 1 .91 1zM-880.91 11h-18.18c-.503 0-.91.448-.91 1s.407 1 .91 1h18.18c.503 0 .91-.448.91-1s-.407-1-.91-1zM-886.636 17h-12.728c-.351 0-.636.448-.636 1s.285 1 .636 1h12.728c.351 0 .636-.448.636-1s-.285-1-.636-1z"/>
        <g>
            <path fill="#00C43E" d="M-527.048 27.999C-535.844 27.976-543 20.8-543 12c0-8.799 7.156-15.977 15.952-15.999l.085-.001h79.97C-438.174-4-431 3.177-431 12c0 8.822-7.174 16-15.994 16h-79.969l-.085-.001z"/>
            <path fill="#FFF" d="M-514.831 19.36a.525.525 0 0 1-.525-.524V4.68c0-.29.236-.524.525-.524h2.272c.29 0 .525.235.525.524v14.156c0 .29-.236.524-.525.524h-2.272zm5.822 0a.525.525 0 0 1-.525-.524V4.68c0-.29.236-.524.525-.524h2.203l.027.002.098.018.14.063a.605.605 0 0 1 .112.097.588.588 0 0 1 .044.057l6.75 9.11V4.68c0-.29.236-.524.525-.524h2.273c.289 0 .524.235.524.524v14.156c0 .29-.235.524-.524.524h-2.186a.544.544 0 0 1-.194-.037l-.103-.056a.525.525 0 0 1-.133-.13l-6.76-9.209v8.908c0 .29-.234.524-.523.524h-2.273zm-18.109 0a.53.53 0 0 1-.377-.162.52.52 0 0 1-.146-.363V4.68c0-.29.235-.524.524-.524h2.272c.29 0 .526.235.526.524v11.35h6.282c.288 0 .523.236.523.526v2.279c0 .29-.235.525-.523.525h-9.08zm33.471-.142l-.02-.02a.522.522 0 0 1-.146-.363V4.68c0-.134.052-.263.16-.376a.52.52 0 0 1 .364-.148h9.08c.289 0 .524.235.524.525v2.28c0 .289-.235.524-.523.524h-6.283v2.608h6.283c.288 0 .523.236.523.526v2.278c0 .29-.235.526-.523.526h-6.283v2.607h6.283c.288 0 .523.236.523.526v2.279c0 .29-.235.525-.523.525h-9.082a.519.519 0 0 1-.357-.142zm31.486-4.872a1.11 1.11 0 0 0-1.085 1.331c.102.527.594.888 1.128.888h3.327v-2.219h-3.37zm0 5.014a3.905 3.905 0 0 1-3.886-4.172c.138-2.073 1.95-3.637 4.023-3.637h3.204c-.095-.81-.428-1.076-.55-1.171-.52-.405-1.72-.733-4.486-.104a.622.622 0 0 1-.742-.452l-.384-1.503a.622.622 0 0 1 .46-.761c2.167-.504 4.985-.849 6.861.612.756.588 1.658 1.733 1.658 3.843v6.723a.622.622 0 0 1-.621.622h-5.537zm11.033-1.85l-3.815-9.543a.51.51 0 0 1 .472-.699h2.315a.62.62 0 0 1 .576.391l2.235 5.59 2.345-5.6a.62.62 0 0 1 .573-.381h2.478c.282 0 .474.288.364.55l-6.006 14.344a.505.505 0 0 1-.467.31h-2.553a.396.396 0 0 1-.364-.55l1.847-4.412zm-23.49-10.025V12.3h2.113c1.326 0 2.4-1.078 2.4-2.407a2.404 2.404 0 0 0-2.4-2.407h-2.113zm-2.797 11.875a.525.525 0 0 1-.524-.524V4.68c0-.289.235-.524.524-.524h4.91c3.16 0 5.722 2.568 5.722 5.736 0 3.168-2.562 5.737-5.722 5.737h-2.113v3.207c0 .29-.235.524-.525.524h-2.272z"/>
            <path fill="#111" fill-rule="nonzero" d="M-418.22 18c-2.27 0-4.501-1.068-4.78-3.267l2.024-.072c.263 1.164 1.378 1.785 2.749 1.785 1.458 0 2.605-.581 2.605-1.65 0-.947-.796-1.457-2.007-1.712l-2.16-.462c-1.76-.351-2.844-1.315-2.86-2.997-.016-2.087 1.872-3.45 4.374-3.45 2.725 0 4.327 1.61 4.51 3.363l-1.96.064c-.207-1.355-1.22-1.849-2.534-1.849-1.283 0-2.303.622-2.303 1.657 0 .75.407 1.188 1.793 1.498l2.112.463c2.63.525 3.043 2.19 3.043 3.41 0 1.809-1.792 3.219-4.605 3.219zM-409.853 18c-1.594 0-2.757-.892-2.757-2.454 0-1.817 1.251-2.733 4.127-2.781l1.228-.032v-.558c0-.9-.598-1.394-1.586-1.386-.789.016-1.538.382-1.753 1.203h-1.657c.095-1.578 1.474-2.55 3.498-2.55 2.35 0 3.362 1.036 3.362 2.622v5.777h-1.633l-.16-1.443c-.597 1.235-1.514 1.602-2.669 1.602zm.621-1.315c.965 0 1.969-.773 1.977-1.577v-1.3l-1.012.017c-1.49.016-2.486.422-2.486 1.522 0 .844.645 1.338 1.521 1.338zM-401.418 17.96c-2.127 0-2.382-1.171-2.382-2.342V6h1.904v9.394c0 .718.28 1.116.925 1.172l.422.016V17.8a2.91 2.91 0 0 1-.869.16zM-398.172 14.167c-.008 1.403.701 2.39 2.024 2.39.909 0 1.554-.382 1.857-1.234h1.769c-.359 1.753-1.92 2.677-3.578 2.677-2.375 0-4-1.602-4-4.191 0-2.526 1.426-4.367 3.88-4.367 2.423 0 3.722 1.65 3.722 4.136v.59h-5.674zm0-1.203h3.857c0-1.195-.63-2.12-1.912-2.12-1.275 0-1.953 1.06-1.945 2.12zM-388.022 18c-1.73 0-3.307-.837-3.578-2.661h1.705c.215.956 1.1 1.29 1.865 1.29.98 0 1.657-.374 1.657-1.043 0-.518-.327-.813-1.076-.972l-1.57-.359c-1.394-.31-2.302-.972-2.31-2.27-.008-1.467 1.227-2.543 3.307-2.543 1.96 0 3.21.972 3.21 2.47h-1.649c-.127-.78-.788-1.1-1.601-1.1-1.044 0-1.538.439-1.538 1.037 0 .502.438.765 1.347.956l1.474.358c1.689.423 2.087 1.538 2.087 2.311 0 1.65-1.49 2.526-3.33 2.526zM-376.81 9.442c1.889 0 3.204 1.22 3.387 2.98l-1.65.008c-.207-.852-.78-1.482-1.689-1.482-1.29 0-2.111 1.044-2.111 2.781 0 1.761.836 2.86 2.135 2.86.94 0 1.53-.716 1.681-1.473h1.61c-.183 1.753-1.53 2.884-3.363 2.884-2.294 0-3.88-1.721-3.88-4.239 0-2.542 1.57-4.319 3.88-4.319zM-370.492 14.167c-.008 1.403.701 2.39 2.024 2.39.909 0 1.554-.382 1.857-1.234h1.769c-.359 1.753-1.92 2.677-3.578 2.677-2.375 0-4-1.602-4-4.191 0-2.526 1.426-4.367 3.88-4.367 2.423 0 3.722 1.65 3.722 4.136v.59h-5.674zm0-1.203h3.857c0-1.195-.63-2.12-1.912-2.12-1.275 0-1.953 1.06-1.945 2.12zM-363.7 17.84V9.603h1.896v1.1c.479-.646 1.164-1.196 2.479-1.196 1.537 0 2.884 1.068 2.884 2.876v5.459h-1.944v-5.235c0-.996-.662-1.554-1.562-1.554-.94 0-1.817.462-1.817 1.362v5.427h-1.936zM-350.684 10.972h-1.85l.009 4.725c0 .733.231.813.86.813h1.02v1.227c-.223.088-.637.175-1.346.175-1.96 0-2.47-.82-2.47-2.143v-4.797h-1.339v-1.37h1.394l.486-2.447h1.387v2.439h1.849v1.378zM-348.072 14.167c-.008 1.403.701 2.39 2.024 2.39.909 0 1.554-.382 1.857-1.234h1.769C-342.781 17.076-344.342 18-346 18c-2.375 0-4-1.602-4-4.191 0-2.526 1.426-4.367 3.88-4.367 2.423 0 3.722 1.65 3.722 4.136v.59h-5.674zm0-1.203h3.857c0-1.195-.63-2.12-1.912-2.12-1.275 0-1.953 1.06-1.945 2.12zM-341 17.84V9.603h1.857v1.784c.406-1.067 1.33-1.944 2.772-1.944.08 0 .144.008.176.024v1.873c-.056-.032-.072-.032-.168-.032-1.912-.136-2.7.63-2.7 1.745v4.789H-341z"/>
        </g>
    </g>
</svg>
