<?xml version="1.0" encoding="UTF-8"?>
<svg width="24px" height="24px" viewBox="0 0 24 24" version="1.1" xmlns="http://www.w3.org/2000/svg" xmlns:xlink="http://www.w3.org/1999/xlink">
    <!-- Generator: sketchtool 55.2 (78181) - https://sketchapp.com -->
    <title>C2B72AFF-C413-4851-BA4B-1F7D3B64DB59</title>
    <desc>Created with sketchtool.</desc>
    <g id="00-GUIDE" stroke="none" stroke-width="1" fill="none" fill-rule="evenodd">
        <g id="04_BUTTON" transform="translate(-72.000000, -1496.000000)">
            <rect fill="#FFFFFF" x="0" y="0" width="1080" height="2099"></rect>
            <g id="Glyphs/Table/Calender" transform="translate(72.000000, 1496.000000)" fill="#949494" fill-rule="nonzero">
                <path d="M7,4.9140625 L7,3.7 C7,3.14771525 7.44771525,2.7 8,2.7 C8.55228475,2.7 9,3.14771525 9,3.7 L9,4.9140625 L15,4.9140625 L15,3.7 C15,3.14771525 15.4477153,2.7 16,2.7 C16.5522847,2.7 17,3.14771525 17,3.7 L17,4.9140625 L18,4.9140625 C18.743102,4.9140625 19.4160888,5.21426125 19.9043017,5.7 L20,5.7 L20,5.8001972 C20.434961,6.27950437 20.7,6.91583184 20.7,7.6140625 L20.7,18.6140625 C20.7,20.1052313 19.4911688,21.3140625 18,21.3140625 L6,21.3140625 C4.50883118,21.3140625 3.3,20.1052313 3.3,18.6140625 L3.3,7.6140625 C3.3,6.91583184 3.56503904,6.27950437 4,5.8001972 L4,5.7 L4.09569828,5.7 C4.58391117,5.21426125 5.256898,4.9140625 6,4.9140625 L7,4.9140625 Z M19.3,9.7 L4.7,9.7 L4.7,18.6140625 C4.7,19.3320327 5.28202983,19.9140625 6,19.9140625 L18,19.9140625 C18.7179702,19.9140625 19.3,19.3320327 19.3,18.6140625 L19.3,9.7 Z M7,11.7 L9,11.7 L9,13.7 L7,13.7 L7,11.7 Z M11,11.7 L13,11.7 L13,13.7 L11,13.7 L11,11.7 Z M7,15.7 L9,15.7 L9,17.7 L7,17.7 L7,15.7 Z M11,15.7 L13,15.7 L13,17.7 L11,17.7 L11,15.7 Z M15,11.7 L17,11.7 L17,13.7 L15,13.7 L15,11.7 Z" id="Combined-Shape"></path>
            </g>
        </g>
    </g>
</svg>