<?xml version="1.0" encoding="UTF-8"?>
<svg width="24px" height="24px" viewBox="0 0 24 24" version="1.1" xmlns="http://www.w3.org/2000/svg" xmlns:xlink="http://www.w3.org/1999/xlink">
    <!-- Generator: sketchtool 55 (78076) - https://sketchapp.com -->
    <title>77F0E09C-61C4-46B9-AE5D-999A0578679D</title>
    <desc>Created with sketchtool.</desc>
    <g id="Symbols" stroke="none" stroke-width="1" fill="none" fill-rule="evenodd">
        <g id="Glyphs/Table/Check/G" fill="#E3E5EC">
            <path d="M6.72792206,12.4350288 L22.7279221,12.4350288 L22.7279221,14.4350288 L7.72792206,14.4350288 C7.17563731,14.4350288 6.72792206,13.9873136 6.72792206,13.4350288 L6.72792206,12.4350288 Z" id="Rectangle" transform="translate(14.727922, 13.435029) rotate(-45.000000) translate(-14.727922, -13.435029) "></path>
            <path d="M1.94974747,14.5563492 L11.9497475,14.5563492 L11.9497475,15.5563492 C11.9497475,16.1086339 11.5020322,16.5563492 10.9497475,16.5563492 L1.94974747,16.5563492 L1.94974747,14.5563492 Z" id="Rectangle" transform="translate(6.949747, 15.556349) rotate(-315.000000) translate(-6.949747, -15.556349) "></path>
            <circle id="Oval" transform="translate(20.384776, 7.778175) rotate(-45.000000) translate(-20.384776, -7.778175) " cx="20.3847763" cy="7.77817459" r="1"></circle>
            <circle id="Oval" transform="translate(3.414214, 12.020815) rotate(-45.000000) translate(-3.414214, -12.020815) " cx="3.41421356" cy="12.0208153" r="1"></circle>
        </g>
    </g>
</svg>