<?xml version="1.0" encoding="UTF-8"?>
<svg width="24px" height="24px" viewBox="0 0 24 24" version="1.1" xmlns="http://www.w3.org/2000/svg" xmlns:xlink="http://www.w3.org/1999/xlink">
    <!-- Generator: sketchtool 55.2 (78181) - https://sketchapp.com -->
    <title>51108120-10D0-4B95-BF58-15C7391E7C4A</title>
    <desc>Created with sketchtool.</desc>
    <g id="Symbols" stroke="none" stroke-width="1" fill="none" fill-rule="evenodd">
        <g id="Glyphs/Search" fill="#949494" fill-rule="nonzero">
            <path d="M14.3824811,15.6180032 C13.3501726,16.3934419 12.0669825,16.8529412 10.6764706,16.8529412 C7.26530007,16.8529412 4.5,14.0876411 4.5,10.6764706 C4.5,7.26530007 7.26530007,4.5 10.6764706,4.5 C14.0876411,4.5 16.8529412,7.26530007 16.8529412,10.6764706 C16.8529412,12.0669825 16.3934419,13.3501726 15.6180032,14.3824811 C15.6508091,14.407171 15.6822853,14.4344498 15.712153,14.4643175 L19.2415648,17.9937293 C19.5861451,18.3383096 19.5861451,18.8969845 19.2415648,19.2415648 C18.8969845,19.5861451 18.3383096,19.5861451 17.9937293,19.2415648 L14.4643175,15.712153 C14.4344498,15.6822853 14.407171,15.6508091 14.3824811,15.6180032 Z M10.6764706,15.0882353 C13.113021,15.0882353 15.0882353,13.113021 15.0882353,10.6764706 C15.0882353,8.23992022 13.113021,6.26470588 10.6764706,6.26470588 C8.23992022,6.26470588 6.26470588,8.23992022 6.26470588,10.6764706 C6.26470588,13.113021 8.23992022,15.0882353 10.6764706,15.0882353 Z" id="Combined-Shape"></path>
        </g>
    </g>
</svg>