<?xml version="1.0" encoding="UTF-8"?>
<svg width="20px" height="20px" viewBox="0 0 20 20" version="1.1" xmlns="http://www.w3.org/2000/svg" xmlns:xlink="http://www.w3.org/1999/xlink">
    <!-- Generator: sketchtool 55.2 (78181) - https://sketchapp.com -->
    <title>3F9BA417-8EAB-44EE-BE15-D43E5EEF033B</title>
    <desc>Created with sketchtool.</desc>
    <g id="00-GUIDE" stroke="none" stroke-width="1" fill="none" fill-rule="evenodd">
        <g id="04_BUTTON" transform="translate(-682.000000, -1835.000000)">
            <rect fill="#FFFFFF" x="0" y="0" width="1513" height="2445"></rect>
            <g id="Glyphs/Table/Linkout/B" transform="translate(682.000000, 1835.000000)" stroke="#A9ADBC" stroke-linecap="round" stroke-linejoin="round">
                <path d="M15.5,12.0015869 L15.5,14.5 C15.5,15.0522847 15.0522847,15.5 14.5,15.5 L5.5,15.5 C4.94771525,15.5 4.5,15.0522847 4.5,14.5 L4.5,5.5 C4.5,4.94771525 4.94771525,4.5 5.5,4.5 L7.99597168,4.5" id="Path" stroke-width="1.3"></path>
                <g id="Group" stroke-width="1" fill-rule="evenodd" transform="translate(11.986854, 8.056854) rotate(-315.000000) translate(-11.986854, -8.056854) translate(8.986854, 3.056854)">
                    <path d="M2.97157288,0.428571429 L2.96908601,9.92857143" id="Path-2" stroke-width="1.3"></path>
                    <polyline id="Path" stroke-width="1.3" transform="translate(3.000000, 2.828427) rotate(-45.000000) translate(-3.000000, -2.828427) " points="1 0.828427125 5 0.828427125 5 4.82842712"></polyline>
                </g>
            </g>
        </g>
    </g>
</svg>