<?xml version="1.0" encoding="UTF-8"?>
<svg width="14px" height="14px" viewBox="0 0 14 14" version="1.1" xmlns="http://www.w3.org/2000/svg" xmlns:xlink="http://www.w3.org/1999/xlink">
    <!-- Generator: sketchtool 55.2 (78181) - https://sketchapp.com -->
    <title>36F053D9-E861-4D4B-ABAF-B15BEB9AB0D2</title>
    <desc>Created with sketchtool.</desc>
    <g id="00-GUIDE" stroke="none" stroke-width="1" fill="none" fill-rule="evenodd">
        <g id="04_BUTTON" transform="translate(-324.000000, -761.000000)">
            <rect fill="#FFFFFF" x="0" y="0" width="1080" height="2099"></rect>
            <g id="Group" transform="translate(324.000000, 761.000000)">
                <polygon id="Rectangle" transform="translate(7.000000, 7.000000) rotate(90.000000) translate(-7.000000, -7.000000) " points="1.55372012e-12 2.33146835e-15 14 2.33146835e-15 14 14 1.55372012e-12 14"></polygon>
                <path d="M7.5,2 L7.5,13" id="Path-3" stroke="#949494" stroke-linecap="round" stroke-linejoin="round"></path>
                <path d="M7.5,2 L7.5,13" id="Path-3" stroke="#949494" stroke-linecap="round" stroke-linejoin="round" transform="translate(7.500000, 7.500000) rotate(-270.000000) translate(-7.500000, -7.500000) "></path>
            </g>
            <path d="M78.409713,740.5 C76.4531538,740.5 75.6373573,740.657538 74.7936852,741.108738 C74.0660046,741.497906 73.4979062,742.066005 73.1087384,742.793685 C72.6575376,743.637357 72.5,744.453154 72.5,746.409713 L72.5,789.590287 C72.5,791.546846 72.6575376,792.362643 73.1087384,793.206315 C73.4979062,793.933995 74.0660046,794.502094 74.7936852,794.891262 C75.6373573,795.342462 76.4531538,795.5 78.409713,795.5 L677.590287,795.5 C679.546846,795.5 680.362643,795.342462 681.206315,794.891262 C681.933995,794.502094 682.502094,793.933995 682.891262,793.206315 C683.342462,792.362643 683.5,791.546846 683.5,789.590287 L683.5,746.409713 C683.5,744.453154 683.342462,743.637357 682.891262,742.793685 C682.502094,742.066005 681.933995,741.497906 681.206315,741.108738 C680.362643,740.657538 679.546846,740.5 677.590287,740.5 L78.409713,740.5 Z" id="Rectangle" stroke="#E3E5EC"></path>
        </g>
    </g>
</svg>