<svg xmlns="http://www.w3.org/2000/svg" xmlns:xlink="http://www.w3.org/1999/xlink" width="128" height="37" viewBox="0 0 128 37">
    <defs>
        <path id="a" d="M0 0h127.715v37H0z"/>
    </defs>
    <g fill="none" fill-rule="evenodd">
        <path fill="#00C43E" d="M92.437 23.778h3.801v-2.565h-3.85c-.78 0-1.398.72-1.24 1.539.116.608.678 1.026 1.29 1.026"/>
        <g>
            <mask id="b" fill="#fff">
                <use xlink:href="#a"/>
            </mask>
            <path fill="#00C43E" d="M18.23 36.999l.098.001h91.393C119.801 37 128 28.7 128 18.5 128 8.298 119.8 0 109.72 0H18.328l-.097.002C8.179.027 0 8.327 0 18.5 0 28.675 8.179 36.973 18.23 37z" mask="url(#b)"/>
        </g>
        <path fill="#00C43E" d="M83.309 16.063c0-1.537-1.228-2.783-2.743-2.783H78.15v5.566h2.415c1.515 0 2.743-1.246 2.743-2.783"/>
        <path fill="#FFF" d="M32.193 27.01h2.597c.33 0 .6-.272.6-.606V10.037a.604.604 0 0 0-.6-.607h-2.597c-.33 0-.6.272-.6.607v16.367c0 .334.27.606.6.606M38.847 27.01h2.597c.33 0 .6-.272.6-.606v-10.3l7.724 10.648c.042.06.093.11.152.15l.118.065a.615.615 0 0 0 .221.043h2.498c.33 0 .6-.272.6-.606V10.037a.603.603 0 0 0-.6-.607H50.16c-.33 0-.6.272-.6.607v10.2L41.847 9.706a.678.678 0 0 0-.133-.146.691.691 0 0 0-.046-.032l-.16-.073-.111-.02-.031-.003h-2.518c-.33 0-.6.27-.6.606v16.367c0 .334.27.606.6.606M18.151 27.01H28.53c.33 0 .598-.273.598-.607v-2.635a.604.604 0 0 0-.598-.608h-7.18V10.037a.604.604 0 0 0-.6-.607h-2.597c-.33 0-.599.272-.599.607v16.366a.605.605 0 0 0 .598.607M56.404 26.846a.59.59 0 0 0 .408.164H67.19c.33 0 .598-.273.598-.607v-2.635a.604.604 0 0 0-.598-.608h-7.18v-3.015h7.18c.33 0 .598-.273.598-.608v-2.634a.604.604 0 0 0-.598-.608h-7.18V13.28h7.18c.33 0 .598-.273.598-.607v-2.635a.603.603 0 0 0-.598-.608H56.813a.592.592 0 0 0-.416.17.625.625 0 0 0-.183.437v16.366c0 .158.06.306.167.42l.023.023zM92.387 21.213h3.851v2.565h-3.8c-.612 0-1.174-.418-1.29-1.026-.158-.82.46-1.539 1.24-1.539m0 5.798h6.327c.392 0 .71-.323.71-.72v-7.774c0-2.44-1.03-3.763-1.894-4.444-2.144-1.688-5.365-1.29-7.843-.707a.72.72 0 0 0-.524.88l.438 1.739a.71.71 0 0 0 .848.521c3.16-.727 4.532-.348 5.126.12.14.11.521.418.63 1.355h-3.662c-2.368 0-4.44 1.809-4.598 4.205-.174 2.63 1.886 4.825 4.441 4.825M104.996 24.871l-2.11 5.102a.457.457 0 0 0 .416.636h2.917c.234 0 .444-.14.534-.36l6.864-16.585a.457.457 0 0 0-.416-.635h-2.832a.71.71 0 0 0-.655.44l-2.68 6.476-2.554-6.464a.71.71 0 0 0-.659-.452h-2.645a.588.588 0 0 0-.54.808l4.36 11.034zM78.151 13.28h2.415c1.515 0 2.743 1.246 2.743 2.783s-1.228 2.783-2.743 2.783H78.15V13.28zm-3.197 13.73h2.597c.33 0 .6-.271.6-.606v-3.708h2.415c3.61 0 6.539-2.97 6.539-6.633s-2.928-6.633-6.54-6.633h-5.611a.604.604 0 0 0-.599.607v16.367c0 .335.269.606.599.606z"/>
    </g>
</svg>
