<svg xmlns="http://www.w3.org/2000/svg" width="94" height="27" viewBox="0 0 94 27">
    <g fill="none" fill-rule="evenodd">
        <path fill="#08BF5B" d="M13.388 26.856C6.006 26.837 0 20.814 0 13.43S6.006.019 13.388 0L13.46 0h67.117C87.979 0 94 6.024 94 13.429c0 7.404-6.02 13.428-13.423 13.428H13.388z"/>
        <path fill="#FFF" d="M23.329 19.255a.437.437 0 0 1-.44-.433V7.147c0-.239.198-.433.44-.433h1.905c.243 0 .44.194.44.433v11.675a.437.437 0 0 1-.44.433H23.33zm4.881 0a.437.437 0 0 1-.44-.433V7.147c0-.239.198-.433.44-.433h1.848l.022.003.083.014.117.052a.507.507 0 0 1 .094.08.486.486 0 0 1 .037.047l5.66 7.514V7.147c0-.239.197-.433.439-.433h1.905c.243 0 .44.194.44.433v11.675a.436.436 0 0 1-.44.433h-1.832a.464.464 0 0 1-.162-.031l-.087-.046a.437.437 0 0 1-.112-.108l-5.667-7.595v7.347a.436.436 0 0 1-.439.433H28.21zm-15.182 0a.449.449 0 0 1-.316-.134.425.425 0 0 1-.123-.3V7.147c0-.239.197-.433.44-.433h1.905c.242 0 .44.194.44.433v9.361h5.267c.242 0 .439.195.439.434v1.88a.437.437 0 0 1-.439.433h-7.613zm28.062-.117l-.016-.017a.427.427 0 0 1-.123-.3V7.147a.44.44 0 0 1 .44-.433h7.613c.241 0 .438.195.438.434v1.88a.437.437 0 0 1-.438.433h-5.268v2.15h5.268c.241 0 .438.195.438.434v1.88a.437.437 0 0 1-.438.433h-5.268v2.15h5.268c.241 0 .438.195.438.434v1.88a.437.437 0 0 1-.438.433H41.39a.439.439 0 0 1-.3-.117zm26.398-4.019a.92.92 0 0 0-.91 1.098c.086.434.499.732.947.732h2.789v-1.83h-2.826zm0 4.136c-1.874 0-3.385-1.566-3.258-3.441.116-1.71 1.636-3 3.374-3h2.686c-.08-.669-.36-.888-.462-.966-.436-.334-1.442-.605-3.761-.086a.522.522 0 0 1-.622-.372l-.321-1.24a.513.513 0 0 1 .384-.628c1.818-.415 4.18-.7 5.754.504.634.486 1.39 1.43 1.39 3.17v5.545a.517.517 0 0 1-.521.514h-4.643zm9.25-1.526L73.54 9.858a.42.42 0 0 1 .396-.577h1.94a.52.52 0 0 1 .484.323l1.874 4.611 1.966-4.62a.52.52 0 0 1 .48-.314h2.078c.236 0 .397.238.305.453l-5.036 11.831a.424.424 0 0 1-.392.256h-2.14a.327.327 0 0 1-.305-.453l1.549-3.64zM57.045 9.46v3.97h1.772c1.111 0 2.013-.89 2.013-1.985 0-1.097-.902-1.985-2.013-1.985h-1.772zM54.7 19.255a.436.436 0 0 1-.44-.433V7.147c0-.239.198-.433.44-.433h4.117c2.65 0 4.797 2.119 4.797 4.732 0 2.612-2.148 4.73-4.797 4.73h-1.772v2.646a.437.437 0 0 1-.44.433H54.7z"/>
    </g>
</svg>
