<?xml version="1.0" encoding="UTF-8"?>
<svg width="85px" height="25px" viewBox="0 0 85 25" version="1.1" xmlns="http://www.w3.org/2000/svg" xmlns:xlink="http://www.w3.org/1999/xlink">
    <!-- Generator: sketchtool 55.2 (78181) - https://sketchapp.com -->
    <title>8363BEEE-24F4-4171-B999-38D88BF0F841</title>
    <desc>Created with sketchtool.</desc>
    <defs>
        <polygon id="path-1" points="0.112849156 0.166821429 39.5832806 0.166821429 39.5832806 24.8214286 0.112849156 24.8214286"></polygon>
    </defs>
    <g id="GUIDE" stroke="none" stroke-width="1" fill="none" fill-rule="evenodd">
        <g id="03_COMPONENT" transform="translate(-73.000000, -203.000000)">
            <g id="Logo/Linepay" transform="translate(73.000000, 202.000000)">
                <g id="Group-18" transform="translate(0.000000, 1.000000)">
                    <path d="M13.7823376,5.53071429 L11.7150802,5.53071429 C11.3978544,5.53071429 11.1407025,5.78678571 11.1407025,6.1025 L11.1407025,18.9119643 C11.1407025,19.2278571 11.3978544,19.4839286 11.7150802,19.4839286 L13.7823376,19.4839286 C14.0995633,19.4839286 14.3565359,19.2278571 14.3565359,18.9119643 L14.3565359,6.1025 C14.3565359,5.78678571 14.0995633,5.53071429 13.7823376,5.53071429" id="Fill-1" fill="#000000"></path>
                    <path d="M8.78620253,16.2814464 L3.21601266,16.2814464 L3.21601266,6.10251786 C3.21601266,5.786625 2.95868143,5.53073214 2.64163502,5.53073214 L0.574377637,5.53073214 C0.257151899,5.53073214 0,5.786625 0,6.10251786 L0,18.9119821 C0,19.227875 0.257151899,19.4839464 0.574377637,19.4839464 L8.78620253,19.4839464 C9.10342827,19.4839464 9.36058017,19.227875 9.36058017,18.9119821 L9.36058017,16.8534107 C9.36058017,16.5375179 9.10342827,16.2814464 8.78620253,16.2814464" id="Fill-3" fill="#000000"></path>
                    <path d="M39.5095063,8.73305357 C39.8267321,8.73305357 40.083884,8.47698214 40.083884,8.16108929 L40.083884,6.10251786 C40.083884,5.786625 39.8267321,5.53073214 39.5095063,5.53073214 L31.2975021,5.53073214 C30.9802764,5.53073214 30.7233038,5.786625 30.7233038,6.10251786 L30.7233038,18.9119821 C30.7233038,19.227875 30.9802764,19.4839464 31.2975021,19.4839464 L39.5095063,19.4839464 C39.8267321,19.4839464 40.083884,19.227875 40.083884,18.9119821 L40.083884,16.8534107 C40.083884,16.5375179 39.8267321,16.2814464 39.5095063,16.2814464 L33.9391371,16.2814464 L33.9391371,14.1084107 L39.5095063,14.1084107 C39.8267321,14.1084107 40.083884,13.8523393 40.083884,13.536625 L40.083884,11.4780536 C40.083884,11.1621607 39.8267321,10.9060893 39.5095063,10.9060893 L33.9391371,10.9060893 L33.9391371,8.73305357 L39.5095063,8.73305357 Z" id="Fill-5" fill="#000000"></path>
                    <path d="M27.9666857,5.53071429 L25.8994283,5.53071429 C25.5822025,5.53071429 25.3250506,5.78678571 25.3250506,6.1025 L25.3250506,13.5142857 L19.9148186,5.81142857 C19.7614958,5.59285714 19.5328565,5.53071429 19.2787532,5.53071429 C19.2468333,5.52517857 19.2140169,5.53071429 19.1804831,5.53071429 L17.1132257,5.53071429 C16.796,5.53071429 16.5388481,5.78678571 16.5388481,6.1025 L16.5388481,18.9119643 C16.5388481,19.2278571 16.796,19.4839286 17.1132257,19.4839286 L19.1804831,19.4839286 C19.4975295,19.4839286 19.7548608,19.2278571 19.7548608,18.9119643 L19.7548608,11.1707143 L25.3955253,19.2021429 C25.415789,19.2308929 25.4380253,19.2569643 25.4615169,19.2816071 C25.558711,19.3955357 25.6998397,19.4726786 25.8589008,19.4839286 L25.9625506,19.4839286 L27.9666857,19.4839286 C28.2839114,19.4839286 28.5410633,19.2278571 28.5410633,18.9119643 L28.5410633,6.1025 C28.5410633,5.78678571 28.2839114,5.53071429 27.9666857,5.53071429" id="Fill-7" fill="#000000"></path>
                    <g id="Group-11" transform="translate(45.369198, 0.011786)">
                        <mask id="mask-2" fill="white">
                            <use xlink:href="#path-1"></use>
                        </mask>
                        <g id="Clip-10"></g>
                        <path d="M38.1480179,24.8214643 L1.54816561,24.8214643 C0.755549578,24.8214643 0.112849156,24.1816429 0.112849156,23.3921786 L0.112849156,1.59610714 C0.112849156,0.806642857 0.755549578,0.166821429 1.54816561,0.166821429 L38.1480179,0.166821429 C38.940634,0.166821429 39.5833344,0.806642857 39.5833344,1.59610714 L39.5833344,23.3921786 C39.5833344,24.1816429 38.940634,24.8214643 38.1480179,24.8214643" id="Fill-9" fill="#08BF5B" mask="url(#mask-2)"></path>
                    </g>
                    <path d="M57.0962215,9.79305357 C57.0962215,8.96251786 56.5074979,8.32733929 55.7062743,8.32733929 L53.9890591,8.32733929 L53.9890591,11.2587679 L55.7062743,11.2587679 C56.5074979,11.2587679 57.0962215,10.6235893 57.0962215,9.79305357 M59.7127511,9.79305357 C59.7127511,11.9589464 57.9628987,13.7014464 55.7062743,13.7014464 L53.9890591,13.7014464 L53.9890591,16.9005536 C53.9890591,17.1123393 53.8165485,17.284125 53.6038692,17.284125 L51.7577194,17.284125 C51.5448608,17.284125 51.3725295,17.1123393 51.3725295,16.9005536 L51.3725295,6.26823214 C51.3725295,6.05644643 51.5448608,5.88466071 51.7577194,5.88466071 L55.7062743,5.88466071 C57.9628987,5.88466071 59.7127511,7.62716071 59.7127511,9.79305357" id="Fill-12" fill="#FFFFFF"></path>
                    <path d="M66.9756245,13.2128571 C66.9756245,11.9916071 66.157903,11.2260714 65.0294114,11.2260714 C63.9010992,11.2260714 63.0833776,11.9916071 63.0833776,13.2128571 C63.0833776,14.4342857 63.9010992,15.1996429 65.0294114,15.1996429 C66.157903,15.1996429 66.9756245,14.4342857 66.9756245,13.2128571 M69.4286097,9.34357143 L69.4286097,17.0821429 C69.4286097,17.19375 69.3378713,17.2841071 69.2257932,17.2841071 L67.1784409,17.2841071 C67.0663629,17.2841071 66.9756245,17.19375 66.9756245,17.0821429 L66.9756245,16.51875 C66.4360359,17.1375 65.6346329,17.5121429 64.5389578,17.5121429 C62.3965633,17.5121429 60.6303924,15.6392857 60.6303924,13.2128571 C60.6303924,10.7864286 62.3965633,8.91357143 64.5389578,8.91357143 C65.6346329,8.91357143 66.4360359,9.28821429 66.9756245,9.90696429 L66.9756245,9.34357143 C66.9756245,9.23214286 67.0663629,9.14160714 67.1784409,9.14160714 L69.2257932,9.14160714 C69.3378713,9.14160714 69.4286097,9.23214286 69.4286097,9.34357143" id="Fill-14" fill="#FFFFFF"></path>
                    <path d="M77.5918734,9.35394643 L75.7093207,14.0762679 L73.7627489,9.350375 C73.7107447,9.224125 73.5871899,9.141625 73.4500063,9.141625 L71.3624852,9.141625 C71.218308,9.141625 71.120038,9.28733929 71.1747321,9.42019643 L74.4224852,17.3043036 L73.2391203,20.2732321 C73.1862194,20.4057321 73.2843101,20.5496607 73.4274114,20.5496607 L75.5160084,20.5496607 C75.6544473,20.5496607 75.7790781,20.4655536 75.8301857,20.3373393 L80.1829388,9.41805357 C80.2358397,9.28555357 80.1377489,9.141625 79.9944684,9.141625 L77.9058713,9.141625 C77.7674325,9.141625 77.642981,9.22573214 77.5918734,9.35394643" id="Fill-16" fill="#FFFFFF"></path>
                </g>
            </g>
        </g>
    </g>
</svg>