<svg xmlns="http://www.w3.org/2000/svg" xmlns:xlink="http://www.w3.org/1999/xlink" width="128" height="37" viewBox="0 0 128 37">
    <defs>
        <path id="a" d="M.149.218h52.008v32.21H.149z"/>
    </defs>
    <g fill="none" fill-rule="evenodd">
        <path fill="#000" d="M18.16 9.225h-2.724a.752.752 0 0 0-.756.747v16.735c0 .413.338.747.756.747h2.724a.752.752 0 0 0 .757-.747V9.972a.752.752 0 0 0-.757-.747M11.577 23.27h-7.34V9.972a.752.752 0 0 0-.756-.747H.757A.752.752 0 0 0 0 9.972v16.735c0 .413.339.747.757.747h10.82a.752.752 0 0 0 .757-.747v-2.69a.752.752 0 0 0-.757-.747M52.06 13.409a.752.752 0 0 0 .756-.747v-2.69a.752.752 0 0 0-.756-.747H41.24a.752.752 0 0 0-.758.747v16.735c0 .413.34.747.757.747h10.82a.752.752 0 0 0 .757-.747v-2.69a.752.752 0 0 0-.756-.747h-7.34v-2.838h7.34a.752.752 0 0 0 .756-.747v-2.69a.752.752 0 0 0-.756-.747h-7.34v-2.839h7.34zM36.85 9.225h-2.724a.752.752 0 0 0-.757.747v9.683L26.241 9.592c-.202-.285-.504-.367-.838-.367-.042-.007-.086 0-.13 0H22.55a.752.752 0 0 0-.757.747v16.735c0 .413.34.747.757.747h2.724a.752.752 0 0 0 .757-.747V16.594l7.432 10.492a.913.913 0 0 0 .087.104c.128.149.314.25.524.264h2.777a.752.752 0 0 0 .757-.747V9.972a.752.752 0 0 0-.757-.747"/>
        <g transform="translate(59.78 2.015)">
            <mask id="b" fill="#fff">
                <use xlink:href="#a"/>
            </mask>
            <path fill="#00C34D" d="M50.266 32.427H2.04A1.88 1.88 0 0 1 .149 30.56V2.085A1.88 1.88 0 0 1 2.039.218h48.227a1.88 1.88 0 0 1 1.89 1.867V30.56a1.88 1.88 0 0 1-1.89 1.867" mask="url(#b)"/>
        </g>
        <path fill="#FFF" d="M75.233 14.794c0-1.085-.776-1.915-1.832-1.915H71.14v3.83H73.4c1.056 0 1.832-.83 1.832-1.915m3.447 0c0 2.83-2.305 5.106-5.279 5.106H71.14v4.18a.504.504 0 0 1-.508.5h-2.433a.504.504 0 0 1-.507-.5V10.188c0-.277.227-.501.507-.501h5.203c2.974 0 5.28 2.276 5.28 5.106M88.25 19.262c0-1.596-1.077-2.596-2.564-2.596s-2.564 1-2.564 2.596c0 1.595 1.077 2.595 2.564 2.595s2.564-1 2.564-2.595m3.232-5.055v10.11c0 .145-.12.263-.267.263h-2.698a.265.265 0 0 1-.267-.264v-.736c-.71.809-1.767 1.298-3.21 1.298-2.823 0-5.15-2.447-5.15-5.616 0-3.17 2.327-5.617 5.15-5.617 1.443 0 2.5.49 3.21 1.298v-.736c0-.146.12-.264.267-.264h2.698c.148 0 .267.118.267.264M102.239 14.22l-2.48 6.17-2.566-6.174a.445.445 0 0 0-.412-.273h-2.75c-.19 0-.32.19-.248.364l4.28 10.3-1.56 3.878c-.07.173.06.361.248.361h2.752c.183 0 .347-.11.414-.277l5.736-14.265a.264.264 0 0 0-.249-.361h-2.752a.445.445 0 0 0-.413.277"/>
    </g>
</svg>
