<svg xmlns="http://www.w3.org/2000/svg" xmlns:xlink="http://www.w3.org/1999/xlink" width="151" height="28" viewBox="0 0 151 28">
    <defs>
        <path id="a" d="M0 27.467h150.828V0H0z"/>
    </defs>
    <g fill="none" fill-rule="evenodd">
        <path fill="#FFF" d="M75.584 1.079l-61.193-.001c-7.027 0-13.024 5.346-13.261 12.216-.25 7.19 5.635 13.095 12.93 13.095h61.524V1.079z"/>
        <path fill="#00C43E" d="M25 10.734c-2.7 0-4.822 2.044-4.822 4.657 0 2.533 2 4.598 4.453 4.598.836 0 1.351-.167 2.053-.666l.6-.422v.843h2.457V15.58c0-2.81-1.992-4.846-4.74-4.846m-.042 6.838c-1.251 0-2.266-.994-2.266-2.222 0-1.225 1.015-2.219 2.266-2.219 1.254 0 2.273.994 2.273 2.219 0 1.228-1.019 2.222-2.273 2.222M36.05 10.734c-.726 0-1.35.187-2.036.602l-.615.381V7.118H30.96v7.968c0 2.838 1.993 4.903 4.742 4.903 2.698 0 4.82-2.054 4.82-4.677 0-2.482-2.051-4.578-4.471-4.578m-.313 6.838c-1.25 0-2.268-.994-2.268-2.222 0-1.225 1.018-2.219 2.268-2.219 1.254 0 2.269.994 2.269 2.219 0 1.228-1.015 2.222-2.269 2.222M46.637 10.734c-.729 0-1.353.187-2.033.602l-.624.381V7.118h-2.435v7.968c0 2.838 1.992 4.903 4.743 4.903 2.698 0 4.817-2.054 4.817-4.677 0-2.482-2.046-4.578-4.468-4.578m-.313 6.838c-1.253 0-2.27-.994-2.27-2.222 0-1.225 1.017-2.219 2.27-2.219 1.252 0 2.273.994 2.273 2.219 0 1.228-1.021 2.222-2.273 2.222"/>
        <mask id="b" fill="#fff">
            <use xlink:href="#a"/>
        </mask>
        <path fill="#00C43E" d="M52.288 19.743h2.518v-8.764h-2.518zM61.16 13.101v-2.088h-2.458V7.118h-2.436v9.197c0 1.477.28 2.21 1.087 2.808.697.494 1.268.62 2.784.62h1.024V17.64h-.759c-1.319 0-1.7-.355-1.7-1.57V13.1h2.459zM19.523 10.734c-2.747 0-4.742 2.036-4.742 4.846v4.164h2.457v-3.882c0-1.73.858-2.76 2.305-2.76.026 0 .057 0 .081.004.027.004.045.006.065.006V10.74h-.055c-.044-.005-.077-.005-.111-.005" mask="url(#b)"/>
        <path fill="#00C43E" d="M2.176 13.308C2.408 7.01 8.127 2.122 14.569 2.122l59.416-.049c-4.256 2.193-7.16 6.562-7.16 11.595 0 5.059 2.934 9.448 7.227 11.63l-60.013.048c-6.69 0-12.106-5.442-11.863-12.038M136.84 0h.017V0H14.399C6.772 0 .267 5.8.009 13.256c-.271 7.803 6.114 14.211 14.03 14.211h122.802c7.754 0 13.986-6.201 13.986-13.786 0-7.584-6.232-13.68-13.986-13.68" mask="url(#b)"/>
        <path fill="#FFF" d="M86.765 18.833c0 .21-.174.38-.387.38h-6.715a.4.4 0 0 1-.279-.117.371.371 0 0 1-.108-.263V8.621c0-.208.174-.378.388-.378h1.68c.214 0 .388.17.388.378v8.188h4.646c.213 0 .387.171.387.379v1.645zM90.817 18.834a.384.384 0 0 1-.388.378h-1.68a.384.384 0 0 1-.388-.378V8.62c0-.209.174-.378.387-.378h1.681c.214 0 .388.17.388.378v10.213zM102.442 18.834a.384.384 0 0 1-.387.378h-1.617a.464.464 0 0 1-.104-.014c-.009-.002-.017-.004-.039-.013l-.076-.04a.39.39 0 0 1-.098-.094l-5-6.644v6.427a.383.383 0 0 1-.386.378h-1.68a.384.384 0 0 1-.389-.378V8.62c0-.209.174-.378.388-.378h1.63l.02.002.072.013.103.046a.27.27 0 0 1 .03.02c.006.005.014.01.027.024a.18.18 0 0 1 .025.026.223.223 0 0 1 .033.04l4.993 6.573V8.62c0-.209.174-.378.387-.378h1.68c.214 0 .388.17.388.378v10.213zM111.78 10.266c0 .209-.173.38-.387.38h-4.645v1.88h4.645c.214 0 .387.17.387.38v1.643c0 .21-.173.38-.387.38h-4.645v1.88h4.645c.214 0 .387.17.387.38v1.643c0 .21-.173.38-.387.38h-6.715a.388.388 0 0 1-.264-.102l-.014-.014a.374.374 0 0 1-.109-.264V8.62a.389.389 0 0 1 .388-.378h6.714c.214 0 .387.171.387.38v1.644zM136.593 21.457h-1.887a.286.286 0 0 1-.27-.396l1.366-3.183-2.821-6.886a.369.369 0 0 1 .349-.504h1.712a.46.46 0 0 1 .426.282l1.653 4.035 1.733-4.04a.459.459 0 0 1 .424-.277h1.833c.209 0 .35.208.269.397l-4.441 10.348a.374.374 0 0 1-.346.224M120.048 14.118h-1.562v-3.472h1.562c.98 0 1.775.776 1.775 1.736 0 .959-.795 1.736-1.775 1.736m0-5.876h-3.631a.384.384 0 0 0-.387.378v10.214c0 .209.173.378.387.378h1.68a.383.383 0 0 0 .389-.378V16.52h1.562c2.336 0 4.23-1.853 4.23-4.138 0-2.286-1.894-4.14-4.23-4.14M130.135 17.196h-2.46c-.395 0-.759-.261-.834-.641a.806.806 0 0 1 .802-.96h2.492v1.6zm.837-6.056c-1.388-1.053-3.472-.804-5.075-.44a.448.448 0 0 0-.34.548l.284 1.085c.062.236.306.38.549.325 2.045-.453 2.933-.217 3.317.075.09.069.336.261.407.846h-2.37c-1.531 0-2.872 1.127-2.974 2.623-.113 1.64 1.22 3.01 2.873 3.01h4.095a.454.454 0 0 0 .459-.449v-4.85c0-1.522-.667-2.348-1.225-2.773z" mask="url(#b)"/>
    </g>
</svg>
