<svg xmlns="http://www.w3.org/2000/svg" xmlns:xlink="http://www.w3.org/1999/xlink" width="195" height="37" viewBox="0 0 195 37">
    <defs>
        <path id="a" d="M0 36.755h194.885V.56H0z"/>
    </defs>
    <g fill="none" fill-rule="evenodd">
        <path fill="#FFF" d="M97.663 1.982H18.595c-9.08 0-16.828 7.043-17.135 16.096-.322 9.476 7.281 17.257 16.706 17.257h79.497V1.982z"/>
        <path fill="#00C43E" d="M32.303 14.705c-3.489 0-6.23 2.693-6.23 6.137 0 3.337 2.584 6.06 5.753 6.06 1.08 0 1.746-.22 2.653-.876l.776-.558v1.11h3.174V21.09c0-3.703-2.574-6.386-6.126-6.386m-.052 9.011a2.926 2.926 0 0 1 0-5.853c1.62 0 2.936 1.31 2.936 2.924a2.933 2.933 0 0 1-2.936 2.93M46.582 14.705c-.939 0-1.746.245-2.632.795l-.794.501v-6.06h-3.151v10.5c0 3.738 2.574 6.46 6.126 6.46 3.487 0 6.228-2.706 6.228-6.164 0-3.27-2.65-6.032-5.777-6.032m-.404 9.011a2.932 2.932 0 0 1-2.93-2.929 2.93 2.93 0 0 1 2.93-2.923 2.927 2.927 0 1 1 0 5.852M60.26 14.705c-.941 0-1.748.245-2.626.795l-.808.501v-6.06h-3.145v10.5c0 3.738 2.574 6.46 6.129 6.46 3.486 0 6.223-2.706 6.223-6.164 0-3.27-2.643-6.032-5.773-6.032m-.403 9.011a2.93 2.93 0 0 1-2.934-2.929 2.93 2.93 0 0 1 2.934-2.923 2.933 2.933 0 0 1 2.935 2.923 2.935 2.935 0 0 1-2.935 2.93"/>
        <mask id="b" fill="#fff">
            <use xlink:href="#a"/>
        </mask>
        <path fill="#00C43E" d="M67.563 26.577h3.253V15.029h-3.253zM79.027 17.824v-2.752H75.85V9.94h-3.148v12.121c0 1.945.361 2.91 1.404 3.699.902.65 1.64.817 3.597.817h1.324v-2.77h-.98c-1.705 0-2.197-.467-2.197-2.069v-3.914h3.177zM25.226 14.705c-3.55 0-6.127 2.683-6.127 6.386v5.486h3.175v-5.115c0-2.28 1.109-3.637 2.977-3.637.035 0 .074 0 .106.006.033.004.057.01.083.01v-3.13h-.07c-.058-.006-.1-.006-.144-.006" mask="url(#b)"/>
        <path fill="#00C43E" d="M2.812 18.097c.3-8.299 7.69-14.742 16.013-14.742l76.772-.063c-5.5 2.89-9.25 8.647-9.25 15.28 0 6.666 3.79 12.45 9.336 15.325l-77.543.064c-8.645 0-15.642-7.172-15.328-15.864M176.814.56h.022-158.23C8.752.56.344 8.205.01 18.029c-.35 10.283 7.902 18.726 18.13 18.726h158.673c10.019 0 18.072-8.17 18.072-18.166 0-9.995-8.053-18.028-18.072-18.028" mask="url(#b)"/>
        <path fill="#FFF" d="M112.121 25.378a.5.5 0 0 1-.5.5h-8.676a.497.497 0 0 1-.5-.5V11.92a.5.5 0 0 1 .501-.499h2.172a.5.5 0 0 1 .5.5v10.79h6.003a.5.5 0 0 1 .5.5v2.166zM117.358 25.379a.5.5 0 0 1-.502.499h-2.171a.5.5 0 0 1-.5-.499V11.921a.5.5 0 0 1 .5-.499h2.171a.5.5 0 0 1 .502.5v13.457zM132.378 25.379a.5.5 0 0 1-.5.499h-2.088a.527.527 0 0 1-.186-.036l-.098-.053a.474.474 0 0 1-.127-.125l-6.46-8.754v8.469a.5.5 0 0 1-.5.499h-2.17a.501.501 0 0 1-.502-.499V11.921c0-.275.225-.499.501-.499l2.105.001.026.002.094.017.133.06c.008.005.017.01.038.026l.037.032a.645.645 0 0 1 .074.088l6.45 8.661v-8.388a.5.5 0 0 1 .501-.499h2.172a.5.5 0 0 1 .5.5v13.457zM144.444 14.089a.5.5 0 0 1-.5.499h-6.002v2.479h6.002a.5.5 0 0 1 .5.5v2.166a.5.5 0 0 1-.5.5h-6.002v2.479h6.002a.5.5 0 0 1 .5.5v2.166a.5.5 0 0 1-.5.5h-8.676a.5.5 0 0 1-.342-.135l-.018-.02a.496.496 0 0 1-.14-.345V11.921c0-.128.049-.25.153-.358a.495.495 0 0 1 .348-.14h8.675a.5.5 0 0 1 .5.5v2.166zM176.505 28.836h-2.439a.376.376 0 0 1-.348-.522l1.765-4.195-3.645-9.074a.485.485 0 0 1 .451-.664h2.212c.242 0 .46.147.55.372l2.136 5.316 2.24-5.325a.595.595 0 0 1 .547-.363h2.369c.27 0 .452.275.347.522l-5.738 13.638a.483.483 0 0 1-.447.295M155.127 19.164h-2.019v-4.576H155.127a2.291 2.291 0 0 1 2.294 2.288 2.29 2.29 0 0 1-2.294 2.288m0-7.742h-4.692a.5.5 0 0 0-.5.5V25.38a.5.5 0 0 0 .5.499h2.172a.5.5 0 0 0 .501-.499v-3.05h2.02a5.46 5.46 0 0 0 5.466-5.453 5.46 5.46 0 0 0-5.467-5.454M168.16 23.22h-3.177c-.511 0-.98-.343-1.079-.845a1.057 1.057 0 0 1 1.037-1.264h3.22v2.11zm1.081-7.98c-1.792-1.388-4.485-1.06-6.556-.581a.59.59 0 0 0-.438.723l.365 1.43c.08.311.396.5.71.429 2.642-.598 3.789-.287 4.286.099.116.09.435.343.526 1.113h-3.062c-1.98 0-3.712 1.487-3.844 3.458a3.72 3.72 0 0 0 3.713 3.967h5.29a.592.592 0 0 0 .594-.592v-6.392c0-2.006-.861-3.094-1.584-3.653z" mask="url(#b)"/>
    </g>
</svg>
