<svg xmlns="http://www.w3.org/2000/svg" width="196" height="27" viewBox="0 0 196 27">
    <g fill="none" fill-rule="evenodd">
        <path fill="#08BF5B" d="M13.457 26.856C6.037 26.837 0 20.814 0 13.43S6.037.019 13.457 0L13.529 0h67.46c7.441 0 13.493 6.024 13.493 13.429 0 7.404-6.052 13.428-13.492 13.428H13.457z"/>
        <path fill="#FFF" d="M23.449 19.255a.438.438 0 0 1-.442-.433V7.147c0-.239.198-.433.442-.433h1.915c.243 0 .442.194.442.433v11.675a.438.438 0 0 1-.442.433h-1.915zm4.906 0a.438.438 0 0 1-.442-.433V7.147c0-.239.198-.433.442-.433h1.857l.023.003.082.014.118.052a.51.51 0 0 1 .094.08.486.486 0 0 1 .038.047l5.688 7.514V7.147c0-.239.199-.433.442-.433h1.915c.244 0 .442.194.442.433v11.675a.437.437 0 0 1-.442.433H36.77a.468.468 0 0 1-.163-.031l-.086-.046a.438.438 0 0 1-.113-.108l-5.696-7.595v7.347a.437.437 0 0 1-.442.433h-1.915zm-15.26 0a.452.452 0 0 1-.318-.134.424.424 0 0 1-.123-.3V7.147c0-.239.198-.433.442-.433h1.914c.244 0 .443.194.443.433v9.361h5.294c.243 0 .44.195.44.434v1.88a.438.438 0 0 1-.44.433h-7.652zm28.206-.117l-.016-.017a.426.426 0 0 1-.124-.3V7.147a.438.438 0 0 1 .442-.433h7.652c.243 0 .44.195.44.434v1.88a.438.438 0 0 1-.44.433H43.96v2.15h5.294c.243 0 .44.195.44.434v1.88a.438.438 0 0 1-.44.433H43.96v2.15h5.294c.243 0 .44.195.44.434v1.88a.438.438 0 0 1-.44.433h-7.653a.442.442 0 0 1-.301-.117zm26.533-4.019a.922.922 0 0 0-.914 1.098c.086.434.5.732.951.732h2.803v-1.83h-2.84zm0 4.136c-1.884 0-3.402-1.566-3.274-3.441.116-1.71 1.644-3 3.39-3h2.7c-.08-.669-.361-.888-.464-.966-.438-.334-1.45-.605-3.78-.086a.525.525 0 0 1-.625-.372l-.323-1.24a.512.512 0 0 1 .386-.628c1.827-.415 4.202-.7 5.783.504.637.486 1.397 1.43 1.397 3.17v5.545a.519.519 0 0 1-.524.514h-4.666zm9.298-1.526l-3.215-7.871a.421.421 0 0 1 .398-.577h1.95c.215 0 .407.128.486.323l1.884 4.611 1.976-4.62a.523.523 0 0 1 .483-.314h2.088c.238 0 .4.238.307.453l-5.061 11.831a.426.426 0 0 1-.394.256h-2.151a.327.327 0 0 1-.308-.453l1.557-3.64zM57.337 9.46v3.97h1.78c1.118 0 2.023-.89 2.023-1.985 0-1.097-.905-1.985-2.022-1.985h-1.781zm-2.357 9.794a.437.437 0 0 1-.442-.433V7.147c0-.239.198-.433.442-.433h4.138c2.662 0 4.821 2.119 4.821 4.732 0 2.612-2.159 4.73-4.821 4.73h-1.781v2.646a.438.438 0 0 1-.442.433H54.98z"/>
        <path fill="#111" fill-rule="nonzero" d="M109.339 19.5c-2.283 0-4.525-1.068-4.806-3.267l2.035-.072c.264 1.164 1.385 1.785 2.763 1.785 1.465 0 2.619-.581 2.619-1.65 0-.947-.801-1.457-2.019-1.712l-2.17-.462c-1.77-.351-2.86-1.315-2.875-2.997-.016-2.087 1.882-3.45 4.397-3.45 2.739 0 4.349 1.61 4.533 3.363l-1.97.064c-.209-1.355-1.226-1.849-2.547-1.849-1.29 0-2.315.622-2.315 1.657 0 .75.409 1.188 1.802 1.498l2.122.463c2.643.525 3.06 2.19 3.06 3.41 0 1.809-1.802 3.219-4.63 3.219zm8.75 0c-1.602 0-2.772-.892-2.772-2.454 0-1.817 1.258-2.733 4.15-2.781l1.232-.032v-.558c0-.9-.6-1.394-1.593-1.386-.793.016-1.546.382-1.762 1.203h-1.666c.096-1.578 1.482-2.55 3.516-2.55 2.362 0 3.38 1.036 3.38 2.622v5.777h-1.642l-.16-1.443c-.601 1.235-1.522 1.602-2.683 1.602zm.624-1.315c.97 0 1.978-.773 1.986-1.577v-1.3l-1.017.017c-1.497.016-2.498.422-2.498 1.522 0 .844.648 1.338 1.53 1.338zm8.237 1.275c-2.138 0-2.394-1.171-2.394-2.342V7.5h1.914v9.394c0 .718.28 1.116.929 1.172l.424.016V19.3c-.288.095-.608.16-.873.16zm3.873-3.793c-.008 1.403.705 2.39 2.034 2.39.913 0 1.562-.382 1.866-1.234h1.778c-.36 1.753-1.93 2.677-3.596 2.677-2.387 0-4.02-1.602-4.02-4.191 0-2.526 1.433-4.367 3.9-4.367 2.435 0 3.74 1.65 3.74 4.136v.59h-5.702zm0-1.203h3.876c0-1.195-.633-2.12-1.922-2.12-1.281 0-1.962 1.06-1.954 2.12zm10.343 5.036c-1.738 0-3.323-.837-3.596-2.661h1.714c.217.956 1.106 1.29 1.874 1.29.986 0 1.666-.374 1.666-1.043 0-.518-.328-.813-1.08-.972l-1.579-.359c-1.401-.31-2.314-.972-2.322-2.27-.008-1.467 1.233-2.543 3.323-2.543 1.97 0 3.228.972 3.228 2.47h-1.658c-.128-.78-.793-1.1-1.61-1.1-1.049 0-1.545.439-1.545 1.037 0 .502.44.765 1.353.956l1.482.358c1.698.423 2.098 1.538 2.098 2.311 0 1.65-1.497 2.526-3.348 2.526zm11.357-8.558c1.898 0 3.22 1.22 3.404 2.98l-1.658.008c-.208-.852-.785-1.482-1.698-1.482-1.297 0-2.122 1.044-2.122 2.781 0 1.761.84 2.86 2.146 2.86.945 0 1.538-.716 1.69-1.473h1.618c-.184 1.753-1.538 2.884-3.38 2.884-2.306 0-3.9-1.721-3.9-4.239 0-2.542 1.578-4.319 3.9-4.319zm6.644 4.725c-.008 1.403.704 2.39 2.034 2.39.913 0 1.562-.382 1.866-1.234h1.778c-.36 1.753-1.93 2.677-3.596 2.677-2.387 0-4.02-1.602-4.02-4.191 0-2.526 1.433-4.367 3.9-4.367 2.435 0 3.74 1.65 3.74 4.136v.59h-5.702zm0-1.203h3.876c0-1.195-.633-2.12-1.922-2.12-1.282 0-1.962 1.06-1.954 2.12zm7.428 4.877V11.1h1.906v1.1c.48-.645 1.17-1.195 2.49-1.195 1.547 0 2.9 1.068 2.9 2.876v5.459h-1.954v-5.235c0-.996-.665-1.554-1.57-1.554-.945 0-1.826.462-1.826 1.362v5.427h-1.946zm13.571-6.869h-1.858l.008 4.725c0 .733.232.813.865.813h1.025v1.227c-.224.088-.64.175-1.353.175-1.97 0-2.483-.82-2.483-2.143v-4.797h-1.346v-1.37h1.402l.489-2.447h1.393v2.439h1.858v1.378zm3.08 3.195c-.008 1.403.704 2.39 2.034 2.39.913 0 1.562-.382 1.866-1.234h1.778c-.36 1.753-1.93 2.677-3.596 2.677-2.387 0-4.02-1.602-4.02-4.191 0-2.526 1.433-4.367 3.9-4.367 2.435 0 3.74 1.65 3.74 4.136v.59h-5.702zm0-1.203h3.876c0-1.195-.633-2.12-1.922-2.12-1.282 0-1.962 1.06-1.954 2.12zm7.428 4.877V11.1h1.866v1.785c.409-1.067 1.338-1.944 2.787-1.944a.46.46 0 0 1 .176.024v1.873c-.056-.032-.072-.032-.168-.032-1.922-.136-2.715.63-2.715 1.745v4.789h-1.946z"/>
    </g>
</svg>
