<?xml version="1.0" encoding="UTF-8"?>
<svg width="16px" height="16px" viewBox="0 0 16 16" version="1.1" xmlns="http://www.w3.org/2000/svg" xmlns:xlink="http://www.w3.org/1999/xlink">
    <!-- Generator: sketchtool 55 (78076) - https://sketchapp.com -->
    <title>8F3E0805-AD2A-4D21-BB47-12CF5969A8EE</title>
    <desc>Created with sketchtool.</desc>
    <g id="00-GUIDE" stroke="none" stroke-width="1" fill="none" fill-rule="evenodd">
        <g id="04_BUTTON" transform="translate(-203.000000, -736.000000)">
            <g id="Glyphs/Table/Tooltip" transform="translate(203.000000, 736.000000)">
                <circle id="icon/tooltip" stroke="#B7B7B7" stroke-width="0.8" cx="8" cy="8" r="7.6"></circle>
                <path d="M8.1441048,3 C8.99563319,3 9.68995633,3.23351648 10.2139738,3.72802198 C10.7379913,4.20879121 11,4.86813187 11,5.70604396 C11,6.39285714 10.8296943,6.95604396 10.5152838,7.3956044 C10.3973799,7.53296703 10.0174672,7.90384615 9.38864629,8.48076923 C9.15283843,8.67307692 8.98253275,8.90659341 8.86462882,9.15384615 C8.73362445,9.42857143 8.66812227,9.73076923 8.66812227,10.0604396 L8.66812227,10.2527473 L7.16157205,10.2527473 L7.16157205,10.0604396 C7.16157205,9.53846154 7.24017467,9.08516484 7.42358079,8.71428571 C7.59388646,8.34340659 8.10480349,7.76648352 8.95633188,6.96978022 L9.11353712,6.77747253 C9.34934498,6.47527473 9.46724891,6.1456044 9.46724891,5.8021978 C9.46724891,5.3489011 9.33624454,4.99175824 9.10043668,4.73076923 C8.85152838,4.46978022 8.49781659,4.34615385 8.05240175,4.34615385 C7.48908297,4.34615385 7.08296943,4.52472527 6.8209607,4.8956044 C6.59825328,5.21153846 6.49344978,5.66483516 6.49344978,6.25549451 L5,6.25549451 C5,5.23901099 5.27510917,4.44230769 5.85152838,3.86538462 C6.41484716,3.28846154 7.17467249,3 8.1441048,3 Z M7.90829694,10.9258242 C8.19650655,10.9258242 8.44541485,11.021978 8.6419214,11.2142857 C8.82532751,11.4065934 8.930131,11.6538462 8.930131,11.956044 C8.930131,12.2582418 8.82532751,12.5192308 8.6419214,12.7115385 C8.43231441,12.9038462 8.19650655,13 7.90829694,13 C7.62008734,13 7.38427948,12.8901099 7.20087336,12.6978022 C6.99126638,12.5054945 6.89956332,12.2582418 6.89956332,11.956044 C6.89956332,11.6538462 6.99126638,11.4065934 7.20087336,11.2142857 C7.38427948,11.021978 7.62008734,10.9258242 7.90829694,10.9258242 Z" id="?" fill="#B7B7B7" fill-rule="nonzero"></path>
            </g>
        </g>
    </g>
</svg>