<svg xmlns="http://www.w3.org/2000/svg" width="40" height="40" viewBox="0 0 40 40">
    <g fill="none" fill-rule="evenodd">
        <path stroke="#262424" d="M27.704 11.924c-2.005-.257-3.458-.613-4.36-1.07-.9-.457-2.033-1.411-3.4-2.863-1.386 1.487-2.513 2.44-3.38 2.863-.868.422-2.321.722-4.36.9"/>
        <path fill="#262424" d="M19.954 4.588c-3.86 0-7 3.14-7 7s3.14 7 7 7 7-3.14 7-7-3.14-7-7-7m0 15c-4.411 0-8-3.589-8-8 0-4.41 3.589-8 8-8s8 3.59 8 8c0 4.411-3.589 8-8 8"/>
        <path stroke="#262424" stroke-linejoin="round" d="M19.496 19.107h1c7.18 0 13 5.82 13 13v2h-27v-2c0-7.18 5.82-13 13-13z"/>
    </g>
</svg>
