<svg xmlns="http://www.w3.org/2000/svg" xmlns:xlink="http://www.w3.org/1999/xlink" width="40" height="40" viewBox="0 0 40 40">
    <defs>
        <path id="a" d="M.564.76h4.435v1.011H.564z"/>
        <path id="c" d="M.215.997h1.009V5.41H.214z"/>
    </defs>
    <g fill="none" fill-rule="evenodd">
        <path fill="#262424" d="M28.105 13.942a.502.502 0 0 1-.354-.854l2.681-2.68a.5.5 0 0 1 .707.707l-2.68 2.681a.502.502 0 0 1-.354.146"/>
        <g transform="translate(31 19.003)">
            <mask id="b" fill="#fff">
                <use xlink:href="#a"/>
            </mask>
            <path fill="#262424" d="M4.499 1.771h-.002L1.062 1.76a.5.5 0 0 1 .002-1h.002l3.435.011a.5.5 0 0 1-.002 1" mask="url(#b)"/>
        </g>
        <g transform="translate(20 4.003)">
            <mask id="d" fill="#fff">
                <use xlink:href="#c"/>
            </mask>
            <path fill="#262424" d="M.715 5.41H.714a.5.5 0 0 1-.5-.5l.01-3.415a.5.5 0 0 1 .5-.499c.277.001.5.226.5.502l-.01 3.413a.5.5 0 0 1-.5.5" mask="url(#d)"/>
        </g>
        <path stroke="#262424" d="M27.428 28.41l3.322-1.19a1.832 1.832 0 0 0 .682-3.019A8781.57 8781.57 0 0 0 16.807 9.556a1.832 1.832 0 0 0-3.018.682l-1.192 3.325 14.83 14.847z"/>
        <path fill="#262424" d="M15.525 9.52a1.328 1.328 0 0 0-1.265.886v.001l-8.179 22.81a1.303 1.303 0 0 0 .312 1.393c.374.374.897.49 1.393.312l22.795-8.174c.434-.155.752-.515.853-.964a1.306 1.306 0 0 0-.357-1.23A8414.353 8414.353 0 0 0 16.454 9.91a1.307 1.307 0 0 0-.929-.389zM7.327 36.003a2.318 2.318 0 0 1-1.642-.686 2.315 2.315 0 0 1-.545-2.438l8.178-22.81v.001a2.324 2.324 0 0 1 1.685-1.49 2.317 2.317 0 0 1 2.156.621 8417.658 8417.658 0 0 1 14.627 14.647c.566.568.799 1.374.623 2.156a2.324 2.324 0 0 1-1.49 1.686L8.124 35.863c-.262.094-.531.14-.797.14z"/>
        <path fill="#08BF5B" d="M12.597 13.563l14.83 14.847"/>
    </g>
</svg>
