<svg xmlns="http://www.w3.org/2000/svg" xmlns:xlink="http://www.w3.org/1999/xlink" width="180" height="180" viewBox="0 0 180 180">
    <defs>
        <circle id="a" cx="90" cy="90" r="90"/>
        <path id="c" d="M0 .734h44.776v12.913H0z"/>
    </defs>
    <g fill="none" fill-rule="evenodd">
        <mask id="b" fill="#fff">
            <use xlink:href="#a"/>
        </mask>
        <use fill="#ECECEC" xlink:href="#a"/>
        <g mask="url(#b)">
            <g transform="translate(37 42)">
                <rect width="106" height="190" fill="#FFF" rx="14.4"/>
                <path stroke="#F5F5F5" stroke-width="2" d="M7 23h92v158H7z"/>
            </g>
        </g>
        <g mask="url(#b)">
            <g transform="translate(53 76)">
                <rect width="74" height="3" y="23" fill="#ECECEC" rx="1.5"/>
                <rect width="52" height="3" y="64" fill="#ECECEC" rx="1.5"/>
                <rect width="74" height="3" y="31" fill="#ECECEC" rx="1.5"/>
                <rect width="52" height="3" y="72" fill="#ECECEC" rx="1.5"/>
                <rect width="32" height="3" y="80" fill="#ECECEC" rx="1.5"/>
                <rect width="40" height="3" x="34" y="43" fill="#ECECEC" rx="1.5"/>
                <rect width="40" height="3" x="34" y="51" fill="#ECECEC" rx="1.5"/>
                <rect width="25" height="17" x="1.5" y="40.5" stroke="#ECECEC" stroke-width="3" rx="3.24"/>
                <path stroke="#24C875" stroke-linecap="round" stroke-linejoin="round" stroke-width="2" d="M10 48.697l2.872 2.966L17.515 47"/>
                <path fill="#00C43E" d="M32.408 9.033h1.333v-.896h-1.35a.447.447 0 0 0-.435.537c.04.213.238.359.452.359"/>
                <mask id="d" fill="#fff">
                    <use xlink:href="#c"/>
                </mask>
                <path fill="#00C43E" d="M6.392 13.646h32.076c3.534 0 6.408-2.896 6.408-6.455 0-3.56-2.874-6.457-6.408-6.457H6.426l-.034.001C2.867.744 0 3.64 0 7.191c0 3.55 2.867 6.446 6.392 6.455z" mask="url(#d)"/>
                <path fill="#00C43E" d="M29.208 6.34a.967.967 0 0 0-.962-.971h-.847V7.31h.847a.967.967 0 0 0 .962-.971"/>
                <path fill="#FFF" d="M11.287 10.16h.91c.116 0 .21-.094.21-.211V4.237a.211.211 0 0 0-.21-.212h-.91a.211.211 0 0 0-.21.212v5.712c0 .117.094.211.21.211M13.62 10.16h.91a.21.21 0 0 0 .21-.211V6.355l2.708 3.715a.211.211 0 0 0 .054.053l.041.022a.217.217 0 0 0 .078.015h.875a.21.21 0 0 0 .21-.211V4.237a.211.211 0 0 0-.21-.212h-.91a.211.211 0 0 0-.21.212v3.56L14.67 4.121a.237.237 0 0 0-.063-.062l-.056-.025-.039-.008h-.894a.211.211 0 0 0-.21.211v5.712c0 .117.095.211.21.211M6.364 10.16h3.638c.116 0 .21-.095.21-.212V9.03a.211.211 0 0 0-.21-.212H7.485v-4.58a.211.211 0 0 0-.21-.212h-.91a.211.211 0 0 0-.21.212v5.711a.21.21 0 0 0 .209.212M19.775 10.103c.037.036.089.057.143.057h3.639c.115 0 .21-.095.21-.212v-.92a.211.211 0 0 0-.21-.211h-2.518V7.765h2.518c.115 0 .21-.096.21-.212v-.92a.211.211 0 0 0-.21-.212h-2.518V5.37h2.518c.115 0 .21-.095.21-.212v-.92a.211.211 0 0 0-.21-.212h-3.639a.208.208 0 0 0-.146.06.218.218 0 0 0-.064.152v5.711c0 .056.021.107.059.147l.008.008zM32.39 8.137h1.35v.896h-1.332a.456.456 0 0 1-.452-.359.447.447 0 0 1 .434-.537m0 2.024h2.219a.25.25 0 0 0 .249-.252V7.196c0-.85-.361-1.313-.664-1.55-.752-.59-1.881-.45-2.75-.247a.251.251 0 0 0-.184.307l.154.607a.25.25 0 0 0 .297.182c1.108-.254 1.59-.122 1.797.042.05.038.183.145.221.472h-1.283c-.83 0-1.557.632-1.613 1.468a1.571 1.571 0 0 0 1.557 1.684M36.811 9.414l-.74 1.78a.16.16 0 0 0 .146.222h1.023a.202.202 0 0 0 .187-.125l2.407-5.788a.16.16 0 0 0-.146-.222h-.993c-.1 0-.191.06-.23.154l-.94 2.26-.895-2.256a.249.249 0 0 0-.23-.158h-.928a.205.205 0 0 0-.19.282l1.53 3.851zM27.4 5.369h.845c.532 0 .963.435.963.971s-.43.971-.962.971h-.847V5.37zm-1.122 4.791h.911c.116 0 .21-.094.21-.211V8.655h.847a2.304 2.304 0 0 0 2.292-2.315 2.304 2.304 0 0 0-2.292-2.315h-1.968a.211.211 0 0 0-.21.212V9.95a.21.21 0 0 0 .21.211z"/>
            </g>
        </g>
        <g stroke-width="2" transform="translate(112 137)">
            <circle cx="21" cy="21" r="21" fill="#08BF5B" stroke="#111"/>
            <path stroke="#FFF" stroke-linecap="round" stroke-linejoin="round" d="M14.342 23.727v4.162h14.242v-4.162M17.763 17.405l3.8-3.405 3.695 3.405M21.562 14v9.46"/>
        </g>
    </g>
</svg>
