<svg xmlns="http://www.w3.org/2000/svg" width="40" height="40" viewBox="0 0 40 40">
    <g fill="none" fill-rule="evenodd">
        <path fill="#262424" d="M4.045 14.138H36.88v-1H4.045zM32.615 19.602h-16.61a.5.5 0 1 1 0-1h16.61a.5.5 0 0 1 0 1M32.615 23.952H8.105a.5.5 0 0 1 0-1h24.51a.5.5 0 0 1 0 1M32.615 28.303H8.105a.5.5 0 0 1 0-1h24.51a.5.5 0 0 1 0 1"/>
        <path stroke="#262424" stroke-linejoin="round" d="M8 20.589h4v-4H8z"/>
        <path fill="#262424" d="M8.268 12.036a.557.557 0 0 0 0-1.116.558.558 0 1 0 0 1.116zM10.501 12.036a.557.557 0 1 0 0-1.114.557.557 0 0 0 0 1.114zM12.733 12.036a.558.558 0 1 0 0-1.115.558.558 0 0 0 0 1.115z"/>
        <path fill="#262424" d="M6.721 9.634a2.503 2.503 0 0 0-2.5 2.5v16.334c0 1.378 1.121 2.5 2.5 2.5h27.5c1.38 0 2.5-1.122 2.5-2.5V12.134c0-1.378-1.12-2.5-2.5-2.5h-27.5zm27.5 22.334h-27.5c-1.93 0-3.5-1.57-3.5-3.5V12.134c0-1.93 1.57-3.5 3.5-3.5h27.5c1.93 0 3.5 1.57 3.5 3.5v16.334c0 1.93-1.57 3.5-3.5 3.5z"/>
    </g>
</svg>
