<svg xmlns="http://www.w3.org/2000/svg" xmlns:xlink="http://www.w3.org/1999/xlink" width="280" height="170" viewBox="0 0 280 170">
    <defs>
        <path id="a" d="M0 0h280v170H0z"/>
    </defs>
    <g fill="none" fill-rule="evenodd">
        <mask id="b" fill="#fff">
            <use xlink:href="#a"/>
        </mask>
        <g mask="url(#b)">
            <path fill="#945A43" d="M165.323 154.695c.744 16.175 5.32 36.167 20.36 32.992 15.04-3.176 15.978-36.545-7.938-57.28h-12.422"/>
            <path fill="#92C5EA" d="M193.225 152.834l-26.962 11.373s-.02.014-.04.033a96.084 96.084 0 0 1-.9-9.545v-24.288h12.422c7.694 6.67 12.804 14.65 15.71 22.51l-.23-.083z"/>
            <path stroke="#1D100D" stroke-linecap="round" stroke-linejoin="round" stroke-width="2.653" d="M177.745 130.407c23.916 20.736 22.978 54.104 7.937 57.28-15.039 3.176-19.615-16.817-20.36-32.992M166.262 164.206l26.963-11.37"/>
            <path fill="#92C5EA" d="M196.053 164.304l-27.586 6.287c-1.541.358-3.141-.388-3.574-1.663l-.999-5.563c-.118-1.429.348-2.64 2.006-3.43l25.996-8.607c1.54-.358 3.14.388 3.574 1.664l2.589 8.355c.433 1.276-.465 2.6-2.006 2.957"/>
            <path stroke="#1D100D" stroke-linecap="round" stroke-linejoin="round" stroke-width="2.653" d="M196.053 164.304l-27.586 6.287c-1.541.358-3.141-.388-3.574-1.663l-.999-5.565c-.118-1.427.348-2.639 2.006-3.428l25.996-8.607c1.54-.358 3.14.388 3.574 1.663l2.589 8.356c.433 1.275-.465 2.6-2.006 2.957z"/>
            <path fill="#92C5EA" d="M119.54 163.502s-14.964-6.36-32.488-15.449c-15.288-7.93-18.212-17.927-12.986-27.052 6.87-11.997 27.976-4.846 45.48 6.053"/>
            <path fill="#945A43" d="M103.381 118.71l-.16.172-12.436 31.085a532.11 532.11 0 0 1-3.733-1.914c-15.289-7.93-18.213-17.927-12.986-27.052 4.82-8.415 16.645-7.404 29.315-2.29"/>
            <path stroke="#1D100D" stroke-linecap="round" stroke-linejoin="round" stroke-width="2.653" d="M119.54 163.502s-14.964-6.36-32.488-15.449c-15.288-7.93-18.212-17.927-12.986-27.052 6.87-11.997 27.976-4.846 45.48 6.053"/>
            <path fill="#92C5EA" d="M103.22 118.882l-12.622 31.55c-.652 1.772-.165 3.256 1.613 4.1 1.358.645 6.193 2.964 7.569 3.221 1.375.256 2.535-.11 3.69-2.234 1.02-1.877 12.27-29.634 12.27-29.634.568-1.694.465-3.252-1.266-4.154-1.73-.903-5.37-2.731-6.889-3.5-1.517-.77-3.674-.97-4.364.651"/>
            <path stroke="#1D100D" stroke-linecap="round" stroke-linejoin="round" stroke-width="2.653" d="M103.22 118.882l-12.622 31.55c-.652 1.772-.165 3.256 1.613 4.1 1.358.645 6.193 2.964 7.569 3.22 1.375.257 2.535-.109 3.69-2.234 1.02-1.876 12.27-29.633 12.27-29.633.568-1.694.465-3.252-1.266-4.154-1.73-.903-5.37-2.731-6.889-3.5-1.517-.77-3.674-.97-4.364.651z"/>
            <path fill="#FEFEFE" d="M81.701 129.885l-20.052 3.93a4.861 4.861 0 0 1-5.708-3.851L49.355 95.98a4.886 4.886 0 0 1 3.853-5.724l20.053-3.93a4.861 4.861 0 0 1 5.709 3.85l6.584 33.984a4.887 4.887 0 0 1-3.853 5.725"/>
            <path fill="#19AD5E" d="M79.225 122.64l-17.987 3.526a2.173 2.173 0 0 1-2.552-1.722l-5.517-28.466a2.186 2.186 0 0 1 1.723-2.56l17.99-3.524a2.173 2.173 0 0 1 2.551 1.721l5.516 28.466a2.186 2.186 0 0 1-1.724 2.56"/>
            <path stroke="#1D100D" stroke-linecap="round" stroke-linejoin="round" stroke-width="2.653" d="M81.701 129.885l-20.052 3.93a4.861 4.861 0 0 1-5.708-3.851L49.355 95.98a4.888 4.888 0 0 1 3.853-5.725l20.053-3.929a4.861 4.861 0 0 1 5.709 3.85l6.584 33.984a4.887 4.887 0 0 1-3.853 5.725z"/>
            <path fill="#C7C6C4" d="M72.457 127.232a1.65 1.65 0 0 1-1.301 1.932 1.64 1.64 0 0 1-1.926-1.3 1.649 1.649 0 0 1 1.3-1.932 1.64 1.64 0 0 1 1.927 1.3"/>
            <path fill="#FEFEFE" d="M75.433 91.615a2.173 2.173 0 0 0-2.552-1.721l-17.988 3.524a2.186 2.186 0 0 0-1.723 2.56l.383 1.977 24.942 9.465-3.062-15.805z" opacity=".3"/>
            <path fill="#FEFEFE" d="M74.434 110.907L61.3 113.483a.524.524 0 0 1-.616-.415l-1.526-7.866a.528.528 0 0 1 .416-.617l13.135-2.576c.284-.056.559.13.615.415l1.525 7.866a.527.527 0 0 1-.415.617"/>
            <path fill="#19AD5E" d="M63.9 107.338c-.059-.3-.315-.487-.601-.43l-.617.12.205 1.058.617-.122c.286-.055.454-.326.396-.626m.939-.184c.151.782-.355 1.534-1.164 1.692l-.617.121.224 1.155a.14.14 0 0 1-.111.165l-.664.13a.14.14 0 0 1-.164-.11l-.744-3.838a.142.142 0 0 1 .112-.166l1.416-.277c.81-.16 1.56.347 1.712 1.128M67.685 107.877c-.086-.441-.433-.66-.838-.58-.405.08-.645.413-.559.855.085.44.432.659.838.58.404-.08.644-.414.559-.855m.609-1.57l.541 2.794a.074.074 0 0 1-.058.087l-.735.144a.074.074 0 0 1-.087-.059l-.039-.203c-.15.262-.413.453-.805.53-.77.15-1.533-.4-1.703-1.276-.171-.875.332-1.676 1.101-1.827.394-.077.708.002.943.187l-.039-.203a.075.075 0 0 1 .06-.087l.734-.145c.04-.007.078.02.087.059M71.225 105.737l-.345 1.837-1.03-1.569a.123.123 0 0 0-.127-.053l-.749.147a.075.075 0 0 0-.048.114l1.717 2.617-.217 1.155a.074.074 0 0 0 .087.086l.75-.147a.123.123 0 0 0 .098-.099l.798-4.246a.074.074 0 0 0-.088-.087l-.749.146a.125.125 0 0 0-.097.1"/>
            <path fill="#945A43" d="M85.272 131.434c-1.176-.473-4.666-2.908-3.33-6.677 1.186-3.345 5.031-3.055 6.469-2.725"/>
            <path stroke="#1D100D" stroke-linecap="round" stroke-linejoin="round" stroke-width="2.653" d="M85.272 131.434c-1.176-.473-4.666-2.908-3.33-6.677 1.186-3.345 5.031-3.055 6.469-2.725"/>
            <path fill="#92C5EA" d="M114.673 150.7l7.413-26.585h50.956l7.413 26.586c.617 6.995 1.068 16.927 1.158 27.241h-67.761l-.337-.003c.09-10.312.54-20.244 1.158-27.238"/>
            <path stroke="#1D100D" stroke-linecap="round" stroke-linejoin="round" stroke-width="2.653" d="M127.885 139.441c2.819 6.065 7.233 10.857 10.158 10.857 2.926 0 9.52-7.516 9.52-7.516v-.004.004s6.596 8.58 9.522 8.58c2.924 0 7.34-4.793 10.158-10.858"/>
            <path fill="#92C5EA" d="M117.496 130.406h60.439"/>
            <path stroke="#1D100D" stroke-linecap="round" stroke-linejoin="round" stroke-width="2.653" d="M180.455 150.7c1.392 15.771 1.935 46.478-.587 62.803 3.151 4.119 5.393 16.451-14.006 16.451-11.298 0-18.298-3.012-18.298-12.01 0 8.998-7 12.01-18.298 12.01-19.398 0-17.158-12.332-14.007-16.451-2.521-16.325-1.979-47.032-.586-62.802"/>
            <path fill="#003369" d="M147.542 203.168c-22.58 0-35.503-1.063-35.503-1.063-.882-13.085-.596-23.368 0-30.064 4.968-3.427 9.645-7.823 11.461-16.354h48.083c1.816 8.531 6.493 12.927 11.461 16.354 1.02 11.475.556 21.796 0 30.064 0 0-12.922 1.063-35.502 1.063"/>
            <path stroke="#1D100D" stroke-linecap="round" stroke-linejoin="round" stroke-width="2.653" d="M147.542 203.168c-22.58 0-35.503-1.063-35.503-1.063-.882-13.085-.596-23.368 0-30.064 4.968-3.427 9.645-7.823 11.461-16.354h48.083c1.816 8.531 6.493 12.927 11.461 16.354 1.02 11.475.556 21.796 0 30.064 0 0-12.922 1.063-35.502 1.063z"/>
            <path fill="#003369" d="M168.228 160.928c2.257.181 4.252-1.52 4.434-3.782l3.173-39.602c.182-2.263-1.517-4.262-3.774-4.444-2.257-.18-4.252 1.522-4.432 3.783l-3.175 39.603c-.182 2.261 1.517 4.26 3.774 4.442"/>
            <path stroke="#1D100D" stroke-linecap="round" stroke-linejoin="round" stroke-width="2.653" d="M168.228 160.928c2.257.182 4.252-1.52 4.434-3.782l3.173-39.602c.182-2.262-1.517-4.262-3.774-4.443-2.257-.182-4.252 1.52-4.432 3.782l-3.175 39.602c-.182 2.263 1.517 4.262 3.774 4.443z"/>
            <path fill="#003369" d="M126.899 160.928c-2.256.181-4.251-1.52-4.432-3.782l-3.174-39.602c-.182-2.263 1.517-4.262 3.774-4.444 2.257-.18 4.252 1.522 4.432 3.783l3.175 39.603c.182 2.261-1.517 4.26-3.775 4.442"/>
            <path stroke="#1D100D" stroke-linecap="round" stroke-linejoin="round" stroke-width="2.653" d="M126.899 160.928c-2.256.182-4.251-1.52-4.432-3.782l-3.174-39.602c-.182-2.262 1.517-4.262 3.774-4.443 2.257-.182 4.252 1.52 4.432 3.782l3.175 39.602c.182 2.263-1.517 4.262-3.775 4.443z"/>
            <path fill="#945A43" d="M204.81 47.42c1.335-2.753 3.613-8.262 2.345-14.679-1.37-6.922-7.637-12.565-15.785-12.236-7.738.31-11.738 5.654-13.862 9.311-5.43-1.66-8.887-2.674-17.76-3.905-8.904-.977-12.503-.841-18.169-.56-1.17-4.064-3.745-10.223-11.176-12.418-7.825-2.31-15.276 1.625-18.289 8.004-2.794 5.915-1.924 11.809-1.302 14.808-5.441 3.794-24.215 15.137-26.518 42.738-2.328 27.872 21.995 59.865 60.909 64.545 38.935 5.05 70.374-20.047 74.913-47.674 4.487-27.332-10.952-42.924-15.305-47.933"/>
            <path fill="#71422A" d="M197.607 28.227c6.026 4.101 3.548 12.882.487 16.694 0 0-2.402-2.515-7.54-6.242-5.14-3.726-8.104-5.22-8.104-5.22 1.605-3.28 7.729-10.284 15.157-5.232M122.422 18.918c-6.84 2.508-6.57 11.629-4.528 16.073 0 0 2.94-1.854 8.83-4.217 5.89-2.358 9.128-3.083 9.128-3.083-.761-3.572-5-11.862-13.43-8.773"/>
            <path stroke="#1D100D" stroke-linecap="round" stroke-linejoin="round" stroke-width="2.653" d="M204.81 47.42c1.335-2.753 3.613-8.262 2.345-14.679-1.37-6.922-7.637-12.565-15.785-12.236-7.738.31-11.738 5.654-13.862 9.311-5.43-1.66-8.887-2.674-17.76-3.905-8.904-.977-12.503-.841-18.169-.56-1.17-4.064-3.745-10.223-11.176-12.418-7.825-2.31-15.276 1.625-18.289 8.004-2.794 5.915-1.924 11.809-1.302 14.808-5.441 3.794-24.215 15.137-26.518 42.738-2.328 27.872 21.995 59.865 60.909 64.545 38.935 5.05 70.374-20.047 74.913-47.674 4.487-27.332-10.952-42.924-15.305-47.933z"/>
            <path fill="#FAD8BE" d="M164.728 103.838c-1.125 9.126-8.47 15.728-16.404 14.745-7.935-.982-13.457-9.177-12.332-18.303 1.125-9.125 8.47-15.727 16.407-14.745 7.933.982 13.455 9.177 12.329 18.303"/>
            <path stroke="#1D100D" stroke-linecap="round" stroke-linejoin="round" stroke-width="2.653" d="M150.382 101.895l3.957 6.347m-8.703 2.021l4.746-8.368 1.017-8.241"/>
            <path fill="#1D100D" d="M151.06 96.385c-2.62-.324-5.199-5.341-4.534-7.139.664-1.797 3.477-1.415 5.557-1.158 2.08.258 4.9.574 5.108 2.48.211 1.904-3.515 6.141-6.131 5.817M165.898 82.102a4.565 4.565 0 0 1-5.086 3.976 4.57 4.57 0 0 1-3.97-5.098 4.562 4.562 0 1 1 9.056 1.122M149.192 80.033a4.566 4.566 0 0 1-5.089 3.976 4.57 4.57 0 0 1-3.967-5.097 4.562 4.562 0 1 1 9.056 1.121"/>
        </g>
    </g>
</svg>
