<svg xmlns="http://www.w3.org/2000/svg" width="208" height="208" viewBox="0 0 208 208">
    <g fill="none" fill-rule="evenodd">
        <path stroke="#111" stroke-width="2" d="M149.351 145.971H40.692A2.695 2.695 0 0 1 38 143.274V73.145a2.695 2.695 0 0 1 2.692-2.697h108.66a2.695 2.695 0 0 1 2.691 2.697v70.129a2.695 2.695 0 0 1-2.692 2.697z"/>
        <path stroke="#111" stroke-width="2" d="M38.974 71.317l53.028 42.847a2.895 2.895 0 0 0 3.473.014l55.844-42.923M38.805 144.842l40.109-40.344M150.996 145.003l-41.558-40.666"/>
        <path fill="#08BF5B" d="M150.473 102.533c-15.031 0-27.216-12.208-27.216-27.267S135.442 48 150.473 48c15.03 0 27.216 12.207 27.216 27.266 0 15.059-12.186 27.267-27.216 27.267z"/>
        <path stroke="#111" stroke-width="2" d="M177.689 75.266c0 15.059-12.186 27.267-27.216 27.267-15.031 0-27.216-12.208-27.216-27.267S135.442 48 150.473 48c15.03 0 27.216 12.207 27.216 27.266z"/>
        <path stroke="#FFF" stroke-linecap="round" stroke-width="2" d="M141.059 73.825l8.112 7.42 11.287-11.66"/>
    </g>
</svg>
