<svg xmlns="http://www.w3.org/2000/svg" width="88" height="88" viewBox="0 0 88 88">
    <g fill="none" fill-rule="evenodd">
        <path d="M0 0h88v88H0z" opacity=".5"/>
        <g stroke="#111" stroke-linecap="round" stroke-width="2">
            <path d="M65.688 71.038H21.635a2.2 2.2 0 0 1-2.2-2.2V38.653h48.453v30.185a2.2 2.2 0 0 1-2.2 2.2z"/>
            <path fill="#08BF5B" stroke-linejoin="round" d="M15.542 34.558l7.65-16.983c.188-.426.666-.708 1.198-.708h38.58c.534 0 1.013.283 1.202.71l7.593 17.002c.051.117.08.236.083.36.025.951.05 2.798.05 2.798 0 3.474-3.42 6.264-7.532 6.036-3.754-.208-6.592-3.022-6.592-6.244v-2.65h-.002v2.65c0 3.223-2.838 6.036-6.591 6.244-4.113.228-7.531-2.562-7.531-6.036v-2.859h-.003v2.859c0 3.341-3.16 6.05-7.06 6.05-3.9 0-7.063-2.709-7.063-6.05v-2.859h-.001v2.859c0 3.341-3.162 6.05-7.062 6.05-3.9 0-7.06-2.709-7.06-6.05l.058-2.798c.001-.13.03-.26.083-.381z"/>
            <path stroke-linejoin="round" d="M23.558 30.647h40.334"/>
        </g>
        <g fill="#111">
            <path d="M46.733 53.642h2.58V51.22h-2.58v2.422zm-1.058 1.212H50.525v-4.847h-5.004v4.847h.154zM38.101 53.642h2.58V51.22H38.1v2.422zm-1.058 1.212H41.893v-4.847H36.89v4.847h.154zM43.209 54.854h1.058v-4.847h-1.212v4.847zM45.675 60.958h.991v-3.716h2.717v3.715h1.144v-4.845h-5.006v4.845h.154zM38.101 62.215h2.58v-2.422H38.1v2.422zm-1.212 1.213H41.893v-4.847H36.89v4.847z"/>
            <path d="M44.431 62.164v-6.052H36.89v1.212h6.33v6.052h7.319v-1.212z"/>
        </g>
        <g stroke="#57BA66" stroke-linecap="round" stroke-linejoin="round" stroke-width="2">
            <path d="M32.429 52.783V47.84h4.943M54.869 52.783V47.84h-4.944M54.869 60.405v4.943h-4.944M32.429 60.405v4.943h4.943"/>
        </g>
    </g>
</svg>
