<svg xmlns="http://www.w3.org/2000/svg" width="140" height="140" viewBox="0 0 140 140">
    <g fill="none" fill-rule="evenodd">
        <path d="M0 0h140v140H0z"/>
        <g stroke="#111" stroke-width="2">
            <path d="M93.68 116.667H46.32c-1.948 0-3.542-1.561-3.542-3.469V26.802c0-1.908 1.594-3.469 3.543-3.469h47.358c1.949 0 3.543 1.561 3.543 3.469v86.396c0 1.908-1.594 3.469-3.543 3.469z"/>
            <path stroke-linecap="round" d="M65.333 108.889h9.334M65.333 31.111h9.334"/>
        </g>
        <path fill="#DFDFDF" d="M88.576 92.025H51.333A2.334 2.334 0 0 1 49 89.692V52.449a2.334 2.334 0 0 1 2.333-2.334h37.243a2.333 2.333 0 0 1 2.334 2.334v37.243a2.333 2.333 0 0 1-2.334 2.333"/>
        <path stroke="#DFDFDF" stroke-width="1.556" d="M88.576 92.025H51.333A2.334 2.334 0 0 1 49 89.692V52.449a2.334 2.334 0 0 1 2.333-2.334h37.243a2.333 2.333 0 0 1 2.334 2.334v37.243a2.333 2.333 0 0 1-2.334 2.333z"/>
        <path fill="#DFDFDF" d="M76.11 64.809h5v-4.697h-5v4.697zm-2.051 2.35h9.402V57.76H73.76v9.398h.3z"/>
        <path stroke="#DFDFDF" stroke-width="1.556" d="M76.11 64.809h5v-4.697h-5v4.697zm-2.051 2.35h9.402V57.76H73.76v9.398h.3z"/>
        <path fill="#DFDFDF" d="M59.373 64.809h5v-4.697h-5v4.697zm-2.051 2.35h9.404V57.76h-9.704v9.398h.3z"/>
        <path stroke="#DFDFDF" stroke-width="1.556" d="M59.373 64.809h5v-4.697h-5v4.697zm-2.051 2.35h9.404V57.76h-9.704v9.398h.3z"/>
        <path fill="#DFDFDF" d="M69.276 67.16h2.053V57.76h-2.352v9.398z"/>
        <path stroke="#DFDFDF" stroke-width="1.556" d="M69.276 67.16h2.053V57.76h-2.352v9.398z"/>
        <path fill="#DFDFDF" d="M74.058 78.992h1.922v-7.204h5.267v7.204h2.219v-9.396H73.76v9.396z"/>
        <path stroke="#DFDFDF" stroke-width="1.556" d="M74.058 78.992h1.922v-7.204h5.267v7.204h2.219v-9.396H73.76v9.396z"/>
        <path fill="#DFDFDF" d="M59.373 81.43h5v-4.695h-5v4.696zm-2.35 2.352h9.703v-9.398h-9.704v9.398z"/>
        <path stroke="#DFDFDF" stroke-width="1.556" d="M59.373 81.43h5v-4.695h-5v4.696zm-2.35 2.352h9.703v-9.398h-9.704v9.398z"/>
        <path fill="#DFDFDF" d="M71.647 81.33V69.597H57.022v2.351h12.274v11.734h14.19V81.33z"/>
        <path stroke="#DFDFDF" stroke-width="1.556" d="M71.647 81.33V69.597H57.022v2.351h12.274v11.734h14.19V81.33z"/>
        <path fill="#08BF5B" d="M88.576 90.131H51.333A2.334 2.334 0 0 1 49 87.798V50.556a2.333 2.333 0 0 1 2.333-2.334h37.243a2.333 2.333 0 0 1 2.334 2.334v37.242a2.333 2.333 0 0 1-2.334 2.333"/>
        <path stroke="#262424" stroke-linecap="round" stroke-linejoin="round" stroke-width="2" d="M88.576 90.131H51.333A2.334 2.334 0 0 1 49 87.798V50.556a2.333 2.333 0 0 1 2.333-2.334h37.243a2.333 2.333 0 0 1 2.334 2.334v37.242a2.333 2.333 0 0 1-2.334 2.333z"/>
        <path fill="#FFF" d="M76.11 62.915h5v-4.697h-5v4.697zm-2.051 2.35h9.402v-9.398H73.76v9.398h.3zM59.373 62.915h5v-4.697h-5v4.697zm-2.051 2.35h9.404v-9.398h-9.704v9.398h.3zM69.276 65.265h2.053v-9.398h-2.352v9.398zM74.058 77.099h1.922v-7.205h5.267v7.205h2.219v-9.396H73.76v9.396zM59.373 79.537h5V74.84h-5v4.696zm-2.35 2.352h9.703V72.49h-9.704v9.399z"/>
        <path fill="#FFF" d="M71.647 79.437V67.703H57.022v2.351h12.274v11.734h14.19v-2.351z"/>
        <g stroke="#08BF5B" stroke-linecap="round" stroke-linejoin="round" stroke-width="2">
            <path d="M93.876 101.896h9.333v-9.334M45.889 101.896h-9.333v-9.334M45.889 38.889h-9.333v9.333M93.876 38.889h9.333v9.333"/>
        </g>
    </g>
</svg>
