<svg xmlns="http://www.w3.org/2000/svg" width="140" height="140" viewBox="0 0 140 140">
    <g fill="none" fill-rule="evenodd">
        <path d="M0 0h140v140H0z"/>
        <g stroke-linecap="round" stroke-linejoin="round" stroke-width="1.5">
            <g stroke="#111">
                <path d="M114 32H38.89a5.527 5.527 0 0 1-5.467 4.671A5.525 5.525 0 0 1 27.955 32H14v58.4h13.885c.028-3.02 2.494-5.462 5.537-5.462 3.041 0 5.507 2.442 5.535 5.462H114V32z"/>
                <path stroke-dasharray="4,4" d="M33.33 39.2v43.2"/>
                <path d="M92.75 48.8L68.991 72.56M76.401 52.4a3.6 3.6 0 1 1-7.2 0 3.6 3.6 0 0 1 7.2 0zM93.479 69.478a3.6 3.6 0 1 1-7.201-.001 3.6 3.6 0 0 1 7.2.001z"/>
            </g>
            <path fill="#08BF5B" stroke="#111" d="M124.84 87.291c0 2.798-.586 5.46-1.643 7.867-3.03 6.908-9.93 11.733-17.958 11.733-10.823 0-19.6-8.776-19.6-19.6 0-10.824 8.777-19.6 19.6-19.6 8.046 0 14.959 4.847 17.979 11.779a19.546 19.546 0 0 1 1.622 7.821z"/>
            <path stroke="#FFF" d="M100.665 89.593l4.89 4.724 4.724-4.891M105.471 78.226v14.353"/>
        </g>
    </g>
</svg>
