<svg xmlns="http://www.w3.org/2000/svg" width="88" height="88" viewBox="0 0 88 88">
    <g fill="none" fill-rule="evenodd">
        <path d="M0 0h88v88H0z" opacity=".5"/>
        <g stroke="#262424" stroke-linecap="round" stroke-width="2">
            <path d="M15.4 52.34V17.063c0-1.72 1.312-3.129 2.915-3.129h24.97c1.603 0 2.915 1.408 2.915 3.129v45.81c0 1.72-1.312 3.128-2.915 3.128h-24.97c-1.603 0-2.915-1.408-2.915-3.128V50.314M27.867 61.967h5.866M27.867 17.967h5.866"/>
        </g>
        <g stroke="#08BF5B" stroke-linecap="round" stroke-linejoin="round" stroke-width="1.5">
            <path d="M37.024 23.562h2.422c1.229 0 2.234.796 2.234 1.77s-1.005 1.77-2.234 1.77h-2.46M37.024 27.102h2.422c1.229 0 2.234.797 2.234 1.77 0 .974-1.005 1.77-2.234 1.77h-2.46M36.987 23.562v7.08M39.333 22.382v9.44"/>
        </g>
        <g fill="#ECECEC" transform="translate(19.067 36.667)">
            <circle cx="20.9" cy="2.567" r="2.567"/>
            <circle cx="20.9" cy="10.633" r="2.567"/>
            <circle cx="20.167" cy="18.7" r="2.567"/>
            <circle cx="11.367" cy="2.567" r="2.567"/>
            <circle cx="11.367" cy="10.633" r="2.567"/>
            <circle cx="11.367" cy="18.7" r="2.567"/>
            <circle cx="2.567" cy="2.567" r="2.567"/>
            <circle cx="2.567" cy="10.633" r="2.567"/>
            <circle cx="2.567" cy="18.7" r="2.567"/>
        </g>
        <path fill="#FFF" d="M46.567 41.8l-4.223 2.567 1.612 10.917 3.499 6.6L52.8 66l3.514 2.05 8.975-3.562s-3.319-10.02-3.319-10.671c0-.434-2.872-3.122-8.617-8.067l-6.786-3.95z"/>
        <path fill="#FFF" d="M42.08 40.382s1.966-3.765 4.49-2.716c1.603.898 2.427 2.01 2.427 2.01s1.311-2.934 3.57-2.371c1.327.34 2.353 1.682 2.533 1.787.598-.303 2.185-2.27 5.09.95 0 0 3.382 3.2 6.688 14.041.919 2.644 1.936 5.114 3.669 7.173"/>
        <path stroke="#111" stroke-linecap="round" stroke-linejoin="round" stroke-width="2" d="M42.08 40.382s1.966-3.765 4.49-2.716c1.603.898 2.427 2.01 2.427 2.01s1.311-2.934 3.57-2.371c1.327.34 2.353 1.682 2.533 1.787.598-.303 2.185-2.27 5.09.95 0 0 3.382 3.2 6.688 14.041.919 2.644 1.936 5.114 3.669 7.173"/>
        <path fill="#FFF" d="M54.89 68.05c-4.529-2.332-11.375-4.756-13.225-6.726-1.312-1.397-4.495-6.377-5.372-8.779a3.788 3.788 0 0 1 .647-3.694c.551-.673 1.259-1.538 2.046-2.504"/>
        <path stroke="#111" stroke-linecap="round" stroke-linejoin="round" stroke-width="2" d="M54.89 68.05c-4.529-2.332-11.375-4.756-13.225-6.726-1.312-1.397-4.495-6.377-5.372-8.779a3.788 3.788 0 0 1 .647-3.694c.551-.673 1.259-1.538 2.046-2.504"/>
        <path fill="#FFF" d="M54.004 38.052s1.204 1.008 2.352 2.601"/>
        <path stroke="#111" stroke-linecap="round" stroke-linejoin="round" stroke-width="2" d="M54.004 38.052s1.204 1.008 2.352 2.601"/>
        <g>
            <path fill="#FFF" d="M48.488 39.094s1.007 1.173 2.074 2.485"/>
            <path stroke="#111" stroke-linecap="round" stroke-linejoin="round" stroke-width="2" d="M48.488 39.094s1.007 1.173 2.074 2.485"/>
        </g>
        <g>
            <path fill="#FFF" d="M42.862 53.227s-1.193-2.813-6.397-9.066c-3.284-3.282-3.935-3.854-6.18-6.808 0 0-2.161-2.805-.319-4.295 1.804-1.459 4.859 1.499 4.859 1.499 7.498 5.97 10.595 9.469 10.595 9.469"/>
            <path stroke="#111" stroke-linecap="round" stroke-linejoin="round" stroke-width="2" d="M42.862 53.227s-1.193-2.813-6.397-9.066c-3.284-3.282-3.935-3.854-6.18-6.808 0 0-2.161-2.805-.319-4.295 1.804-1.459 4.859 1.499 4.859 1.499 7.498 5.97 10.595 9.469 10.595 9.469"/>
        </g>
        <g>
            <path fill="#FFF" d="M75.325 61.523l-6.422-5.13a1.962 1.962 0 0 0-2.01-.5C58.88 58.512 54.96 64.243 53.6 66.697c-.374.673-.32 1.5.136 2.12l5.256 6.266"/>
            <path stroke="#111" stroke-linecap="round" stroke-linejoin="round" stroke-width="2" d="M75.325 61.523l-6.422-5.13a1.962 1.962 0 0 0-2.01-.5C58.88 58.512 54.96 64.243 53.6 66.697c-.374.673-.32 1.5.136 2.12l5.256 6.266"/>
        </g>
    </g>
</svg>
