<svg xmlns="http://www.w3.org/2000/svg" width="40" height="40" viewBox="0 0 40 40">
    <g fill="none" fill-rule="evenodd">
        <path d="M0 0h40v40H0z" opacity=".3"/>
        <g stroke="#262424" stroke-linecap="round" stroke-linejoin="round">
            <path d="M9.627 11.457H3.783M1 18.407h4.453M9.534 25.538h-4.36"/>
            <g>
                <path fill="#FFF" d="M27.971 13.234h5.395l5.673 6.838v8.367H27.971"/>
                <path fill="#08BF5B" d="M8.162 28.883h20.183V7.216H8.162z"/>
                <path fill="#FFF" d="M35.875 29.107c0 1.52-1.267 2.753-2.83 2.753-1.562 0-2.829-1.232-2.829-2.753 0-1.52 1.267-2.753 2.83-2.753 1.562 0 2.829 1.233 2.829 2.753zM16.42 29.107c0 1.52-1.265 2.753-2.829 2.753-1.562 0-2.829-1.232-2.829-2.753 0-1.52 1.267-2.753 2.83-2.753 1.563 0 2.829 1.233 2.829 2.753z"/>
            </g>
        </g>
    </g>
</svg>
