<svg xmlns="http://www.w3.org/2000/svg" width="140" height="140" viewBox="0 0 140 140">
    <g fill="none" fill-rule="evenodd">
        <path d="M0 0h140v140H0z"/>
        <path fill="#FFF" d="M45.848 93.264s1.527 2.62 12.366 7.71c0 0 13.283 6.53 24.734 3.752"/>
        <path stroke="#111" stroke-width="2" d="M45.848 93.264s1.527 2.62 12.366 7.71c0 0 13.283 6.53 24.734 3.752"/>
        <path fill="#FFF" d="M49.942 52.214L36.992 38.98s-3.016-3.623-6.297-4.966c-3.375-1.38-6.727 1.952-5.574 5.44.58 1.758 1.909 4.065 4.645 6.98l14.25 15.01"/>
        <path stroke="#111" stroke-width="2" d="M50.223 52.398L37.129 39.033s-3.051-3.66-6.37-5.016c-3.411-1.394-6.801 1.971-5.635 5.495.587 1.774 1.93 4.105 4.696 7.049l14.41 15.16"/>
        <g stroke="#111" stroke-width="2">
            <path fill="#FFF" d="M82.054 93.333H45.007c-1.882 0-3.422-1.647-3.422-3.658V21.547c0-2.012 1.54-3.658 3.422-3.658h37.047c1.882 0 3.422 1.646 3.422 3.658v68.128c0 2.01-1.54 3.658-3.422 3.658z"/>
            <path stroke-linecap="round" d="M59.51 86.64h8.535M59.51 24.582h8.535"/>
        </g>
        <g>
            <path fill="#FFF" d="M98.786 95.336c4.313-17.073-.27-25.947-.27-25.947-1.356-3.738-2.311-5.559-3.569-8.645-1.259-3.085-1.401-7.24-2.884-10.611-1.933-4.395-4.593-5.407-7.072-4.813-2.504.6-3.764 2.856-2.596 8.128.593 2.678 1.364 6.771 1.83 10.304.087.666.132 1.313.146 1.928.057 2.655-.819 5.233-2.417 7.357-2.216 2.942-6.311 12.178-6.638 22.196"/>
            <path stroke="#111" stroke-width="2" d="M99.013 94.991c4.355-16.956-.271-25.769-.271-25.769-1.37-3.712-2.335-5.52-3.604-8.585-1.271-3.064-1.415-7.19-2.912-10.538-1.952-4.365-4.638-5.37-7.14-4.78-2.53.596-3.801 2.836-2.623 8.072.599 2.66 1.378 6.725 1.848 10.234.088.661.134 1.303.147 1.914.058 2.637-.826 5.197-2.44 7.307-2.237 2.921-6.372 12.094-6.702 22.043"/>
            <path fill="#FFF" stroke="#111" stroke-linejoin="round" stroke-width="2" d="M114.788 96.34l-33.651 25.763-10.175-13.127 33.653-25.762z"/>
            <path fill="#FFF" stroke="#111" stroke-width="2" d="M42.25 70.637c-1.14-.808-3.085-2.085-4.552-2.642-1.862-.708-4.512-.364-5.94 2.073 0 0-1.87 2.61.749 5.82.648.795 1.478 1.445 2.372 1.99l7.952 4.85s2.832 1.577 5.63 1.921c3.275.404 5.611-2.835 4.086-5.577-.345-.62-.827-1.305-1.492-2.057-.917-1.034-1.994-1.933-3.136-2.743l-5.67-3.635zM41.887 83.284c-.874-.71-1.87-1.28-2.96-1.57-1.535-.407-3.551-.434-4.753 1.577 0 0-1.554 2.141.413 4.917.488.687 1.123 1.257 1.814 1.742l6.128 4.306s2.187 1.406 4.385 1.775c2.573.433 4.517-2.225 3.396-4.576a9.952 9.952 0 0 0-1.116-1.772c-.69-.896-1.514-1.683-2.393-2.398l-4.914-4z"/>
            <path fill="#FFF" stroke="#111" stroke-width="2" d="M43.471 58.501c-.296-.231-.608-.45-.926-.655-1.102-.71-2.1-1.394-3.326-1.71-1.974-.51-4.566-.544-6.11 1.969 0 0-2.124 2.844.774 6.466.581.726 1.313 1.33 2.087 1.858l7.88 5.383s2.812 1.758 5.638 2.22c3.308.54 5.808-2.782 4.367-5.72-.326-.664-.79-1.404-1.435-2.217-.891-1.12-1.948-2.102-3.075-2.996l-5.874-4.598z"/>
        </g>
        <g>
            <path fill="#08BF5B" d="M76.222 53.89c0 1.919-.395 3.743-1.108 5.395-2.045 4.74-6.7 8.048-12.114 8.048-7.303 0-13.222-6.02-13.222-13.444 0-7.425 5.919-13.445 13.222-13.445 5.427 0 10.09 3.325 12.127 8.08a13.583 13.583 0 0 1 1.095 5.365"/>
            <g stroke="#FFF" stroke-linecap="round" stroke-linejoin="round" stroke-width="1.556">
                <path d="M60.972 50.011h2.476c1.257 0 2.285.91 2.285 2.022 0 1.112-1.028 2.023-2.285 2.023h-2.515"/>
                <path d="M60.972 54.056h2.476c1.257 0 2.285.91 2.285 2.022 0 1.112-1.028 2.022-2.285 2.022h-2.515M60.933 50.011V58.1M63.333 49v10.111"/>
            </g>
            <path stroke="#08BF5B" stroke-linecap="round" stroke-linejoin="round" stroke-width="2" d="M63.38 33.444v3.667M72.66 36.216l-2.55 2.593M53.304 36.216l2.55 2.593"/>
        </g>
    </g>
</svg>
