<svg xmlns="http://www.w3.org/2000/svg" width="40" height="40" viewBox="0 0 40 40">
    <g fill="none" fill-rule="evenodd">
        <path d="M0 0h40v40H0z" opacity=".3"/>
        <path fill="#FFF" stroke="#262424" d="M31.359 37.623H9.335A1.84 1.84 0 0 1 7.5 35.779l1.407-32.07a1.84 1.84 0 0 1 1.835-1.844h19.393a1.84 1.84 0 0 1 1.836 1.844l1.223 32.07a1.84 1.84 0 0 1-1.835 1.844z"/>
        <path fill="#08BF5B" d="M26.596 27.954H14.098a.482.482 0 0 1-.48-.484l.96-17.71c0-.267.216-.483.482-.483h10.575c.265 0 .48.216.48.482l.962 17.711a.482.482 0 0 1-.481.484"/>
        <path stroke="#262424" d="M22.896 33.216h-5.098a1.128 1.128 0 0 1 0-2.254h5.098a1.128 1.128 0 0 1 0 2.254z"/>
        <path stroke="#262424" stroke-linecap="round" d="M18.512 6.193h3.67"/>
    </g>
</svg>
