<svg xmlns="http://www.w3.org/2000/svg" width="40" height="40" viewBox="0 0 40 40">
    <g fill="none" fill-rule="evenodd">
        <path d="M0 0h40v40H0z" opacity=".3"/>
        <path fill="#FFF" stroke="#262424" d="M26.25 33.889H4.028c-1.146 0-2.084-.921-2.084-2.047V5.38c0-1.126.938-2.048 2.084-2.048H26.25c1.146 0 2.083.922 2.083 2.048v26.46c0 1.127-.937 2.048-2.083 2.048z"/>
        <path stroke="#262424" stroke-linecap="round" d="M6.806 12.202h16.666M6.806 18.452h8.333"/>
        <path fill="#08BF5B" stroke="#262424" d="M37.91 26.272c0 5.753-4.665 10.417-10.418 10.417-5.752 0-10.416-4.664-10.416-10.417s4.664-10.416 10.416-10.416c5.753 0 10.417 4.663 10.417 10.416z"/>
        <path stroke="#FFF" stroke-linecap="round" d="M24.02 26.23l2.197 2.196 4.237-4.237"/>
    </g>
</svg>
