<svg xmlns="http://www.w3.org/2000/svg" width="88" height="88" viewBox="0 0 88 88">
    <g fill="none" fill-rule="evenodd">
        <path d="M0 0h88v88H0z" opacity=".5"/>
        <path fill="#FFF" d="M29.608 57.676s.928 1.577 7.517 4.64c0 0 8.075 3.93 15.036 2.258"/>
        <path stroke="#111" stroke-width="2" d="M29.608 57.676s.928 1.577 7.517 4.64c0 0 8.075 3.93 15.036 2.258"/>
        <path fill="#FFF" d="M32.096 32.971l-7.871-7.964s-1.834-2.18-3.83-2.989c-2.05-.83-4.088 1.175-3.387 3.274.353 1.058 1.16 2.447 2.823 4.2l8.663 9.034"/>
        <path stroke="#111" stroke-width="2" d="M32.096 32.971l-7.871-7.964s-1.834-2.18-3.83-2.989c-2.05-.83-4.088 1.175-3.387 3.274.353 1.058 1.16 2.447 2.823 4.2l8.663 9.034"/>
        <g stroke="#111" stroke-width="2">
            <path fill="#FFF" d="M52.196 57.836H28.382c-1.21 0-2.2-.991-2.2-2.2v-40.97c0-1.21.99-2.2 2.2-2.2h23.814c1.21 0 2.2.99 2.2 2.2v40.97c0 1.209-.99 2.2-2.2 2.2z"/>
            <path stroke-linecap="round" d="M38.062 54.138h4.455M38.062 15.89h4.455"/>
        </g>
        <g>
            <path fill="#FFF" d="M61.596 59.316c2.599-10.303-.162-15.657-.162-15.657-.817-2.256-1.392-3.355-2.15-5.217-.758-1.862-.844-4.369-1.737-6.403-1.165-2.652-2.767-3.263-4.26-2.904-1.508.362-2.267 1.723-1.564 4.904a79.927 79.927 0 0 1 1.102 6.218c.053.402.08.792.088 1.163.034 1.603-.493 3.158-1.456 4.44-1.334 1.775-3.801 7.349-3.999 13.394"/>
            <path stroke="#111" stroke-width="2" d="M61.596 59.316c2.599-10.303-.162-15.657-.162-15.657-.817-2.256-1.392-3.355-2.15-5.217-.758-1.862-.844-4.369-1.737-6.403-1.165-2.652-2.767-3.263-4.26-2.904-1.508.362-2.267 1.723-1.564 4.904a79.927 79.927 0 0 1 1.102 6.218c.053.402.08.792.088 1.163.034 1.603-.493 3.158-1.456 4.44-1.334 1.775-3.801 7.349-3.999 13.394"/>
            <path fill="#FFF" d="M71.13 59.835L50.94 75.209l-6.104-7.834 20.19-15.374z"/>
            <path stroke="#111" stroke-linejoin="round" stroke-width="2" d="M71.13 59.835L50.94 75.209l-6.104-7.834 20.19-15.374z"/>
            <path fill="#FFF" d="M27.33 44.471c-.665-.504-1.8-1.3-2.656-1.647-1.087-.442-2.632-.227-3.466 1.292 0 0-1.09 1.627.437 3.629.378.495.862.9 1.384 1.24l4.64 3.024s1.652.983 3.285 1.197c1.91.252 3.274-1.767 2.384-3.476a7.343 7.343 0 0 0-.87-1.283c-.535-.644-1.164-1.205-1.83-1.71l-3.308-2.266z"/>
            <path stroke="#111" stroke-width="2" d="M27.33 44.471c-.665-.504-1.8-1.3-2.656-1.647-1.087-.442-2.632-.227-3.466 1.292 0 0-1.09 1.627.437 3.629.378.495.862.9 1.384 1.24l4.64 3.024s1.652.983 3.285 1.197c1.91.252 3.274-1.767 2.384-3.476a7.343 7.343 0 0 0-.87-1.283c-.535-.644-1.164-1.205-1.83-1.71l-3.308-2.266z"/>
            <path fill="#FFF" d="M27.358 52.052c-.53-.433-1.135-.779-1.796-.955-.932-.248-2.155-.264-2.884.959 0 0-.943 1.302.25 2.99.296.418.682.765 1.1 1.06l3.719 2.619s1.327.855 2.66 1.08c1.561.262 2.74-1.354 2.06-2.784a6.055 6.055 0 0 0-.677-1.078 8.919 8.919 0 0 0-1.451-1.458l-2.981-2.433z"/>
            <path stroke="#111" stroke-width="2" d="M27.358 52.052c-.53-.433-1.135-.779-1.796-.955-.932-.248-2.155-.264-2.884.959 0 0-.943 1.302.25 2.99.296.418.682.765 1.1 1.06l3.719 2.619s1.327.855 2.66 1.08c1.561.262 2.74-1.354 2.06-2.784a6.055 6.055 0 0 0-.677-1.078 8.919 8.919 0 0 0-1.451-1.458l-2.981-2.433z"/>
            <path fill="#FFF" d="M27.967 37.06a7.314 7.314 0 0 0-.532-.388c-.633-.421-1.207-.826-1.912-1.014-1.133-.301-2.623-.322-3.51 1.167 0 0-1.22 1.685.445 3.83.334.43.754.788 1.2 1.102l4.527 3.189s1.615 1.041 3.239 1.315c1.9.32 3.337-1.648 2.509-3.389a7.34 7.34 0 0 0-.825-1.313c-.512-.664-1.119-1.246-1.766-1.775l-3.375-2.724z"/>
            <path stroke="#111" stroke-width="2" d="M27.967 37.06a7.314 7.314 0 0 0-.532-.388c-.633-.421-1.207-.826-1.912-1.014-1.133-.301-2.623-.322-3.51 1.167 0 0-1.22 1.685.445 3.83.334.43.754.788 1.2 1.102l4.527 3.189s1.615 1.041 3.239 1.315c1.9.32 3.337-1.648 2.509-3.389a7.34 7.34 0 0 0-.825-1.313c-.512-.664-1.119-1.246-1.766-1.775l-3.375-2.724z"/>
        </g>
        <g>
            <path fill="#08BF5B" d="M48.265 34.745c0 1.159-.242 2.26-.68 3.258a8.118 8.118 0 0 1-7.437 4.859 8.117 8.117 0 1 1 7.445-11.356c.433.992.672 2.088.672 3.239"/>
            <path stroke="#FFF" stroke-linecap="round" stroke-linejoin="round" d="M40.148 34.041l-1.88-2.238M40.148 34.041l1.88-2.238M40.148 33.992v3.694M38.17 35.84h3.956M38.17 33.993h3.956"/>
            <path stroke="#08BF5B" stroke-linecap="round" stroke-linejoin="round" stroke-width="1.5" d="M40.329 22.698v1.516M45.99 24.36l-1.071 1.073M34.182 24.36l1.072 1.073"/>
        </g>
    </g>
</svg>
