<svg xmlns="http://www.w3.org/2000/svg" width="40" height="40" viewBox="0 0 40 40">
    <g fill="none" fill-rule="evenodd">
        <path d="M0 0h40v40H0z" opacity=".3"/>
        <path fill="#FFF" stroke="#262424" stroke-linecap="round" d="M31.883 35.278H8.221a1.833 1.833 0 0 1-1.834-1.834V17.01h27.33v16.434c0 1.013-.821 1.834-1.834 1.834z"/>
        <path fill="#08BF5B" d="M4.192 14.7l4.314-9.579c.107-.24.376-.399.677-.399h21.76c.301 0 .57.16.678.401l4.283 9.59a.543.543 0 0 1 .047.203c.014.536.027 1.578.027 1.578 0 1.96-1.928 3.534-4.248 3.405-2.117-.118-3.718-1.705-3.718-3.522v-1.495 1.495c0 1.817-1.602 3.404-3.718 3.522-2.32.129-4.249-1.445-4.249-3.405v-1.612h-.001v1.612c0 1.885-1.783 3.413-3.983 3.413s-3.983-1.528-3.983-3.413v-1.612h-.001v1.612c0 1.885-1.783 3.413-3.983 3.413s-3.983-1.528-3.983-3.413l.033-1.578c0-.074.017-.147.048-.215"/>
        <path stroke="#262424" stroke-linecap="round" stroke-linejoin="round" stroke-width="1.1" d="M4.192 14.7l4.314-9.579c.107-.24.376-.399.677-.399h21.76c.301 0 .57.16.678.401l4.283 9.59a.543.543 0 0 1 .047.203c.014.536.027 1.578.027 1.578 0 1.96-1.928 3.534-4.248 3.405-2.117-.118-3.718-1.705-3.718-3.522v-1.495 1.495c0 1.817-1.602 3.404-3.718 3.522-2.32.129-4.249-1.445-4.249-3.405v-1.612h-.001v1.612c0 1.885-1.783 3.413-3.983 3.413s-3.983-1.528-3.983-3.413v-1.612h-.001v1.612c0 1.885-1.783 3.413-3.983 3.413s-3.983-1.528-3.983-3.413l.033-1.578c0-.074.017-.147.048-.215z"/>
        <path stroke="#262424" stroke-linecap="round" stroke-linejoin="round" d="M8.713 12.495h22.75"/>
        <g stroke="#262424" stroke-linecap="round" stroke-linejoin="round">
            <path d="M20.103 24.888l1.762-1.757a1.72 1.72 0 0 1 1.221-.501 1.716 1.716 0 0 1 1.22 2.933L22 27.861c-.673.67-1.767.67-2.44 0"/>
            <path d="M20.239 29.617l-1.492 1.487a1.716 1.716 0 0 1-1.22.501 1.716 1.716 0 0 1-1.22-2.933l2.17-2.163c.323-.323.757-.5 1.22-.5.461 0 .895.177 1.22.5"/>
        </g>
    </g>
</svg>
