<svg xmlns="http://www.w3.org/2000/svg" width="16" height="16" viewBox="0 0 16 16">
    <g fill="none" fill-rule="evenodd">
        <path fill="#FFF" d="M-72-1866h1080V233H-72z"/>
        <g>
            <circle cx="8" cy="8" r="7.6" stroke="#B7B7B7" stroke-width=".8"/>
            <path fill="#B7B7B7" fill-rule="nonzero" d="M8.144 3c.852 0 1.546.234 2.07.728.524.48.786 1.14.786 1.978 0 .687-.17 1.25-.485 1.69-.118.137-.498.508-1.126 1.085a1.936 1.936 0 0 0-.524.673 2.079 2.079 0 0 0-.197.906v.193H7.162v-.193c0-.522.078-.975.262-1.346.17-.37.68-.948 1.532-1.744l.158-.193c.235-.302.353-.631.353-.975 0-.453-.13-.81-.367-1.071-.248-.261-.602-.385-1.048-.385-.563 0-.969.179-1.231.55-.223.316-.328.769-.328 1.36H5c0-1.017.275-1.814.852-2.39C6.415 3.287 7.175 3 8.144 3zm-.236 7.926c.289 0 .537.096.734.288.183.193.288.44.288.742s-.105.563-.288.756c-.21.192-.445.288-.734.288a.945.945 0 0 1-.707-.302c-.21-.193-.301-.44-.301-.742s.091-.55.3-.742a.934.934 0 0 1 .708-.288z"/>
        </g>
    </g>
</svg>
