<svg xmlns="http://www.w3.org/2000/svg" width="180" height="180" viewBox="0 0 180 180">
    <g fill="none" fill-rule="evenodd">
        <path d="M0 0h180v180H0z"/>
        <path fill="#FFF" d="M135.326 133H28.674c-3.12 0-5.674-2.563-5.674-5.695v-93.61C23 30.563 25.553 28 28.674 28h106.652c3.12 0 5.674 2.563 5.674 5.695v93.61c0 3.132-2.553 5.695-5.674 5.695"/>
        <path stroke="#262424" stroke-linecap="round" stroke-linejoin="round" stroke-width="2" d="M135.326 133H28.674c-3.12 0-5.674-2.563-5.674-5.695v-93.61C23 30.563 25.553 28 28.674 28h106.652c3.12 0 5.674 2.563 5.674 5.695v93.61c0 3.132-2.553 5.695-5.674 5.695z"/>
        <path fill="#08BF5B" d="M141 49H23V33.727C23 30.564 25.537 28 28.664 28h106.672c3.127 0 5.664 2.564 5.664 5.727V49z"/>
        <path stroke="#111" stroke-linecap="round" stroke-linejoin="round" stroke-width="2" d="M135.336 133H28.664c-3.115 0-5.664-2.554-5.664-5.676V33.676C23 30.553 25.549 28 28.664 28h106.672c3.115 0 5.664 2.553 5.664 5.676v93.648c0 3.122-2.549 5.676-5.664 5.676zM46.5 29v8M115.5 29v8"/>
        <path fill="#111" d="M65.347 106.077V72.523h-.084l-8.468 5.551c-.415.298-.803.433-1.274.433-.912 0-1.521-.622-1.521-1.543 0-.677.25-1.11 1.051-1.68l9.466-6.31C65.624 68.19 66.122 68 66.98 68c1.245 0 2.02.758 2.02 2.03v36.047c0 1.137-.748 1.923-1.827 1.923-1.08 0-1.826-.786-1.826-1.923M102.254 81.351c0-5.614-4.438-10.047-10.243-10.047-5.722 0-10.16 4.325-10.16 9.86 0 5.425 4.244 9.59 10.132 9.59 5.778 0 10.271-4.191 10.271-9.403m-22.635 19.88c-.391-.753-.559-1.345-.559-1.935 0-.968.67-1.586 1.703-1.586.865 0 1.395.404 2.066 1.667 1.73 3.411 4.437 5.4 8.931 5.4 7.257 0 11.304-6.34 11.555-16.98V86.59h-.084c-1.534 4.352-6.335 7.416-11.862 7.416C83.693 94.005 78 88.55 78 81.27 78 73.615 83.889 68 91.983 68c5.442 0 9.852 2.66 12.31 7.334C106.106 78.37 107 82.291 107 87.18c0 12.976-5.666 20.82-15.269 20.82-6.363 0-10.577-3.359-12.112-6.77"/>
        <g stroke-linecap="round" stroke-linejoin="round" stroke-width="2">
            <path fill="#08BF5B" stroke="#111" d="M157 123c0 4.14-.867 8.077-2.43 11.64C150.085 144.861 139.875 152 128 152c-16.017 0-29-12.983-29-29s12.983-29 29-29c11.903 0 22.13 7.17 26.6 17.428A28.905 28.905 0 0 1 157 123z"/>
            <g stroke="#FFF">
                <path d="M123.572 115h4.644c2.356 0 4.284 1.8 4.284 4s-1.928 4-4.284 4H123.5M123.572 123h4.644c2.356 0 4.284 1.8 4.284 4s-1.928 4-4.284 4H123.5M123.5 115v16M128 113v20"/>
            </g>
        </g>
    </g>
</svg>
