<svg xmlns="http://www.w3.org/2000/svg" width="140" height="140" viewBox="0 0 140 140">
    <g fill="none" fill-rule="evenodd">
        <path d="M0 0h140v140H0z"/>
        <path fill="#FFF" d="M105.253 103.444h-82.95c-2.428 0-4.414-1.993-4.414-4.43V26.208c0-2.436 1.986-4.43 4.413-4.43h82.951c2.428 0 4.414 1.994 4.414 4.43v72.808c0 2.436-1.986 4.43-4.414 4.43"/>
        <path stroke="#262424" stroke-linecap="round" stroke-linejoin="round" stroke-width="1.556" d="M105.253 103.444h-82.95c-2.428 0-4.414-1.993-4.414-4.43V26.208c0-2.436 1.986-4.43 4.413-4.43h82.951c2.428 0 4.414 1.994 4.414 4.43v72.808c0 2.436-1.986 4.43-4.414 4.43z"/>
        <path fill="#08BF5B" d="M109.667 38.111H17.889V26.232c0-2.46 1.973-4.454 4.405-4.454h82.967c2.433 0 4.406 1.994 4.406 4.454v11.88z"/>
        <path stroke="#262424" stroke-linecap="round" stroke-linejoin="round" stroke-width="1.5" d="M105.261 103.444H22.294c-2.423 0-4.405-1.986-4.405-4.414V26.192c0-2.428 1.982-4.414 4.405-4.414h82.967c2.423 0 4.406 1.986 4.406 4.414V99.03c0 2.428-1.983 4.414-4.406 4.414zM36.167 22.556v6.222M89.833 22.556v6.222"/>
        <path fill="#000" d="M50.825 82.505V56.407h-.065l-6.586 4.317c-.323.232-.625.337-.99.337-.71 0-1.184-.484-1.184-1.2 0-.527.194-.863.818-1.306l7.362-4.908c.86-.611 1.248-.758 1.915-.758.969 0 1.572.59 1.572 1.58v28.036c0 .884-.582 1.495-1.421 1.495-.84 0-1.42-.611-1.42-1.495M79.531 63.273c0-4.367-3.452-7.815-7.967-7.815-4.45 0-7.902 3.365-7.902 7.67 0 4.22 3.3 7.458 7.88 7.458 4.494 0 7.99-3.26 7.99-7.313M61.925 78.735c-.304-.585-.435-1.046-.435-1.505 0-.752.521-1.233 1.325-1.233.673 0 1.085.314 1.607 1.296 1.345 2.654 3.45 4.2 6.946 4.2 5.644 0 8.792-4.931 8.987-13.206v-.94h-.065c-1.194 3.385-4.928 5.768-9.226 5.768-5.97 0-10.398-4.243-10.398-9.905 0-5.954 4.58-10.321 10.875-10.321 4.233 0 7.663 2.068 9.574 5.704 1.411 2.361 2.106 5.411 2.106 9.214C83.222 77.899 78.815 84 71.347 84c-4.95 0-8.227-2.612-9.421-5.265"/>
        <g stroke-linecap="round" stroke-linejoin="round" stroke-width="1.5">
            <path fill="#08BF5B" stroke="#111" d="M122.111 95.667c0 3.22-.675 6.282-1.89 9.053-3.488 7.95-11.429 13.502-20.665 13.502C87.098 118.222 77 108.124 77 95.667 77 83.209 87.098 73.11 99.556 73.11c9.257 0 17.212 5.577 20.688 13.555a22.481 22.481 0 0 1 1.867 9z"/>
            <g stroke="#FFF">
                <path d="M98.995 93.294l-5.376-6.183M98.995 93.294l5.376-6.183M98.995 93.161v10.205M93.333 98.264h11.324M93.333 93.162h11.324"/>
            </g>
        </g>
    </g>
</svg>
