<svg xmlns="http://www.w3.org/2000/svg" width="180" height="180" viewBox="0 0 180 180">
    <g fill="none" fill-rule="evenodd">
        <path d="M0 0h180v180H0z"/>
        <g stroke="#08BF5B" stroke-linecap="round" stroke-linejoin="round" stroke-width="2">
            <path d="M108.572 47h4.644c2.356 0 4.284 1.8 4.284 4s-1.928 4-4.284 4H108.5M108.572 55h4.644c2.356 0 4.284 1.8 4.284 4s-1.928 4-4.284 4H108.5M108.5 47v16M113 45v20"/>
        </g>
        <g stroke="#111" stroke-linecap="round" stroke-linejoin="round" stroke-width="2">
            <path d="M131.398 148V39.368c0-6.831-5.54-12.368-12.373-12.368H33.398"/>
            <path d="M43 57H24V36.394C24 31.206 28.252 27 33.5 27s9.5 4.206 9.5 9.394V57zM43 36v92M53.167 45.854h42M53.167 59.5h42M53.167 73.5h42M53.167 86.5h30M43 109v22.09c0 6.578 5.37 11.91 11.997 11.91 6.623 0 11.994-5.332 11.994-11.91V120.81H116M54 143h61.21"/>
        </g>
        <path fill="#08BF5B" stroke="#111" stroke-linecap="round" stroke-linejoin="round" stroke-width="2" d="M148.32 153.195h-35.974c-4.425 0-8.013-3.596-8.013-8.032V88.228c0-4.436 3.588-8.033 8.013-8.033h35.974c4.426 0 8.013 3.597 8.013 8.033v56.935c0 4.436-3.587 8.032-8.013 8.032z"/>
        <g fill="#FFF">
            <path d="M114.333 105.195h32v-17h-32zM122.333 116.195a4 4 0 1 1-8 0 4 4 0 0 1 8 0M146.333 116.195a4 4 0 1 1-8 0 4 4 0 0 1 8 0M134.333 116.195a4 4 0 1 1-8 .001 4 4 0 0 1 8-.001M122.333 129.196a4 4 0 1 1-8 0 4 4 0 0 1 8 0M146.333 129.196a4 4 0 1 1-8 0 4 4 0 0 1 8 0M134.333 129.196a4 4 0 1 1-8 0 4 4 0 0 1 8 0M122.333 142.196a4 4 0 1 1-8 0 4 4 0 0 1 8 0M146.333 142.196a4 4 0 1 1-8 0 4 4 0 0 1 8 0M134.333 142.196a4 4 0 1 1-8 0 4 4 0 0 1 8 0"/>
        </g>
    </g>
</svg>
