<svg xmlns="http://www.w3.org/2000/svg" width="140" height="140" viewBox="0 0 140 140">
    <g fill="none" fill-rule="evenodd">
        <path d="M0 0h140v140H0z"/>
        <g stroke="#111" stroke-linecap="round" stroke-linejoin="round" stroke-width="1.5">
            <path d="M63 116.278h56.778M104.222 40.056v8.555M113.167 34.222V56"/>
        </g>
        <path stroke="#111" stroke-linecap="round" stroke-linejoin="round" stroke-width="1.5" d="M36.556 34.127c4.525.697 24.248-7.382 30.02-9.528 3.492-1.296 7.27.157 9.882 2.396 3.579 3.067 12.501 10.928 13.775 12.062 1.273 1.132 2.072 3.03 3.04 5.234.969 2.204 3.079 10.22 3.592 11.58.514 1.357 1.771 4.162.741 6.351"/>
        <g stroke-linecap="round" stroke-linejoin="round" stroke-width="1.5">
            <path fill="#08BF5B" stroke="#111" d="M71.082 101.558c10.416 11.113 28.127 11.911 39.556 1.785 11.43-10.126 12.25-27.344 1.836-38.457-10.416-11.112-28.127-11.911-39.556-1.784-11.43 10.127-12.252 27.344-1.836 38.456z"/>
            <g stroke="#FFF">
                <path d="M100.26 74.667L83.221 91.704M88.333 77.222a2.556 2.556 0 1 1-5.11 0 2.556 2.556 0 0 1 5.11 0zM101.111 90A2.556 2.556 0 1 1 96 90a2.556 2.556 0 0 1 5.112 0z"/>
            </g>
        </g>
        <path fill="#FFF" d="M71.505 38.889c.44 1.872 2.888 6.731 4.698 8.485 1.81 1.754 6.71 3.728 8.6 4.279 3.908 1.135 5.482 2.946 6.954 4.497 1.835 1.933 1.925 4.05 1 5.955-.744 1.534-3.378 3.624-7.137 3.163-4.965-.609-8.439-3.414-15.74-3.703-6.905-.272-10.538 1.786-15.979 2.508-4.42.588-10.036.953-22.79-4.508"/>
        <path stroke="#111" stroke-linecap="round" stroke-linejoin="round" stroke-width="1.5" d="M71.505 38.889c.44 1.872 2.888 6.731 4.698 8.485 1.81 1.754 6.71 3.728 8.6 4.279 3.908 1.135 5.482 2.946 6.954 4.497 1.835 1.933 1.925 4.05 1 5.955-.744 1.534-3.378 3.624-7.137 3.163-4.965-.609-8.439-3.414-15.74-3.703-6.905-.272-10.538 1.786-15.979 2.508-4.42.588-10.036.953-22.79-4.508"/>
        <path fill="#FFF" stroke="#111" stroke-linecap="round" stroke-linejoin="round" stroke-width="1.5" d="M20.318 66.889l16.238-.036-.096-37.297-16.238.036z"/>
    </g>
</svg>
