<svg xmlns="http://www.w3.org/2000/svg" width="140" height="140" viewBox="0 0 140 140">
    <g fill="none" fill-rule="evenodd">
        <path d="M0 0h140v140H0z"/>
        <g stroke="#08BF5B" stroke-linecap="round" stroke-linejoin="round" stroke-width="1.5">
            <path d="M87.123 41.376l-4.93-5.872M87.123 41.376l4.93-5.872M87.123 41.25v9.692M81.931 46.096h10.385M81.931 41.25h10.385"/>
        </g>
        <g stroke="#111" stroke-linecap="round" stroke-linejoin="round" stroke-width="1.5">
            <path d="M102.198 115.111V30.62c0-5.314-4.308-9.62-9.623-9.62h-66.6"/>
            <path d="M33.444 44.333H18.666V28.306c0-4.035 3.309-7.306 7.39-7.306 4.08 0 7.388 3.271 7.388 7.306v16.027zM33.444 28v71.556M41.352 35.664H74.02M41.352 46.278H74.02M41.352 57.167H74.02M41.352 67.278h23.333M33.444 84.778v17.181c0 5.116 4.178 9.263 9.331 9.263 5.152 0 9.33-4.147 9.33-9.263v-7.997h38.117M42 111.222h47.608"/>
        </g>
        <path fill="#08BF5B" stroke="#111" stroke-linecap="round" stroke-linejoin="round" stroke-width="1.5" d="M115.36 119.152H87.38c-3.442 0-6.232-2.797-6.232-6.247V68.622c0-3.45 2.79-6.248 6.232-6.248h27.98c3.443 0 6.232 2.798 6.232 6.248v44.283c0 3.45-2.79 6.247-6.232 6.247z"/>
        <g fill="#FFF">
            <path d="M88.926 81.819h24.889V68.596h-24.89zM95.148 90.374a3.111 3.111 0 1 1-6.222 0 3.111 3.111 0 0 1 6.222 0M113.815 90.374a3.111 3.111 0 1 1-6.223 0 3.111 3.111 0 0 1 6.223 0M104.481 90.374a3.111 3.111 0 1 1-6.222 0 3.111 3.111 0 0 1 6.222 0M95.148 100.486a3.111 3.111 0 1 1-6.222 0 3.111 3.111 0 0 1 6.222 0M113.815 100.486a3.111 3.111 0 1 1-6.222 0 3.111 3.111 0 0 1 6.222 0M104.481 100.486a3.11 3.11 0 1 1-6.221 0 3.11 3.11 0 0 1 6.221 0M95.148 110.597a3.111 3.111 0 1 1-6.222 0 3.111 3.111 0 0 1 6.222 0M113.815 110.597a3.111 3.111 0 1 1-6.222 0 3.111 3.111 0 0 1 6.222 0M104.481 110.597a3.11 3.11 0 1 1-6.221 0 3.11 3.11 0 0 1 6.221 0"/>
        </g>
    </g>
</svg>
