<svg xmlns="http://www.w3.org/2000/svg" width="331" height="180" viewBox="0 0 331 180">
    <g fill="none" fill-rule="evenodd">
        <path d="M.724 0H331v180H.724z"/>
        <path fill="#08BF5B" d="M192.471 54.725c0 11.19-9.05 20.26-20.217 20.26-11.165 0-20.216-9.07-20.216-20.26 0-11.189 9.05-20.259 20.216-20.259s20.217 9.07 20.217 20.259"/>
        <g fill="#FFF" transform="translate(167.248 43.176)">
            <path d="M1.257 7.395H6.352c.7-.015 1.05.308 1.05.971 0 .994-1.507 9.662-1.507 10.175 0 .514-.177 1.649.457 1.909.635.26 1.86-.396 2.148-.6.192-.136.403-.136.633 0 .238.41.026.952-.633 1.627-.99 1.013-2.148 1.458-3.347 1.458H3.995c-1.27 0-2.384-.852-2.738-1.458-.354-.606-.417-1.006-.208-2.506.208-1.501 1.242-7.759 1.242-8.342 0-.583.082-1.446-.654-1.651C.901 8.772 0 8.877 0 8.103c0-.516.418-.752 1.257-.708"/>
            <ellipse cx="4.446" cy="2.903" rx="2.877" ry="2.903"/>
        </g>
        <path fill="#EFEFEF" d="M100.231 148.065h145.582v-32.662H100.231z"/>
        <path stroke="#262424" d="M99.507 142.862V8.745l145.722-.883v134.117M245.229 39.962v102.033"/>
        <path stroke="#262424" stroke-linejoin="round" d="M244.747 43.297c-8.209-7.138-31.87-4.719-31.87-4.719 0-20.564-7.966-30.241-7.966-30.241s25.584 11.86 39.836 34.96z"/>
        <path fill="#FFF" d="M249.517 141.245l-38.994 5.448-25.023 1.983 15.38 13.759 33.458-2.188 15.18-10.378z"/>
        <path stroke="#262424" stroke-linecap="round" stroke-linejoin="round" d="M57.397 132.024s95.273 37.468 229.934 0"/>
        <g>
            <path fill="#FFF" d="M121.985 139.972v8.386H97.53l-14.96-5.265-1.147-8.228 33.622-1.023 6.939 6.13z"/>
            <path fill="#FFF" d="M69.561 139.158s1.796 3.053 14.548 8.978c0 0 15.625 7.601 29.094 4.37"/>
            <path stroke="#262424" d="M69.561 139.158s1.796 3.053 14.548 8.978c0 0 15.625 7.601 29.094 4.37"/>
            <path fill="#FFF" d="M74.378 91.362L59.145 75.954s-3.55-4.218-7.41-5.781c-3.97-1.609-7.913 2.272-6.557 6.334.684 2.046 2.246 4.733 5.465 8.126l16.763 17.477"/>
            <path stroke="#262424" d="M74.378 91.362L59.145 75.954s-3.55-4.218-7.41-5.781c-3.97-1.609-7.913 2.272-6.557 6.334.684 2.046 2.246 4.733 5.465 8.126l16.763 17.477"/>
            <g stroke="#262424">
                <path fill="#FFF" d="M112.106 139.516h-43.3c-3.231 0-5.873-2.622-5.873-5.826V57.52c0-3.205 2.642-5.827 5.872-5.827h43.301c3.23 0 5.873 2.622 5.873 5.827v76.17c0 3.204-2.643 5.826-5.873 5.826z"/>
                <path stroke-linecap="round" d="M85.921 132.314h8.621M85.595 58.317h8.62"/>
            </g>
            <g>
                <path fill="#FFF" d="M131.463 142.33c5.029-19.93-.312-30.29-.312-30.29-1.582-4.364-2.696-6.49-4.163-10.092-1.467-3.603-1.632-8.452-3.362-12.389-2.253-5.13-5.353-6.311-8.243-5.618-2.918.7-4.387 3.335-3.026 9.488.692 3.128 1.591 7.904 2.133 12.03.102.778.154 1.532.17 2.25.067 3.101-.953 6.11-2.817 8.59-2.583 3.434-7.356 14.217-7.739 25.912"/>
                <path stroke="#262424" d="M131.463 142.33c5.029-19.93-.312-30.29-.312-30.29-1.582-4.364-2.696-6.49-4.163-10.092-1.467-3.603-1.632-8.452-3.362-12.389-2.253-5.13-5.353-6.311-8.243-5.618-2.918.7-4.387 3.335-3.026 9.488.692 3.128 1.591 7.904 2.133 12.03.102.778.154 1.532.17 2.25.067 3.101-.953 6.11-2.817 8.59-2.583 3.434-7.356 14.217-7.739 25.912"/>
                <path fill="#FFF" stroke="#262424" stroke-linejoin="round" d="M148.982 144.166l-35.973 27.541-11.83-15.28 35.973-27.542z"/>
                <path fill="#FFF" d="M65.153 113.611c-1.286-.974-3.483-2.515-5.139-3.186-2.102-.854-5.094-.44-6.707 2.5 0 0-2.11 3.148.845 7.02.732.958 1.669 1.742 2.68 2.4l8.978 5.85s3.197 1.9 6.356 2.316c3.698.486 6.337-3.419 4.614-6.727-.389-.747-.934-1.575-1.686-2.481-1.033-1.246-2.25-2.33-3.54-3.308l-6.4-4.384z"/>
                <path stroke="#262424" d="M65.153 113.611c-1.286-.974-3.483-2.515-5.139-3.186-2.102-.854-5.094-.44-6.707 2.5 0 0-2.11 3.148.845 7.02.732.958 1.669 1.742 2.68 2.4l8.978 5.85s3.197 1.9 6.356 2.316c3.698.486 6.337-3.419 4.614-6.727-.389-.747-.934-1.575-1.686-2.481-1.033-1.246-2.25-2.33-3.54-3.308l-6.4-4.384z"/>
                <path fill="#FFF" d="M65.207 128.278c-1.026-.837-2.196-1.506-3.476-1.847-1.802-.48-4.169-.51-5.58 1.853 0 0-1.825 2.522.485 5.787.573.808 1.318 1.48 2.13 2.05l7.194 5.066s2.568 1.654 5.148 2.09c3.02.508 5.302-2.619 3.987-5.385-.298-.625-.72-1.32-1.31-2.086-.812-1.054-1.778-1.979-2.808-2.82l-5.77-4.708z"/>
                <path stroke="#262424" d="M65.207 128.278c-1.026-.837-2.196-1.506-3.476-1.847-1.802-.48-4.169-.51-5.58 1.853 0 0-1.825 2.522.485 5.787.573.808 1.318 1.48 2.13 2.05l7.194 5.066s2.568 1.654 5.148 2.09c3.02.508 5.302-2.619 3.987-5.385-.298-.625-.72-1.32-1.31-2.086-.812-1.054-1.778-1.979-2.808-2.82l-5.77-4.708z"/>
                <path fill="#FFF" d="M66.386 99.273a13.8 13.8 0 0 0-1.03-.751c-1.225-.815-2.335-1.598-3.699-1.96-2.193-.585-5.076-.623-6.793 2.256 0 0-2.36 3.26.863 7.412.646.833 1.457 1.523 2.319 2.13l8.762 6.17s3.126 2.013 6.268 2.543c3.678.62 6.456-3.188 4.854-6.556-.362-.761-.877-1.608-1.595-2.54-.989-1.283-2.165-2.41-3.42-3.433l-6.529-5.271z"/>
                <path stroke="#262424" d="M66.386 99.273a13.8 13.8 0 0 0-1.03-.751c-1.225-.815-2.335-1.598-3.699-1.96-2.193-.585-5.076-.623-6.793 2.256 0 0-2.36 3.26.863 7.412.646.833 1.457 1.523 2.319 2.13l8.762 6.17s3.126 2.013 6.268 2.543c3.678.62 6.456-3.188 4.854-6.556-.362-.761-.877-1.608-1.595-2.54-.989-1.283-2.165-2.41-3.42-3.433l-6.529-5.271z"/>
            </g>
            <path fill="#08BF5B" d="M101.635 95.411H78.47c-4.385 0-7.973-3.593-7.973-7.984s3.588-7.984 7.973-7.984h23.165c4.385 0 7.974 3.593 7.974 7.984s-3.589 7.984-7.974 7.984"/>
        </g>
    </g>
</svg>
