<svg xmlns="http://www.w3.org/2000/svg" xmlns:xlink="http://www.w3.org/1999/xlink" width="88" height="88" viewBox="0 0 88 88">
    <defs>
        <path id="a" d="M.016 11.793c0 6.309 5.114 11.423 11.423 11.423 6.31 0 11.423-5.114 11.423-11.423S17.748.37 11.44.37.016 5.484.016 11.793z"/>
    </defs>
    <g fill="none" fill-rule="evenodd">
        <path fill="#DFDFDF" d="M45.708 43.37c0 6.309-5.114 11.423-11.423 11.423-6.308 0-11.423-5.114-11.423-11.423s5.115-11.423 11.423-11.423c6.31 0 11.423 5.114 11.423 11.423"/>
        <path fill="#FFF" stroke="#111" stroke-linecap="round" d="M38.569 40.846a4.284 4.284 0 1 1-8.567 0 4.284 4.284 0 0 1 8.567 0z"/>
        <g transform="translate(22.846 31.577)">
            <mask id="b" fill="#fff">
                <use xlink:href="#a"/>
            </mask>
            <path fill="#FFF" stroke="#111" stroke-linecap="round" d="M19.19 21.406a7.752 7.752 0 1 1-15.503 0 7.752 7.752 0 0 1 15.503 0z" mask="url(#b)"/>
        </g>
        <path stroke="#111" stroke-linecap="round" d="M45.708 43.37c0 6.309-5.114 11.423-11.423 11.423-6.308 0-11.423-5.114-11.423-11.423s5.115-11.423 11.423-11.423c6.31 0 11.423 5.114 11.423 11.423z"/>
        <g stroke="#111" stroke-linecap="round">
            <path d="M13.493 60.85V20.496c0-2.494 2.029-4.516 4.532-4.516h32.064c2.504 0 4.532 2.022 4.532 4.516v21.66M31.111 20.946h5.892"/>
        </g>
        <g>
            <path fill="#FFF" d="M71.82 55.93l-.043-.48c-.68-6.922-6.118-12.19-6.118-12.19-1.688-1.94-3.4-.226-3.4-.226-1.963-2.409-3.587-.677-3.587-.677l-1.02.978c-2.19-2.559-4.003-.602-4.003-.602l-1.416 1.487-4.627-4.196c-3.324-3.387-4.683-1.43-4.683-1.43-1.51 1.806.988 3.892.988 3.892 2.436 2.002 6.188 6.87 6.188 6.87-2.071 1.229-2.214 2.97-1.974 4.207.135.697.432 1.351.824 1.943l2.51 3.783c.68 1.054 2.87 2.935 5.362 3.612 1.441.392 2.334.91 2.865 1.326"/>
            <path stroke="#111" d="M71.82 55.93l-.043-.48c-.68-6.922-6.118-12.19-6.118-12.19-1.688-1.94-3.4-.226-3.4-.226-1.963-2.409-3.587-.677-3.587-.677l-1.02.978c-2.19-2.559-4.003-.602-4.003-.602l-1.416 1.487-4.627-4.196c-3.324-3.387-4.683-1.43-4.683-1.43-1.51 1.806.988 3.892.988 3.892 2.436 2.002 6.188 6.87 6.188 6.87-2.071 1.229-2.214 2.97-1.974 4.207.135.697.432 1.351.824 1.943l2.51 3.783c.68 1.054 2.87 2.935 5.362 3.612 1.441.392 2.334.91 2.865 1.326"/>
            <path fill="#FFF" d="M53.271 54.172s-1.623-2.937-3.172-4.816"/>
            <path stroke="#111" stroke-linecap="round" d="M53.271 54.172s-1.623-2.937-3.172-4.816"/>
            <path fill="#FFF" d="M52.116 44.122s2.297 2.215 2.854 2.873"/>
            <path stroke="#111" stroke-linecap="round" d="M52.116 44.122s2.297 2.215 2.854 2.873"/>
            <path fill="#FFF" d="M57.652 43.335c.038.038 1.086 1.402 1.36 2.107"/>
            <path stroke="#111" stroke-linecap="round" d="M57.652 43.335c.038.038 1.086 1.402 1.36 2.107"/>
            <g>
                <path fill="#FFF" d="M62.26 43.034s.984 1.192 1.248 1.643"/>
                <path stroke="#111" stroke-linecap="round" d="M62.26 43.034s.984 1.192 1.248 1.643"/>
            </g>
            <path stroke="#111" stroke-linecap="round" d="M64.068 70.782c-.498-1.357-3.51-5.271-4.224-6.106a.382.382 0 0 1-.04-.438c3.881-6.669 11.225-8.301 12.639-8.559a.375.375 0 0 1 .374.153c.682.959 3.307 4.861 5.364 6.406"/>
            <path stroke="#111" d="M75.445 59.464s-8.79.994-12.897 8.834"/>
        </g>
    </g>
</svg>
