<svg xmlns="http://www.w3.org/2000/svg" width="88" height="88" viewBox="0 0 88 88">
    <g fill="none" fill-rule="evenodd" stroke="#111">
        <path stroke-linecap="round" d="M64.651 69.385H23.349a2.192 2.192 0 0 1-2.195-2.19V38.923h45.692v28.272c0 1.21-.983 2.19-2.195 2.19z"/>
        <path d="M38.077 69.385v-9.718c0-2.811 2.652-5.09 5.923-5.09s5.923 2.279 5.923 5.09v9.718"/>
        <path fill="#08BF5B" stroke-linecap="round" stroke-linejoin="round" d="M17.48 34.876l7.217-15.17c.18-.402.63-.668 1.132-.668h36.402c.504 0 .955.267 1.133.67l7.165 15.189a.88.88 0 0 1 .078.339c.024.897.047 2.637.047 2.637 0 3.276-3.226 5.907-7.107 5.691-3.54-.196-6.219-2.848-6.219-5.886v-2.5h-.001v2.5c0 3.038-2.679 5.69-6.22 5.886-3.88.216-7.106-2.415-7.106-5.69v-2.695h-.002v2.694c0 3.15-2.983 5.704-6.663 5.704s-6.663-2.554-6.663-5.704V35.18h-.001v2.694c0 3.15-2.983 5.704-6.663 5.704s-6.663-2.554-6.663-5.704l.055-2.638a.912.912 0 0 1 .08-.359z"/>
        <path stroke-linecap="round" stroke-linejoin="round" d="M24.962 31.52h38.076"/>
    </g>
</svg>
