<svg xmlns="http://www.w3.org/2000/svg" xmlns:xlink="http://www.w3.org/1999/xlink" width="208" height="208" viewBox="0 0 208 208">
    <defs>
        <path id="a" d="M.732.04a.409.409 0 0 0-.407.41v11.058c0 .226.182.41.407.41h1.76a.408.408 0 0 0 .407-.41V.45a.409.409 0 0 0-.407-.41H.732z"/>
        <path id="c" d="M8.413.04a.409.409 0 0 0-.406.41v6.892L2.776.224 2.74.18 2.713.152C2.7.138 2.692.132 2.685.127L2.654.105l-.108-.05L2.47.04 2.448.04H.74a.408.408 0 0 0-.406.41v11.06c0 .225.182.408.406.408h1.762a.408.408 0 0 0 .406-.409V4.55l5.238 7.193c.03.04.064.075.104.102l.08.044.039.013a.405.405 0 0 0 .112.015h1.694a.409.409 0 0 0 .406-.409V.45a.41.41 0 0 0-.406-.41H8.413z"/>
        <path id="e" d="M1.116.04A.408.408 0 0 0 .71.45v11.057c0 .107.04.208.112.285a.41.41 0 0 0 .293.125h7.037a.408.408 0 0 0 .405-.41v-1.78a.408.408 0 0 0-.405-.41H3.284V.45a.41.41 0 0 0-.408-.41h-1.76z"/>
        <path id="g" d="M1.218.04a.404.404 0 0 0-.283.114A.428.428 0 0 0 .81.45v11.057c0 .107.041.208.114.285l.016.015c.072.07.172.11.277.11h7.038a.408.408 0 0 0 .406-.41v-1.78a.41.41 0 0 0-.406-.412h-4.87V7.28h4.87a.408.408 0 0 0 .406-.41V5.09a.408.408 0 0 0-.406-.41h-4.87V2.64h4.87a.409.409 0 0 0 .406-.411V.45a.408.408 0 0 0-.406-.41H1.218z"/>
    </defs>
    <g fill="none" fill-rule="evenodd">
        <path stroke="#111" stroke-linecap="round" stroke-width="2" d="M32 144.317v-95.71c0-5.915 4.812-10.71 10.75-10.71h76.044c5.937 0 10.749 4.795 10.749 10.71v51.37M73.785 49.677h13.973"/>
        <path fill="#08BF5B" d="M82.31 128.367s9.674-6.292 15.452-10.843c8.236-6.013 9.333-11.54 9.953-14.93.197-1.08.158-2.145.09-3.24-.213-3.367-1.409-6.527-3.363-9.3C99.892 83.599 91.233 79.24 81.3 79.24c-14.657 0-26.54 9.49-26.54 21.196 0 0-.826 16.767 21.752 20.983 1.606.3 2.952 1.5 2.978 3.128v4.294c0 .568.626.912 1.108.609l1.713-1.083z"/>
        <path stroke="#111" stroke-width="2" d="M82.31 128.367s9.674-6.292 15.452-10.843c8.236-6.013 9.333-11.54 9.953-14.93.197-1.08.158-2.145.09-3.24-.213-3.367-1.409-6.527-3.363-9.3C99.892 83.599 91.233 79.24 81.3 79.24c-14.657 0-26.54 9.49-26.54 21.196 0 0-.826 16.767 21.752 20.983 1.606.3 2.952 1.5 2.978 3.128v4.294c0 .568.626.912 1.108.609l1.713-1.083z"/>
        <g transform="translate(73.427 95.192)">
            <mask id="b" fill="#fff">
                <use xlink:href="#a"/>
            </mask>
            <path fill="#FFF" d="M-3.066 15.296H6.29V-3.34h-9.356z" mask="url(#b)"/>
        </g>
        <g transform="translate(77.93 95.192)">
            <mask id="d" fill="#fff">
                <use xlink:href="#c"/>
            </mask>
            <path fill="#FFF" d="M-3.057 15.296h17.029V-3.34H-3.057z" mask="url(#d)"/>
        </g>
        <g transform="translate(63.52 95.192)">
            <mask id="f" fill="#fff">
                <use xlink:href="#e"/>
            </mask>
            <path fill="#FFF" d="M-2.682 15.296H11.95V-3.34h-14.63z" mask="url(#f)"/>
        </g>
        <g transform="translate(89.637 95.192)">
            <mask id="h" fill="#fff">
                <use xlink:href="#g"/>
            </mask>
            <path fill="#FFF" d="M-2.58 15.296h14.632V-3.34H-2.58z" mask="url(#h)"/>
        </g>
        <g>
            <path fill="#FFF" d="M170.33 132.648l-.099-1.138c-1.613-16.42-14.511-28.913-14.511-28.913-4.003-4.601-8.061-.536-8.061-.536-4.658-5.712-8.51-1.606-8.51-1.606l-2.419 2.32c-5.194-6.069-9.494-1.428-9.494-1.428l-3.357 3.527-10.975-9.952c-7.882-8.032-11.106-3.39-11.106-3.39-3.582 4.283 2.343 9.23 2.343 9.23 5.779 4.748 14.676 16.292 14.676 16.292-4.911 2.915-5.25 7.045-4.682 9.98.321 1.65 1.026 3.204 1.956 4.607l5.95 8.972c1.613 2.499 6.807 6.961 12.72 8.567 3.416.929 5.535 2.159 6.793 3.143"/>
            <path stroke="#111" stroke-width="2" d="M170.33 132.648l-.099-1.138c-1.613-16.42-14.511-28.913-14.511-28.913-4.003-4.601-8.061-.536-8.061-.536-4.658-5.712-8.51-1.606-8.51-1.606l-2.419 2.32c-5.194-6.069-9.494-1.428-9.494-1.428l-3.357 3.527-10.975-9.952c-7.882-8.032-11.106-3.39-11.106-3.39-3.582 4.283 2.343 9.23 2.343 9.23 5.779 4.748 14.676 16.292 14.676 16.292-4.911 2.915-5.25 7.045-4.682 9.98.321 1.65 1.026 3.204 1.956 4.607l5.95 8.972c1.613 2.499 6.807 6.961 12.72 8.567 3.416.929 5.535 2.159 6.793 3.143"/>
            <path fill="#FFF" d="M126.34 128.476s-3.85-6.964-7.523-11.422"/>
            <path stroke="#111" stroke-linecap="round" stroke-width="1.8" d="M126.34 128.476s-3.85-6.964-7.523-11.422"/>
            <path fill="#FFF" d="M123.602 104.641s5.446 5.254 6.768 6.814"/>
            <path stroke="#111" stroke-linecap="round" stroke-width="1.8" d="M123.602 104.641s5.446 5.254 6.768 6.814"/>
            <path fill="#FFF" d="M136.73 102.775c.09.09 2.575 3.325 3.226 4.998"/>
            <path stroke="#111" stroke-linecap="round" stroke-width="1.8" d="M136.73 102.775c.09.09 2.575 3.325 3.226 4.998"/>
            <g>
                <path fill="#FFF" d="M147.659 102.061s2.333 2.827 2.96 3.898"/>
                <path stroke="#111" stroke-linecap="round" stroke-width="1.8" d="M147.659 102.061s2.333 2.827 2.96 3.898"/>
            </g>
            <path stroke="#111" stroke-linecap="round" stroke-width="2" d="M151.946 167.87c-1.181-3.218-8.324-12.5-10.017-14.48a.905.905 0 0 1-.095-1.04c9.205-15.816 26.623-19.688 29.976-20.298a.889.889 0 0 1 .888.363c1.615 2.273 7.842 11.528 12.72 15.192"/>
            <path stroke="#111" stroke-width="2" d="M178.93 141.027s-20.847 2.358-30.588 20.951"/>
        </g>
    </g>
</svg>
