<svg xmlns="http://www.w3.org/2000/svg" width="88" height="88" viewBox="0 0 88 88">
    <g fill="none" fill-rule="evenodd">
        <g stroke="#111">
            <path d="M38.27 57.962l-.622 10.558M49.89 57.962l.621 10.558"/>
        </g>
        <path stroke="#111" stroke-linecap="round" stroke-linejoin="round" d="M32.577 68.73h23.692"/>
        <path fill="#FFF" stroke="#262424" stroke-linecap="round" stroke-linejoin="round" d="M67.91 61.346H20.513a4.448 4.448 0 0 1-4.436-4.434v-33.44a4.448 4.448 0 0 1 4.436-4.434H67.91a4.448 4.448 0 0 1 4.436 4.434v33.44a4.448 4.448 0 0 1-4.436 4.434z"/>
        <g stroke="#111">
            <path fill="#08BF5B" d="M37.88 33.144h17.351l-1.654 6.617c-.324 1.296-1.471 2.203-2.787 2.203H39.414"/>
            <path stroke-linecap="round" d="M32.577 29.192h1.874a2.87 2.87 0 0 1 2.824 2.343L39.95 45.87h11.393"/>
            <path d="M43.184 48.109a2.24 2.24 0 0 1-2.244 2.237 2.24 2.24 0 0 1-2.244-2.237 2.24 2.24 0 0 1 2.244-2.238 2.24 2.24 0 0 1 2.244 2.238zM53.383 48.109a2.24 2.24 0 0 1-2.244 2.237 2.24 2.24 0 0 1-2.243-2.237 2.24 2.24 0 0 1 2.243-2.238 2.24 2.24 0 0 1 2.244 2.238z"/>
        </g>
    </g>
</svg>
