<svg xmlns="http://www.w3.org/2000/svg" width="88" height="88" viewBox="0 0 88 88">
    <g fill="none" fill-rule="evenodd">
        <g stroke="#111" stroke-linecap="round">
            <path d="M64.651 69.385H23.349a2.192 2.192 0 0 1-2.195-2.19V38.923h45.692v28.272c0 1.21-.983 2.19-2.195 2.19z"/>
            <path fill="#08BF5B" stroke-linejoin="round" d="M17.48 34.876l7.217-15.17c.18-.402.63-.668 1.132-.668h36.402c.504 0 .955.267 1.133.67l7.165 15.189a.88.88 0 0 1 .078.339c.024.897.047 2.637.047 2.637 0 3.276-3.226 5.907-7.107 5.691-3.54-.196-6.219-2.848-6.219-5.886v-2.5h-.001v2.5c0 3.038-2.679 5.69-6.22 5.886-3.88.216-7.106-2.415-7.106-5.69v-2.695h-.002v2.694c0 3.15-2.983 5.704-6.663 5.704s-6.663-2.554-6.663-5.704V35.18h-.001v2.694c0 3.15-2.983 5.704-6.663 5.704s-6.663-2.554-6.663-5.704l.055-2.638a.912.912 0 0 1 .08-.359z"/>
            <path stroke-linejoin="round" d="M24.962 31.52h38.076"/>
        </g>
        <g fill="#111">
            <path d="M47.135 52.279h2.595v-2.416h-2.595v2.416zm-1.064 1.209H50.95v-4.834h-5.035v4.834h.156zM38.45 52.279h2.595v-2.416h-2.594v2.416zm-1.064 1.209H42.265v-4.834h-5.034v4.834h.155zM43.59 53.488h1.064v-4.834h-1.22v4.834zM46.07 59.574h.998V55.87H49.8v3.705h1.152v-4.833h-5.038v4.833zM38.45 60.829h2.595v-2.416h-2.594v2.416zm-1.219 1.209H42.265v-4.834h-5.034v4.834z"/>
            <path d="M44.82 60.777V54.74h-7.59v1.21h6.37v6.035h7.363v-1.21z"/>
        </g>
    </g>
</svg>
