<svg xmlns="http://www.w3.org/2000/svg" width="208" height="208" viewBox="0 0 208 208">
    <g fill="none" fill-rule="evenodd">
        <path fill="#08BF5B" d="M62.459 131.917l-.084 41.5h8.333l-.125-45.875zM135.25 173.417h8.333v-43.25l-8.333-4.125z"/>
        <path fill="#FFF" d="M80.224 76.521s-7.237-.414-6.203 7.651c0 0 .413 8.064 7.65 10.132"/>
        <path stroke="#262424" stroke-linecap="round" stroke-linejoin="round" stroke-width="2" d="M80.224 76.521s-7.237-.414-6.203 7.651c0 0 .413 8.064 7.65 10.132"/>
        <path fill="#FFF" d="M128.715 76.521s7.237-.414 6.203 7.651c0 0-.413 8.064-7.65 10.132"/>
        <path stroke="#262424" stroke-linecap="round" stroke-linejoin="round" stroke-width="2" d="M128.715 76.521s7.237-.414 6.203 7.651c0 0-.413 8.064-7.65 10.132"/>
        <path fill="#262424" d="M128.04 48.739c-1.79-1.99-4.039-3.71-6.462-4.865a8.85 8.85 0 0 0-1.343-.491c-2.829-5.438-9.486-8.292-15.148-9.361-1.183-.223-2.002 1.334-.936 2.076a25.74 25.74 0 0 1 2.381 1.878 12.19 12.19 0 0 0-2.317-.378c-5.614-.346-11.043 1.888-15.834 4.607-6.17 3.502-14.293 9.217-13.476 17.353.244 2.426 1.293 4.683 2.176 6.924 1.732 4.396 1.95 9.084 2.707 13.705.2 1.225 2.271 1.788 2.471.269.506-3.833.31-8.733 2.01-12.284 1.785-3.725 7.636-4.564 11.127-6.171a27.548 27.548 0 0 0 3.95-2.2 22.287 22.287 0 0 1-2.744 3.453c-.846.864.382 2.43 1.442 2.035 3.87-1.447 7.471-3.785 10.321-6.795-.089 1.533-.292 3.06-.754 4.476-.342 1.047.826 2.35 1.893 1.645 2.191-1.447 4.08-3.357 5.358-5.627.446.71.955 1.382 1.52 1.985 2.326 2.48 7.052 3.633 7.684 7.26l1.807 12.654c.143.999 2 1.873 2.388.566.865-2.904.84-5.497 1.188-8.526.59-5.137 2.948-10.536 2.791-15.71-.096-3.142-2.169-6.222-4.2-8.478"/>
        <path fill="#FFF" d="M81.723 88.643s-1.525 22.926 22.435 23.857"/>
        <path stroke="#262424" stroke-linecap="round" stroke-linejoin="round" stroke-width="2" d="M81.723 88.643s-1.525 22.926 22.435 23.857"/>
        <path fill="#FFF" d="M126.848 88.643s1.528 22.926-22.431 23.857"/>
        <path stroke="#262424" stroke-linecap="round" stroke-linejoin="round" stroke-width="2" d="M126.848 88.643s1.528 22.926-22.431 23.857"/>
        <path fill="#262424" d="M98.205 80.681a1.745 1.745 0 1 1-3.49 0 1.745 1.745 0 0 1 3.49 0M114.017 80.681a1.745 1.745 0 1 1-3.49 0 1.745 1.745 0 0 1 3.49 0"/>
        <path fill="#FFF" d="M103.822 80.89s.853 2.713-2.17 5.66c0 0-3.645 3.644 2.48 5.117"/>
        <path stroke="#262424" stroke-linecap="round" stroke-linejoin="round" stroke-width="2" d="M103.822 80.89s.853 2.713-2.17 5.66c0 0-3.645 3.644 2.48 5.117"/>
        <g>
            <path fill="#FFF" d="M100.255 98.336s5.583 3.334 10.003-.93"/>
            <path stroke="#262424" stroke-linecap="round" stroke-linejoin="round" stroke-width="2" d="M100.255 98.336s5.583 3.334 10.003-.93"/>
        </g>
        <path stroke="#111" stroke-linecap="round" stroke-width="2" d="M105.5 131.167c-15.833.667-21.167-8.667-21.167-8.667S62.833 125.167 46 147c0 0-8.667 12-13 26"/>
        <path stroke="#262424" stroke-linecap="round" stroke-width="2" d="M103.167 131.167c15.833.667 21.167-8.667 21.167-8.667s21.5 2.667 38.333 24.5c0 0 8.666 12 13 26M89.917 107.875s2.833 11.333-5.333 15M118.784 107.875s-2.833 11.333 5.333 15"/>
    </g>
</svg>
