<svg xmlns="http://www.w3.org/2000/svg" width="72" height="72" viewBox="0 0 72 72">
    <g fill="none" fill-rule="evenodd">
        <path d="M0 0h72v72H0z" opacity=".3"/>
        <path stroke="#262424" stroke-linecap="round" d="M33 14.041h6"/>
        <path fill="#08BF5B" d="M46.214 49.438H25.785a.786.786 0 0 1-.785-.786l1.571-28.81c0-.433.352-.785.786-.785h17.286c.434 0 .785.352.785.785L47 48.652a.786.786 0 0 1-.786.786"/>
        <path stroke="#262424" d="M40.167 57.998h-8.333A1.839 1.839 0 0 1 30 56.165c0-1.009.825-1.834 1.834-1.834h8.333c1.008 0 1.833.825 1.833 1.834a1.839 1.839 0 0 1-1.833 1.833z"/>
        <path stroke="#262424" d="M54 65.166H18a3 3 0 0 1-3-3L17.3 10a3 3 0 0 1 3-3H52a3 3 0 0 1 3 3l2 52.166a3 3 0 0 1-3 3z"/>
    </g>
</svg>
