<svg xmlns="http://www.w3.org/2000/svg" width="88" height="88" viewBox="0 0 88 88">
    <g fill="none" fill-rule="evenodd">
        <g stroke="#111">
            <path d="M54.712 70.23H19.75c-1.561 0-2.827-1.195-2.827-2.67V20.44c0-1.475 1.266-2.67 2.827-2.67h34.962c1.56 0 2.826 1.195 2.826 2.67v47.12c0 1.475-1.265 2.67-2.826 2.67z"/>
            <path stroke-linecap="round" d="M35.538 20.942h3.385M38.923 65.788a1.48 1.48 0 1 1-2.962 0 1.48 1.48 0 0 1 2.962 0z"/>
        </g>
        <g fill="#111">
            <path d="M40.952 40.183h3.303v-3.095h-3.303v3.095zm-1.355 1.549h6.21v-6.194H39.4v6.194h.198zM29.899 40.183h3.302v-3.095H29.9v3.095zm-1.355 1.549h6.21v-6.194h-6.408v6.194h.198zM36.44 41.732h1.354v-6.194h-1.553v6.194zM39.597 49.53h1.269v-4.748h3.479v4.748h1.465v-6.192H39.4v6.192zM29.899 51.137h3.302v-3.095H29.9v3.095zm-1.553 1.55h6.408v-6.194h-6.408v6.194z"/>
            <path d="M38.005 51.07v-7.732h-9.659v1.55h8.106v7.732h9.371v-1.55z"/>
        </g>
        <g stroke="#111" stroke-linecap="round">
            <path fill="#FFF" d="M68.103 67.27H52.897c-1.636 0-2.974-1.37-2.974-3.042V30.541c0-1.672 1.338-3.041 2.974-3.041h15.206c1.635 0 2.974 1.369 2.974 3.04v33.688c0 1.673-1.339 3.041-2.974 3.041z"/>
            <path d="M58.808 30.673h3.807M58.808 64.52h3.807"/>
        </g>
        <g>
            <path fill="#08BF5B" d="M66.958 48.847a6.404 6.404 0 0 1-12.804 0 6.402 6.402 0 0 1 12.804 0"/>
            <path stroke="#FFF" stroke-linecap="round" stroke-linejoin="round" stroke-width=".5" d="M60.556 48.292l-1.482-1.765M60.556 48.292l1.482-1.765M60.556 48.254v2.914M58.995 49.711h3.122M58.995 48.254h3.122"/>
            <g stroke="#08BF5B" stroke-linecap="round" stroke-linejoin="round" stroke-width=".846">
                <path d="M60.7 39.346v1.196M65.165 40.657l-.846.846M55.85 40.657l.847.846"/>
            </g>
        </g>
    </g>
</svg>
