<svg xmlns="http://www.w3.org/2000/svg" width="80" height="80" viewBox="0 0 80 80">
    <g fill="none" fill-rule="evenodd">
        <path d="M0 0h80v80H0z" opacity=".3"/>
        <g stroke="#262424" stroke-width="2">
            <path fill="#FFF" stroke-linecap="round" stroke-linejoin="round" d="M54.908 22.176c0 8.284-6.716 15-15 15-8.284 0-15-6.716-15-15 0-8.284 6.716-15 15-15 8.284 0 15 6.716 15 15z"/>
            <path fill="#FFF" stroke-linejoin="round" d="M39 37.176h2c14.36 0 26 11.64 26 26v4H13v-4c0-14.36 11.64-26 26-26z"/>
            <path d="M55.409 23c-4.01-.523-6.916-1.247-8.718-2.176-1.802-.93-4.068-2.87-6.8-5.824-2.774 3.025-5.028 4.965-6.762 5.824-1.736.858-4.642 1.468-8.72 1.83"/>
        </g>
    </g>
</svg>
