<svg xmlns="http://www.w3.org/2000/svg" xmlns:xlink="http://www.w3.org/1999/xlink" width="180" height="180" viewBox="0 0 180 180">
    <defs>
        <circle id="a" cx="90" cy="90" r="90"/>
        <path id="c" d="M0 .736h47.127v27.165H0z"/>
        <path id="e" d="M1.505.736V7.4l46.747-.039V.736h1.493v15.875H0V.736h1.505z"/>
    </defs>
    <g fill="none" fill-rule="evenodd">
        <mask id="b" fill="#fff">
            <use xlink:href="#a"/>
        </mask>
        <use fill="#ECECEC" xlink:href="#a"/>
        <g mask="url(#b)">
            <g transform="translate(37 42)">
                <rect width="106" height="190" fill="#FFF" rx="14.4"/>
                <path stroke="#F5F5F5" stroke-width="2" d="M7 23h92v158H7z"/>
            </g>
        </g>
        <g fill="#F04E52" mask="url(#b)">
            <path d="M116.495 107.965h.162a2.876 2.876 0 0 1 2.544-1.541c1.59 0 2.879 1.298 2.879 2.9 0 .493-.122.957-.337 1.363-.508 1.27-1.981 3.105-4.42 5.508a1.166 1.166 0 0 1-1.65-.013c-3.253-3.307-4.784-5.522-4.593-6.645a2.964 2.964 0 0 1-.008-.213c0-1.602 1.29-2.9 2.88-2.9 1.102 0 2.06.624 2.543 1.54z"/>
        </g>
        <g mask="url(#b)">
            <g transform="translate(64.636 139.607)">
                <mask id="d" fill="#fff">
                    <use xlink:href="#c"/>
                </mask>
                <path stroke="#111" stroke-width="1.5" d="M3.989-7.214h39.15c.715 0 1.295.58 1.295 1.296v27.917c0 .716-.58 1.296-1.296 1.296H3.99c-.716 0-1.296-.58-1.296-1.296V-5.918c0-.716.58-1.296 1.296-1.296z" mask="url(#d)"/>
            </g>
            <g transform="translate(63 116.898)">
                <g transform="translate(0 9.678)">
                    <mask id="f" fill="#fff">
                        <use xlink:href="#e"/>
                    </mask>
                    <path fill="#ECECEC" stroke="#111" stroke-width="1.5" d="M1.296 3.47a.546.546 0 0 0-.546.547v4.987a5.534 5.534 0 0 0 5.534 5.534h.877a5.534 5.534 0 0 0 5.534-5.534V4.017a.546.546 0 0 0-.546-.546H1.296zM13.396 3.47a.546.546 0 0 0-.546.547v4.987a5.534 5.534 0 0 0 5.534 5.534h.877a5.534 5.534 0 0 0 5.534-5.534V4.017a.546.546 0 0 0-.546-.546H13.396zM25.496 3.47a.546.546 0 0 0-.546.547v4.987a5.534 5.534 0 0 0 5.534 5.534h.877a5.534 5.534 0 0 0 5.534-5.534V4.017a.546.546 0 0 0-.546-.546H25.496zM37.597 3.47a.546.546 0 0 0-.546.547v4.987a5.534 5.534 0 0 0 5.533 5.534h.878a5.534 5.534 0 0 0 5.533-5.534V4.017a.546.546 0 0 0-.546-.546H37.597z" mask="url(#f)"/>
                </g>
                <path fill="#ECECEC" stroke="#111" stroke-width="1.5" d="M.751 17.446v-3.83c0-.257.077-.508.22-.721L9.413.287A.648.648 0 0 1 9.952 0h30c.218 0 .421.11.541.293l8.287 12.63c.139.212.213.459.213.712v3.933"/>
                <rect width="34" height="1.5" x="8" y="12.102" fill="#262424" rx=".75"/>
            </g>
            <path fill="#ECECEC" d="M88.345 148.9a8.345 8.345 0 0 1 8.346 8.345v4.854H80v-4.854a8.345 8.345 0 0 1 8.345-8.345z"/>
        </g>
        <g mask="url(#b)">
            <g transform="translate(20 77)">
                <rect width="68.4" height="25.2" fill="#08BF5B" stroke="#262424" stroke-width="2" rx="12.6"/>
                <path stroke="#FFF" stroke-linecap="round" stroke-linejoin="round" stroke-width="1.35" d="M11.7 12.799l2.03 2.501 3.37-4.5"/>
                <text font-family="NotoSansCJKjp-Medium, Noto Sans CJK JP" font-size="7.2" font-weight="400" letter-spacing="-.18">
                    <tspan x="20.7" y="15.2" fill="#FFF">Completed</tspan>
                </text>
            </g>
        </g>
    </g>
</svg>
