<svg xmlns="http://www.w3.org/2000/svg" xmlns:xlink="http://www.w3.org/1999/xlink" width="180" height="180" viewBox="0 0 180 180">
    <defs>
        <circle id="a" cx="90" cy="90" r="90"/>
        <rect id="c" width="21.951" height="15.899" y=".738" rx="1.944"/>
        <path id="e" d="M3.54 4.936c.007-.06.01-.121.01-.183 0-.907-.794-1.643-1.775-1.643C.795 3.11 0 3.846 0 4.753c0 .062.004.123.01.183H0V.738h3.55v4.198h-.01z"/>
    </defs>
    <g fill="none" fill-rule="evenodd">
        <mask id="b" fill="#fff">
            <use xlink:href="#a"/>
        </mask>
        <use fill="#ECECEC" xlink:href="#a"/>
        <g mask="url(#b)">
            <g transform="translate(35 42)">
                <rect width="106" height="190" fill="#FFF" rx="14.4"/>
                <path stroke="#F5F5F5" stroke-width="2" d="M7 23h92v158H7z"/>
            </g>
        </g>
        <g mask="url(#b)">
            <path fill="#08BF5B" stroke="#111" stroke-width="2" d="M125.112 121.698c-6.263-.643-8.58-1.919-8.934-2.486-.499-.8-.334-1.274.902-1.69 1.159-.389 1.126-2.242.538-3.622A20.905 20.905 0 0 1 115 103.738c0-11.598 9.402-21 21-21s21 9.402 21 21-9.402 21-21 21c-3.986 0-7.713-1.11-10.888-3.04z"/>
            <g transform="translate(125.33 95.627)">
                <mask id="d" fill="#fff">
                    <use xlink:href="#c"/>
                </mask>
                <use fill="#FFF" xlink:href="#c"/>
                <path fill="#E3E5EC" d="M.721 1.91l8.87 7.829a1.944 1.944 0 0 0 2.591-.016l8.638-7.812c1.312-1.485-.035-2.228-4.04-2.228-6.01 0-14.617-.547-16.059 0C-.24.048-.24.79.721 1.911z" mask="url(#d)"/>
                <g mask="url(#d)">
                    <g transform="translate(15.818 7.787)">
                        <g transform="translate(.646)">
                            <mask id="f" fill="#fff">
                                <use xlink:href="#e"/>
                            </mask>
                            <rect width="2.228" height="3.542" x=".5" y="1.562" stroke="#FFE173" mask="url(#f)" rx="1.114"/>
                        </g>
                        <rect width="3.519" height="3.542" x=".5" y="3.509" fill="#FFF" stroke="#FFE173" rx="1.296"/>
                    </g>
                </g>
            </g>
        </g>
        <g mask="url(#b)">
            <g transform="translate(75 86)">
                <ellipse cx="12.6" cy="10.894" fill="#00C43E" rx="12.6" ry="10.162"/>
                <path fill="#00C43E" d="M10.345 20.894c.944.202 1.416.538 1.416 1.008 0 .706-.402 2.191-.167 2.545.236.353.828.153 1.103 0 .274-.154 5.45-3.147 9.498-6.951 2.698-2.536-1.252-1.404-11.85 3.398z"/>
                <path fill="#FFF" d="M4.8 8.689c0-.103.084-.186.186-.186h.808c.103 0 .187.083.187.186v4.016h2.233c.102 0 .186.083.186.186v.806a.186.186 0 0 1-.186.186H4.986a.19.19 0 0 1-.134-.057.184.184 0 0 1-.052-.129V8.69zm4.2 0c0-.103.085-.186.19-.186h.82c.105 0 .19.083.19.186v5.009a.188.188 0 0 1-.19.185h-.82a.188.188 0 0 1-.19-.185v-5.01zm2.1 0c0-.103.085-.186.19-.186h.8l.01.001.036.006.05.023a.268.268 0 0 1 .028.021.184.184 0 0 1 .029.033l2.45 3.224V8.689c0-.103.086-.186.191-.186h.825c.105 0 .19.083.19.186v5.009a.188.188 0 0 1-.19.185h-.793a.204.204 0 0 1-.052-.007c-.004 0-.008-.002-.019-.006l-.037-.02a.187.187 0 0 1-.049-.046l-2.454-3.258v3.152a.188.188 0 0 1-.19.185h-.825a.188.188 0 0 1-.19-.185v-5.01zm5.7 0a.185.185 0 0 1 .186-.185h3.227c.103 0 .186.082.186.185v.806a.186.186 0 0 1-.186.186H17.98v.923h2.233c.103 0 .186.084.186.186v.806a.186.186 0 0 1-.186.186H17.98v.923h2.233c.103 0 .186.083.186.186v.806a.186.186 0 0 1-.186.186h-3.227a.185.185 0 0 1-.127-.05l-.007-.007a.184.184 0 0 1-.052-.129V8.69z"/>
            </g>
        </g>
        <g mask="url(#b)">
            <g transform="translate(55 117)">
                <path stroke="#111" stroke-width="1.5" d="M.84 89.639h66.276L64.38 65.564a12.21 12.21 0 0 0-8.068-10.135c-7.403-2.613-14.8-3.918-22.195-3.918-7.426 0-14.905 1.316-22.441 3.95a12.21 12.21 0 0 0-8.103 10.147L.84 89.64z"/>
                <path fill="#FFF" stroke="#111" stroke-width="1.5" d="M40.186 47.544v4.516c-2.174 1.387-4.243 2.081-6.208 2.081-1.965 0-3.925-.694-5.88-2.08v-4.383c-5.329-2.128-9.442-7.068-10.881-13.2-.18.027-.366.042-.555.042-1.984 0-3.593-1.6-3.593-3.573 0-1.973 1.609-3.573 3.593-3.573.04 0 .08 0 .12.002 1.016-9.514 8.327-16.893 17.196-16.893 8.869 0 16.18 7.38 17.195 16.893l.12-.002c1.986 0 3.595 1.6 3.595 3.573 0 1.973-1.61 3.573-3.594 3.573-.189 0-.374-.015-.555-.042-1.409 6.006-5.384 10.868-10.553 13.066z"/>
                <path fill="#111" d="M17.564 31.456s-4.598-1.284-4.834-9.343c0 0-.472-19.736 12.616-16.35 0 0 5.02-10.743 19.64-2.569 0 0 14.974 7.241 5.66 25.926-.315 0-.315-1.297-1.677-2.681-1.172-1.191-2.723-1.937-4.37-2.26-4.45-.87-17.51-3.774-18.461-7.715 0 0-9.635 10.788-8.574 14.992z"/>
                <ellipse cx="28.437" cy="29.416" fill="#111" rx="1.5" ry="1.491"/>
                <ellipse cx="40.232" cy="29.416" fill="#111" rx="1.5" ry="1.491"/>
                <path stroke="#111" stroke-linecap="round" stroke-width="1.2" d="M39.568 37.102c-.85 1.446-2.84 2.46-5.16 2.46-2.157 0-4.028-.876-4.964-2.161"/>
            </g>
        </g>
    </g>
</svg>
