<svg xmlns="http://www.w3.org/2000/svg" width="80" height="80" viewBox="0 0 80 80">
    <g fill="none" fill-rule="evenodd">
        <path d="M0 0h80v80H0z" opacity=".3"/>
        <path fill="#FFF" stroke="#262424" stroke-width="2" d="M70.442 62.926h-61a3 3 0 0 1-3-3V21.259a3 3 0 0 1 3-3h61a3 3 0 0 1 3 3v38.667a3 3 0 0 1-3 3z"/>
        <path fill="#262424" d="M7.09 29h66v-2h-66z"/>
        <path stroke="#262424" stroke-linecap="round" stroke-width="2" d="M31.008 38.194H64.23M15.212 46.894H64.23M15.212 55.595H64.23"/>
        <path stroke="#262424" stroke-linejoin="round" stroke-width="2" d="M15.417 42.169h8v-8h-8z"/>
        <path fill="#262424" d="M14.416 23.799a1.117 1.117 0 1 0 2.234 0c0-.616-.5-1.115-1.117-1.115s-1.117.499-1.117 1.115zM18.884 23.799a1.117 1.117 0 0 0 2.232 0c0-.616-.5-1.115-1.117-1.115s-1.115.499-1.115 1.115zM23.35 23.799a1.117 1.117 0 1 0 2.234 0c0-.616-.5-1.115-1.117-1.115s-1.117.499-1.117 1.115z"/>
    </g>
</svg>
