<svg xmlns="http://www.w3.org/2000/svg" xmlns:xlink="http://www.w3.org/1999/xlink" width="378" height="147" viewBox="0 0 378 147">
    <defs>
        <path id="a" d="M0 0h378v159H0z"/>
        <path id="c" d="M.909.114h21.355v20.721H.909z"/>
    </defs>
    <g fill="none" fill-rule="evenodd" transform="translate(0 -12)">
        <mask id="b" fill="#fff">
            <use xlink:href="#a"/>
        </mask>
        <g mask="url(#b)">
            <path fill="#945A43" d="M54.43 151.483c-.702 15.21-5.014 34.01-19.188 31.024-14.174-2.986-15.058-34.364 7.481-53.864H54.43"/>
            <path fill="#92C5EA" d="M28.134 149.733l25.41 10.695s.018.013.036.03c.446-3.004.715-6.055.85-8.975v-22.84H42.723c-7.252 6.274-12.067 13.777-14.806 21.168l.217-.078z"/>
            <path stroke="#1D100D" stroke-linecap="round" stroke-linejoin="round" stroke-width="2.5" d="M42.723 128.643c-22.539 19.5-21.655 50.878-7.48 53.864 14.173 2.987 18.485-15.814 19.187-31.024M53.544 160.427l-25.41-10.693"/>
            <path fill="#92C5EA" d="M25.468 160.519l26 5.913c1.451.336 2.96-.365 3.367-1.564l.941-5.232c.111-1.343-.328-2.483-1.89-3.225l-24.5-8.094c-1.45-.336-2.96.365-3.368 1.565l-2.439 7.857c-.408 1.2.438 2.444 1.89 2.78"/>
            <path stroke="#1D100D" stroke-linecap="round" stroke-linejoin="round" stroke-width="2.5" d="M25.468 160.519l26 5.913c1.451.336 2.96-.365 3.367-1.564l.941-5.233c.111-1.342-.328-2.482-1.89-3.224l-24.5-8.094c-1.45-.336-2.96.365-3.368 1.564l-2.439 7.858c-.408 1.199.438 2.444 1.89 2.78z"/>
            <path fill="#92C5EA" d="M97.576 159.765s14.103-5.98 30.616-14.528c14.408-7.457 17.164-16.858 12.238-25.439-6.473-11.28-26.364-4.557-42.859 5.692"/>
            <path fill="#945A43" d="M112.805 117.644l.15.162 11.72 29.231a550.19 550.19 0 0 0 3.519-1.8c14.408-7.457 17.164-16.858 12.238-25.439-4.542-7.913-15.687-6.962-27.627-2.154"/>
            <path stroke="#1D100D" stroke-linecap="round" stroke-linejoin="round" stroke-width="2.5" d="M97.576 159.765s14.103-5.98 30.616-14.528c14.408-7.457 17.164-16.858 12.238-25.439-6.473-11.28-26.364-4.557-42.859 5.692"/>
            <path fill="#92C5EA" d="M112.956 117.806l11.896 29.669c.614 1.666.155 3.06-1.52 3.855-1.28.607-5.837 2.787-7.133 3.029-1.297.24-2.389-.103-3.479-2.101-.96-1.765-11.565-27.867-11.565-27.867-.533-1.593-.436-3.058 1.196-3.906 1.63-.85 5.061-2.568 6.492-3.292 1.43-.724 3.462-.912 4.113.613"/>
            <path stroke="#1D100D" stroke-linecap="round" stroke-linejoin="round" stroke-width="2.5" d="M112.956 117.806l11.896 29.669c.614 1.666.155 3.06-1.52 3.855-1.28.607-5.837 2.787-7.133 3.028-1.297.242-2.389-.102-3.479-2.101-.96-1.764-11.565-27.866-11.565-27.866-.533-1.593-.436-3.058 1.196-3.906 1.63-.85 5.061-2.568 6.492-3.292 1.43-.724 3.462-.912 4.113.613z"/>
            <path fill="#FEFEFE" d="M151.96 132.025l-18.858-3.812a4.586 4.586 0 0 1-3.588-5.405l6.45-31.918a4.587 4.587 0 0 1 5.404-3.588l18.86 3.812a4.588 4.588 0 0 1 3.588 5.406l-6.45 31.917a4.587 4.587 0 0 1-5.405 3.588"/>
            <path fill="#19AD5E" d="M152.403 124.835l-16.918-3.42a2.052 2.052 0 0 1-1.604-2.416l5.403-26.735a2.049 2.049 0 0 1 2.416-1.604l16.92 3.419a2.05 2.05 0 0 1 1.602 2.417l-5.402 26.735a2.053 2.053 0 0 1-2.417 1.604"/>
            <path stroke="#1D100D" stroke-linecap="round" stroke-linejoin="round" stroke-width="2.5" d="M151.96 132.025l-18.858-3.812a4.586 4.586 0 0 1-3.588-5.405l6.45-31.918a4.587 4.587 0 0 1 5.404-3.588l18.86 3.812a4.588 4.588 0 0 1 3.588 5.406l-6.45 31.917a4.587 4.587 0 0 1-5.405 3.588z"/>
            <path fill="#C7C6C4" d="M144.867 126.387a1.548 1.548 0 1 1-3.034-.612 1.548 1.548 0 0 1 3.034.612"/>
            <g transform="translate(138 90.504)">
                <mask id="d" fill="#fff">
                    <use xlink:href="#c"/>
                </mask>
                <path fill="#FEFEFE" fill-opacity=".2" d="M19.224 20.835l3-14.844a2.05 2.05 0 0 0-1.604-2.417L3.702.155A2.048 2.048 0 0 0 1.285 1.76L.909 3.617l18.315 17.218z" mask="url(#d)"/>
            </g>
            <path fill="#FEFEFE" d="M152.44 112.907l-12.355-2.495a.494.494 0 0 1-.387-.582l1.492-7.39a.493.493 0 0 1 .583-.385l12.353 2.495a.493.493 0 0 1 .386.582l-1.49 7.388a.494.494 0 0 1-.582.387"/>
            <path fill="#19AD5E" d="M144.55 106.007c.058-.28-.1-.537-.368-.59l-.58-.118-.2.993.579.117c.269.055.51-.12.57-.402m.883.178a1.356 1.356 0 0 1-1.62 1.052l-.58-.117-.22 1.084a.131.131 0 0 1-.155.104l-.623-.126a.13.13 0 0 1-.104-.156l.728-3.604a.131.131 0 0 1 .156-.103l1.333.27a1.354 1.354 0 0 1 1.085 1.596M147.651 107.84c.083-.414-.142-.729-.52-.806-.382-.077-.71.126-.794.54-.083.414.14.73.521.807.381.077.71-.127.793-.54m1.093-1.146l-.53 2.624c-.007.038-.044.062-.084.054l-.69-.139a.074.074 0 0 1-.056-.082l.04-.192c-.224.173-.52.246-.89.171-.724-.146-1.193-.9-1.027-1.724.167-.822.892-1.337 1.616-1.19.37.074.614.256.754.502l.04-.19c.005-.039.043-.063.081-.056l.691.14a.07.07 0 0 1 .055.082M151.499 107.256l-.959 1.472-.334-1.734a.116.116 0 0 0-.092-.092l-.704-.143a.069.069 0 0 0-.082.082l.557 2.894-.604.925a.07.07 0 0 0 .045.107l.704.142c.048.01.096-.01.121-.05l2.218-3.405a.07.07 0 0 0-.046-.106l-.704-.143a.114.114 0 0 0-.12.051"/>
            <path fill="#945A43" d="M129.871 129.61c1.107-.446 4.396-2.736 3.14-6.28-1.119-3.145-4.744-2.872-6.098-2.562"/>
            <path stroke="#1D100D" stroke-linecap="round" stroke-linejoin="round" stroke-width="2.5" d="M129.871 129.61c1.107-.446 4.396-2.736 3.14-6.28-1.119-3.145-4.744-2.872-6.098-2.562"/>
            <path fill="#92C5EA" d="M102.163 147.727l-6.986-25h-48.02l-6.987 25c-.582 6.578-1.007 15.918-1.092 25.617h63.858l.32-.003c-.086-9.697-.51-19.037-1.093-25.614"/>
            <path stroke="#1D100D" stroke-linecap="round" stroke-linejoin="round" stroke-width="2.5" d="M89.712 137.139c-2.656 5.703-6.816 10.21-9.573 10.21-2.757 0-8.973-7.068-8.973-7.068v-.004.004s-6.215 8.068-8.973 8.068c-2.755 0-6.917-4.507-9.572-10.21"/>
            <path fill="#92C5EA" d="M99.503 128.643H42.545"/>
            <path stroke="#1D100D" stroke-linecap="round" stroke-linejoin="round" stroke-width="2.5" d="M40.17 147.727c-1.313 14.83-1.825 43.706.551 59.057-2.969 3.873-5.08 15.47 13.2 15.47 10.648 0 17.244-2.832 17.244-11.294 0 8.462 6.597 11.294 17.245 11.294 18.281 0 16.17-11.597 13.2-15.47 2.376-15.35 1.864-44.227.552-59.057"/>
            <path fill="#003369" d="M71.187 197.065c21.28 0 33.458-1 33.458-1 .832-12.303.561-21.974 0-28.27-4.682-3.222-9.089-7.356-10.801-15.38H48.53c-1.712 8.024-6.119 12.157-10.801 15.38-.961 10.79-.525 20.496 0 28.27 0 0 12.178 1 33.458 1"/>
            <path stroke="#1D100D" stroke-linecap="round" stroke-linejoin="round" stroke-width="2.5" d="M71.187 197.065c21.28 0 33.458-1 33.458-1 .832-12.303.561-21.974 0-28.27-4.682-3.222-9.089-7.356-10.801-15.38H48.53c-1.712 8.024-6.119 12.157-10.801 15.38-.961 10.79-.525 20.496 0 28.27 0 0 12.178 1 33.458 1z"/>
            <path fill="#003369" d="M51.692 157.345a3.892 3.892 0 0 1-4.178-3.557l-2.991-37.24a3.892 3.892 0 0 1 3.557-4.18 3.891 3.891 0 0 1 4.177 3.558l2.992 37.24a3.891 3.891 0 0 1-3.557 4.179"/>
            <path stroke="#1D100D" stroke-linecap="round" stroke-linejoin="round" stroke-width="2.5" d="M51.692 157.345a3.892 3.892 0 0 1-4.178-3.557l-2.991-37.241a3.891 3.891 0 0 1 3.557-4.178 3.891 3.891 0 0 1 4.177 3.557l2.992 37.24a3.891 3.891 0 0 1-3.557 4.179z"/>
            <path fill="#003369" d="M90.64 157.345a3.892 3.892 0 0 0 4.179-3.557l2.99-37.24a3.893 3.893 0 0 0-3.557-4.18 3.89 3.89 0 0 0-4.176 3.558l-2.993 37.24a3.892 3.892 0 0 0 3.558 4.179"/>
            <path stroke="#1D100D" stroke-linecap="round" stroke-linejoin="round" stroke-width="2.5" d="M90.64 157.345a3.892 3.892 0 0 0 4.179-3.557l2.99-37.241a3.892 3.892 0 0 0-3.557-4.178 3.89 3.89 0 0 0-4.176 3.557l-2.993 37.24a3.892 3.892 0 0 0 3.558 4.179z"/>
            <path fill="#945A43" d="M104.268 39.103c.544-2.828 1.27-8.387-1.45-13.904-2.935-5.952-10.018-9.543-17.353-7.25-6.967 2.173-9.302 8.004-10.343 11.844-5.346-.179-8.74-.254-17.116.8-8.342 1.29-11.583 2.293-16.673 3.933-2.056-3.402-5.902-8.367-13.2-8.542-7.686-.184-13.508 5.211-14.692 11.741-1.1 6.055 1.13 11.195 2.429 13.766-4.027 4.777-18.345 19.671-13.705 45.3 4.685 25.881 34.63 48.985 71.189 43.717 36.668-4.937 59.153-35.42 56.544-61.618-2.587-25.919-20.445-36.303-25.63-39.787"/>
            <path fill="#71422A" d="M93.027 23.435c6.484 2.25 6.373 10.83 4.518 15.041 0 0-2.799-1.697-8.386-3.825-5.587-2.126-8.65-2.757-8.65-2.757.661-3.37 4.525-11.23 12.518-8.459M22.329 33.371c-5.614 3.951-3.143 12.167-.197 15.704 0 0 2.22-2.403 7.006-5.989 4.784-3.583 7.554-5.034 7.554-5.034-1.563-3.058-7.444-9.549-14.363-4.68"/>
            <path stroke="#1D100D" stroke-linecap="round" stroke-linejoin="round" stroke-width="2.5" d="M104.268 39.103c.544-2.828 1.27-8.387-1.45-13.904-2.935-5.952-10.018-9.543-17.353-7.25-6.967 2.173-9.302 8.004-10.343 11.844-5.346-.179-8.74-.254-17.116.8-8.342 1.29-11.583 2.293-16.673 3.933-2.056-3.402-5.902-8.367-13.2-8.542-7.686-.184-13.508 5.211-14.692 11.741-1.1 6.055 1.13 11.195 2.429 13.766-4.027 4.777-18.345 19.671-13.705 45.3 4.685 25.881 34.63 48.985 71.189 43.717 36.668-4.937 59.153-35.42 56.544-61.618-2.587-25.919-20.445-36.303-25.63-39.787z"/>
            <path fill="#FAD8BE" d="M81.559 100.142c1.202 8.563-3.871 16.355-11.332 17.403-7.461 1.05-14.486-5.043-15.69-13.605-1.205-8.563 3.87-16.355 11.333-17.404 7.46-1.048 14.485 5.043 15.689 13.606"/>
            <path stroke="#1D100D" stroke-linecap="round" stroke-linejoin="round" stroke-width="2.5" d="M68.027 101.887l5.15 4.795m-7.427 3.966l2.277-8.761-1.086-7.732"/>
            <path fill="#1D100D" d="M67.298 96.717c-2.462.346-6.035-3.58-5.869-5.374.166-1.794 2.82-2.136 4.775-2.41 1.955-.276 4.601-.679 5.255 1 .656 1.68-1.7 6.438-4.16 6.784M77.317 80.116a4.3 4.3 0 0 1-8.517 1.197 4.301 4.301 0 0 1 8.517-1.197M61.609 82.324a4.3 4.3 0 0 1-8.517 1.197 4.3 4.3 0 0 1 8.517-1.197"/>
        </g>
        <g mask="url(#b)">
            <path fill="#FFF" stroke="#262424" stroke-width="2" d="M160.352 51.288a7.014 7.014 0 0 1-2.167 1.316c-1.606.626-2.952.482-3.526-.239-.383-.48.002-1.254 1.154-2.322.6-.532.857-1.025.772-1.481-3.864-4.02-4.79-10.192-1.865-15.202 3.566-6.108 11.507-8.176 17.737-4.62 6.23 3.558 8.39 11.393 4.823 17.502-3.413 5.847-10.835 7.992-16.928 5.046z"/>
            <path fill="#F04E52" d="M165.928 37.094h.144c.552-.853 1.582-1.427 2.763-1.427 1.761 0 3.19 1.277 3.19 2.853 0 .092-.005.182-.015.27.177 1.145-1.305 3.192-4.446 6.144a2.268 2.268 0 0 1-3.13-.023c-3.115-3.012-4.598-5.065-4.448-6.159a2.59 2.59 0 0 1-.01-.232c0-1.576 1.428-2.853 3.189-2.853 1.18 0 2.212.574 2.763 1.427z"/>
        </g>
    </g>
</svg>
