<svg xmlns="http://www.w3.org/2000/svg" xmlns:xlink="http://www.w3.org/1999/xlink" width="300" height="410" viewBox="0 0 300 410">
    <defs>
        <path id="a" d="M.229.828h33.042v23.274H.23z"/>
    </defs>
    <g fill="none" fill-rule="evenodd">
        <path fill="#945A43" d="M145.186 292.209s-18.801-5.075-43.234-14.006c-21.314-7.79-24.81-21.799-19.8-33.136 6.87-15.55 32.252-11.715 56.957-.42"/>
        <path fill="#92C5EA" d="M125.745 286.344c-.006.006-.014.007-.017.011 11.835 3.797 19.457 5.854 19.457 5.854l-6.072-47.562c-1.975-.901-3.951-1.75-5.924-2.55-6.097 10.664-9.955 28.098-9.711 43.468l2.267.78z"/>
        <path stroke="#1D100D" stroke-linecap="round" stroke-linejoin="round" stroke-width="3.5" d="M145.186 292.209s-18.801-5.075-43.234-14.006c-21.314-7.79-24.81-21.799-19.8-33.136 6.87-15.55 32.252-11.715 56.957-.42"/>
        <path fill="#FEFEFE" d="M86.96 254.593l-26.552 4.514c-3.497.592-6.812-1.757-7.398-5.251l-7.572-44.909a6.433 6.433 0 0 1 5.268-7.403l26.55-4.513c3.497-.593 6.81 1.757 7.398 5.25l7.57 44.909c.59 3.494-1.768 6.808-5.265 7.403"/>
        <path fill="#19AD5E" d="M83.935 244.986l-23.82 4.049a2.873 2.873 0 0 1-3.31-2.35l-6.34-37.615a2.88 2.88 0 0 1 2.356-3.312l23.816-4.048a2.866 2.866 0 0 1 3.309 2.348l6.342 37.618a2.877 2.877 0 0 1-2.353 3.31"/>
        <path stroke="#1D100D" stroke-linecap="round" stroke-linejoin="round" stroke-width="3.5" d="M86.96 254.593l-26.552 4.514c-3.497.592-6.812-1.757-7.398-5.251l-7.572-44.909a6.433 6.433 0 0 1 5.268-7.403l26.55-4.513c3.497-.593 6.81 1.756 7.398 5.25l7.57 44.909c.59 3.494-1.768 6.808-5.265 7.403z"/>
        <path fill="#C7C6C4" d="M74.865 250.802a2.17 2.17 0 0 1-1.778 2.498 2.167 2.167 0 0 1-2.498-1.77 2.175 2.175 0 0 1 1.779-2.5c1.18-.2 2.297.592 2.497 1.772"/>
        <g transform="translate(50.196 200.842)">
            <mask id="b" fill="#fff">
                <use xlink:href="#a"/>
            </mask>
            <path fill="#FEFEFE" fill-opacity=".2" d="M29.75 3.216A2.863 2.863 0 0 0 26.444.868L2.624 4.916A2.876 2.876 0 0 0 .268 8.228l.44 2.612 32.563 13.262L29.75 3.216z" mask="url(#b)"/>
        </g>
        <path fill="#FEFEFE" d="M78.001 229.396l-17.392 2.96a.693.693 0 0 1-.798-.566l-1.754-10.396a.693.693 0 0 1 .568-.796l17.393-2.958a.69.69 0 0 1 .797.565l1.751 10.395a.688.688 0 0 1-.565.796"/>
        <path fill="#19AD5E" d="M64.237 224.36c-.068-.395-.398-.653-.782-.587l-.814.14.235 1.398.817-.14c.38-.065.61-.416.544-.812m1.244-.21c.175 1.033-.516 2.004-1.59 2.187l-.818.14.26 1.526a.192.192 0 0 1-.153.213l-.88.148a.186.186 0 0 1-.213-.151l-.854-5.07a.186.186 0 0 1 .152-.214l1.877-.32c1.07-.182 2.044.506 2.219 1.541M69.207 225.191c-.098-.582-.55-.88-1.084-.787-.536.088-.868.522-.765 1.104.097.583.545.88 1.08.789.54-.09.864-.522.769-1.106m.852-2.042l.623 3.692a.098.098 0 0 1-.08.112l-.971.163a.094.094 0 0 1-.112-.08l-.048-.267c-.204.338-.557.582-1.076.67-1.022.173-2.011-.577-2.204-1.734-.194-1.157.491-2.192 1.51-2.366.522-.09.932.024 1.239.276l-.048-.267a.1.1 0 0 1 .083-.112l.972-.168c.051-.007.105.026.112.08M73.941 222.493l-.516 2.406-1.306-2.097a.158.158 0 0 0-.164-.075l-.992.17a.1.1 0 0 0-.068.149l2.18 3.497-.326 1.511a.1.1 0 0 0 .114.116l.991-.168a.163.163 0 0 0 .13-.127l1.192-5.56a.096.096 0 0 0-.112-.117l-.991.17a.16.16 0 0 0-.132.125"/>
        <path fill="#945A43" d="M94.625 257.566c-1.617-.423-6.587-3.015-5.47-8.156.992-4.567 6.069-4.828 8.005-4.64"/>
        <path stroke="#1D100D" stroke-linecap="round" stroke-linejoin="round" stroke-width="3.5" d="M94.625 257.566c-1.617-.423-6.587-3.015-5.47-8.156.992-4.567 6.069-4.828 8.005-4.64"/>
        <path fill="#92C5EA" d="M133.411 241.695c-6.229 10.626-10.179 28.312-9.937 43.87l2.269.779c-1.17 1.556-12.609-2.087-14.303-2.964-.92-.479-2.5-1.222-2.49-2.581.075-12.969 5.11-36.446 10.326-43.788"/>
        <path stroke="#1D100D" stroke-linecap="round" stroke-linejoin="round" stroke-width="3.5" d="M119.276 237.012c-5.218 7.341-10.248 30.816-10.327 43.787-.009 1.358 1.568 2.103 2.49 2.581 1.692.876 13.134 4.519 14.303 2.966M123.477 285.567c-.246-15.56 3.704-33.247 9.935-43.87"/>
        <path fill="#945A43" d="M134.643 300.4l-17.217 8.59-.01.013c-4.443-1.796-9.2-1.805-12.924-.799-13.661 3.688-14.003 21.113-12.38 28.652a33.92 33.92 0 0 0 2.36 7.079c2.15 4.758 5.873 9.184 10.62 11.473 5.02 2.405 11.803 3.078 20.98.18 0 0 1.927-.74 5.068-2.021l.244-.161c.197.434.42.866.645 1.314.126.265.278.533.43.797.045.1.115.211.171.31 2.027 3.537 5.02 6.95 9.37 9.05 0 0 .016.013.027 0 4.998 2.407 11.778 3.078 20.955.182 0 0 17.973-6.897 33.586-15.052 2.854-1.485 16.908-9.025 21.638-19.07 2.607-5.521 3.743-13.978 4.199-21.682"/>
        <path fill="#92C5EA" d="M222.405 309.255c.574-9.667.083-18.145.083-18.145l-8.344-40.116-66.748-1.587-12.122 23.908c-1.287 15.207-.63 27.084-.63 27.084"/>
        <path fill="#161118" d="M192.222 341.984c-5.452-6.94-9.35-21.712-25.53-27.254-14.504-4.97-29.984-7.945-41.636-9.558l-7.63 3.832c-.003.003 3.593 1.26 6.844 4.521 3.23 3.242 5.595 7.57 7.195 12.076v.006c1.974-3.457 4.738-6.53 9.94-7.935 5.805-1.566 13.87-.605 19.872 5.398 6.581 6.584 8.513 13.523 9.496 19.272 2.197 12.85-4.333 21.788-12.383 23.914 1.458-.3 2.988-.692 4.592-1.197 0 0 17.973-6.897 33.583-15.053.272-.139 2.855-1.64 3.307-1.882-1.912-1.14-5.423-3.304-7.65-6.14"/>
        <path fill="#71422A" d="M115.53 334.473c-1.141-11.399-6.27-19.043-14.11-18.419-5.352.43-9.17 6.631-9.978 14.331.03 2.486.295 4.741.67 6.47a33.901 33.901 0 0 0 2.36 7.08c2.15 4.757 5.875 9.184 10.62 11.474.335.16.685.313 1.04.458 6.114-.95 10.33-12.126 9.398-21.394M153.92 343.375c1.341 11.052-2.896 20.733-9.471 21.613-.209.028-1.118.1-2.419-.112-.016.014-.029 0-.029 0-4.35-2.099-7.344-5.51-9.372-9.05-.057-.098-.126-.21-.169-.308a41.344 41.344 0 0 1-.43-.799c-.857-2.237-1.625-5.484-1.947-8.142-1.341-11.051 2.896-20.718 9.47-21.598 6.588-.883 13.009 7.357 14.367 18.396"/>
        <path stroke="#1D100D" stroke-linecap="round" stroke-linejoin="round" stroke-width="3.5" d="M165 314.16l-9.066 4.252M158.307 366.28c8.098-2.087 14.662-10.997 12.458-23.894-.98-5.745-2.964-12.733-9.496-19.266-6-6.006-14.06-7.013-19.864-5.448-13.666 3.69-14.008 21.113-12.384 28.654a33.9 33.9 0 0 0 2.363 7.08c.197.433.42.866.645 1.313.126.266.278.533.43.8.045.097.117.209.171.307 2.027 3.54 5.02 6.951 9.37 9.05 0 0 .017.014.027 0 4.998 2.407 11.778 3.079 20.955.183 0 0 13.764-5.278 27.658-12.066a237.186 237.186 0 0 0 5.93-2.987c.272-.141 2.84-1.63 3.302-1.883"/>
        <path stroke="#1D100D" stroke-linecap="round" stroke-linejoin="round" stroke-width="3.5" d="M131.14 353.57c-3.141 1.281-5.067 2.018-5.067 2.018-9.177 2.898-15.96 2.225-20.982-.183-4.746-2.286-8.47-6.712-10.62-11.47a33.872 33.872 0 0 1-2.359-7.076c-1.623-7.542-1.281-24.969 12.38-28.656 5.81-1.567 13.784-.692 19.778 5.324 3.291 3.306 5.595 7.546 7.195 12.052"/>
        <path fill="#003369" d="M125.06 305.171c11.648 1.496 29.614 5.16 40.957 9.305 18.301 6.688 20.67 21.35 26.206 27.508 5.968 6.645 11.394 7.599 11.394 7.599s14.493-11.304 16.578-24.67c0 0 .752-3.39 1-4.9.577-3.504.932-7.212 1.142-10.758v-.043c-2.623-.126-6.464-.831-9.379-2.29-6.076-3.04-12.425-6.987-14.48-18.442l-63.655-8.593-.07-.012c-.582 11.493-.178 20.525-.178 20.525l-16.539 8.293"/>
        <path stroke="#1D100D" stroke-linecap="round" stroke-linejoin="round" stroke-width="3.5" d="M125.06 305.171c11.648 1.496 29.614 5.16 40.957 9.305 18.301 6.688 20.67 21.35 26.206 27.508 5.968 6.645 11.394 7.599 11.394 7.599s14.493-11.304 16.578-24.67c0 0 .752-3.39 1-4.9.577-3.504.932-7.212 1.142-10.758v-.043c-2.623-.126-6.464-.831-9.379-2.29-6.076-3.04-12.425-6.987-14.48-18.442l-63.655-8.593-.07-.012c-.582 11.493-.178 20.525-.178 20.525l-16.539 8.293"/>
        <path fill="#945A43" d="M198.842 290.261c2.803 6.504 5.03 13.237 6.802 20.09 1.728 6.711 3.975 13.053 10 17.335 7.215 5.14 18.121 2.569 23.765-3.689.186-.207.382-.442.568-.663 7.033-8.546 6.051-19.626 4.047-29.924-3.248-16.625-12.876-31.049-24.627-42.873"/>
        <path fill="#92C5EA" d="M201.522 292.394c7.718-4.957 35.276-11.549 36.91-11.836.192-.035 1.353-.345 1.545-.334-4.666-11.16-12.056-21.109-20.58-29.685l-20.555 39.723c.475 1.106.912 2.23 1.358 3.35.305-.488.768-.862 1.322-1.218"/>
        <path stroke="#1D100D" stroke-linecap="round" stroke-linejoin="round" stroke-width="3.5" d="M198.842 290.261c2.803 6.504 5.03 13.237 6.802 20.09 1.728 6.711 3.975 13.053 10 17.335 7.215 5.14 18.121 2.569 23.765-3.689.186-.207.382-.442.568-.663 7.033-8.546 6.051-19.626 4.047-29.924-3.248-16.625-12.876-31.049-24.627-42.873"/>
        <path fill="#92C5EA" d="M203.683 303.434c4.351-1.075 27.44-9.29 39.4-11.564 1.413-.269 1.402-1.613 1.024-2.88-.789-2.667-2.056-6.605-2.77-8.185-.415-.919-1.581-1.287-3.237-1.22-8.278.33-27.248 6.963-36.578 12.808-.958.6-1.563.821-1.563 2.315 0 1.008.65 3.999 1.172 5.476.431 1.223 1.46 3.518 2.552 3.25"/>
        <path stroke="#1D100D" stroke-linecap="round" stroke-linejoin="round" stroke-width="3.5" d="M203.683 303.434c4.351-1.075 27.44-9.29 39.4-11.564 1.413-.269 1.402-1.613 1.024-2.88-.789-2.667-2.056-6.605-2.77-8.185-.415-.919-1.581-1.287-3.237-1.22-8.278.33-27.248 6.963-36.578 12.808-.958.6-1.563.821-1.563 2.315 0 1.008.65 3.999 1.172 5.476.431 1.223 1.46 3.518 2.552 3.25zM168.509 267.925v.007s5.68 12.285 10.169 12.26c3.756-.022 11.3-5.33 15.058-12.982"/>
        <path stroke="#1D100D" stroke-linecap="round" stroke-linejoin="round" stroke-width="3.5" d="M147.27 261.523c-.126 6.364 4.959 15.388 8.702 15.726 3.74.337 12.537-9.318 12.537-9.318"/>
        <path fill="#003369" d="M212.59 249.992c-15.055-.333-22.25 16.91-25.036 36.652-.476 3.362 1.17 5.967 4.045 6.822 2.877.854 6.019-1.5 6.47-4.134 3.31-19.334 11.345-33.998 25.197-34.1"/>
        <path stroke="#1D100D" stroke-linecap="round" stroke-linejoin="round" stroke-width="3.5" d="M212.59 249.992c-15.055-.333-22.25 16.91-25.036 36.652-.476 3.362 1.17 5.967 4.045 6.822 2.877.854 6.019-1.5 6.47-4.134 3.31-19.334 11.345-33.998 25.197-34.1"/>
        <path fill="#003369" d="M156.168 240.96c-13.804 5.715-21.55 19.886-21.334 39.834.035 3.392 2.058 5.72 5.03 6.132 2.973.41 5.724-2.394 5.773-5.066.362-19.62 9.176-30.973 21.874-37.331"/>
        <path stroke="#1D100D" stroke-linecap="round" stroke-linejoin="round" stroke-width="3.5" d="M156.168 240.96c-13.804 5.715-21.55 19.886-21.334 39.834.035 3.392 2.058 5.72 5.03 6.132 2.973.41 5.724-2.394 5.773-5.066.362-19.62 9.176-30.973 21.874-37.331"/>
        <path fill="#945A43" d="M250.493 143.36c1.719-3.643 4.634-10.926 2.86-19.346-1.91-9.085-10.261-16.409-20.998-15.849-10.193.529-15.384 7.62-18.127 12.463-7.183-2.098-11.752-3.378-23.467-4.857-11.753-1.147-16.493-.91-23.96-.454-1.606-5.326-5.095-13.389-14.922-16.159-10.35-2.916-20.113 2.376-23.983 10.813-3.594 7.826-2.353 15.565-1.487 19.5-7.111 5.077-31.682 20.292-34.29 56.636-2.63 36.7 29.93 78.405 81.296 83.952 51.4 6.035 92.447-27.472 98.002-63.885 5.489-36.024-15.108-56.292-20.924-62.814"/>
        <path fill="#71422A" d="M240.698 118.225c8.008 5.3 4.877 16.889.903 21.953 0 0-3.205-3.272-10.035-8.095-6.833-4.82-10.768-6.738-10.768-6.738 2.069-4.339 10.03-13.65 19.9-7.12M141.451 107.156c-8.98 3.405-8.48 15.398-5.718 21.214 0 0 3.844-2.486 11.573-5.684 7.726-3.197 11.982-4.201 11.982-4.201-1.057-4.687-6.775-15.526-17.837-11.33"/>
        <path stroke="#1D100D" stroke-linecap="round" stroke-linejoin="round" stroke-width="3.5" d="M250.493 143.36c1.719-3.643 4.634-10.926 2.86-19.346-1.91-9.085-10.261-16.409-20.998-15.849-10.193.529-15.384 7.62-18.127 12.463-7.183-2.098-11.752-3.378-23.467-4.857-11.753-1.147-16.493-.91-23.96-.454-1.606-5.326-5.095-13.389-14.922-16.159-10.35-2.916-20.113 2.376-23.983 10.813-3.594 7.826-2.353 15.565-1.487 19.5-7.111 5.077-31.682 20.292-34.29 56.636-2.63 36.7 29.93 78.405 81.296 83.952 51.4 6.035 92.447-27.472 98.002-63.885 5.489-36.024-15.108-56.292-20.924-62.814z"/>
        <path fill="#FAD8BE" d="M198.541 218.2c-1.341 12.025-10.923 20.823-21.394 19.655-10.474-1.168-17.88-11.864-16.539-23.883 1.339-12.023 10.92-20.824 21.394-19.653 10.471 1.168 17.878 11.86 16.54 23.882"/>
        <path stroke="#1D100D" stroke-linecap="round" stroke-linejoin="round" stroke-width="3.5" d="M179.6 215.87l5.314 8.286m-11.439 2.797l6.125-11.083 1.21-10.856"/>
        <path fill="#1D100D" d="M180.406 208.611c-3.456-.384-6.936-6.945-6.09-9.32.85-2.372 4.563-1.916 7.309-1.61 2.746.307 6.47.677 6.775 3.18.307 2.504-4.54 8.135-7.994 7.75M199.743 189.59a6.018 6.018 0 0 1-6.641 5.31 6.017 6.017 0 0 1-5.314-6.643 6.016 6.016 0 0 1 11.955 1.333M177.69 187.13a6.016 6.016 0 0 1-6.643 5.31 6.011 6.011 0 0 1-5.311-6.643 6.013 6.013 0 0 1 6.64-5.31 6.014 6.014 0 0 1 5.315 6.643"/>
        <g>
            <path fill="#FFF" stroke="#262424" stroke-width="2.5" d="M60.8 164.09c.69.62 1.495 1.11 2.417 1.469 1.791.698 3.293.537 3.933-.267.427-.536-.002-1.4-1.288-2.59-.668-.593-.955-1.144-.861-1.653 4.31-4.484 5.343-11.367 2.081-16.955-3.978-6.813-12.836-9.12-19.784-5.153-6.95 3.968-9.358 12.708-5.38 19.521 3.808 6.521 12.086 8.914 18.882 5.628z"/>
            <path fill="#F04E52" d="M54.578 147.592h-.156c-.595-.952-1.707-1.592-2.98-1.592-1.901 0-3.442 1.425-3.442 3.183 0 .102.005.203.015.302-.19 1.268 1.388 3.53 4.732 6.788a2.495 2.495 0 0 0 3.507-.025c3.317-3.325 4.896-5.594 4.735-6.806.007-.086.011-.172.011-.259 0-1.758-1.54-3.183-3.441-3.183-1.274 0-2.386.64-2.981 1.592z"/>
        </g>
    </g>
</svg>
