<svg xmlns="http://www.w3.org/2000/svg" xmlns:xlink="http://www.w3.org/1999/xlink" width="400" height="223" viewBox="0 0 400 223">
    <defs>
        <path id="a" d="M0 0h400v223H0z"/>
    </defs>
    <g fill="none" fill-rule="evenodd">
        <mask id="b" fill="#fff">
            <use xlink:href="#a"/>
        </mask>
        <g mask="url(#b)">
            <path fill="#945A43" d="M233.785 202.624c.952 20.7 6.805 46.287 26.04 42.223 19.24-4.064 20.44-46.77-10.151-73.308h-15.89"/>
            <path fill="#92C5EA" d="M269.474 200.242l-34.487 14.554-.05.043c-.604-4.089-.97-8.242-1.152-12.215v-31.085h15.889c9.841 8.538 16.377 18.749 20.095 28.808l-.295-.105z"/>
            <path stroke="#1D100D" stroke-linecap="round" stroke-linejoin="round" stroke-width="3.393" d="M249.674 171.539c30.59 26.539 29.39 69.243 10.152 73.307-19.236 4.066-25.089-21.522-26.041-42.223M234.987 214.796l34.487-14.553"/>
            <path fill="#92C5EA" d="M273.091 214.92l-35.285 8.048c-1.97.457-4.017-.497-4.571-2.129l-1.277-7.12c-.15-1.828.445-3.38 2.565-4.39l33.25-11.015c1.971-.457 4.018.497 4.572 2.13l3.312 10.693c.553 1.633-.595 3.326-2.566 3.784"/>
            <path stroke="#1D100D" stroke-linecap="round" stroke-linejoin="round" stroke-width="3.393" d="M273.091 214.92l-35.285 8.048c-1.97.457-4.017-.497-4.571-2.129l-1.277-7.122c-.15-1.826.445-3.377 2.565-4.387l33.25-11.016c1.971-.457 4.018.497 4.572 2.129l3.312 10.694c.553 1.632-.595 3.326-2.566 3.784z"/>
            <path fill="#92C5EA" d="M175.226 213.895s-19.14-8.14-41.554-19.772c-19.555-10.149-23.296-22.943-16.611-34.622 8.788-15.353 35.783-6.202 58.172 7.747"/>
            <path fill="#945A43" d="M154.558 156.57l-.205.22-15.907 39.783a680.418 680.418 0 0 1-4.775-2.45c-19.555-10.149-23.295-22.944-16.61-34.622 6.165-10.77 21.29-9.475 37.497-2.932"/>
            <path stroke="#1D100D" stroke-linecap="round" stroke-linejoin="round" stroke-width="3.393" d="M175.226 213.895s-19.14-8.14-41.554-19.772c-19.555-10.149-23.296-22.943-16.611-34.622 8.788-15.353 35.783-6.202 58.172 7.747"/>
            <path fill="#92C5EA" d="M154.352 156.79l-16.146 40.378c-.833 2.268-.21 4.166 2.063 5.247 1.738.826 7.923 3.793 9.682 4.122 1.759.328 3.242-.14 4.72-2.86 1.306-2.401 15.695-37.926 15.695-37.926.726-2.168.595-4.161-1.62-5.316-2.214-1.155-6.87-3.495-8.812-4.48-1.94-.985-4.698-1.241-5.582.834"/>
            <path stroke="#1D100D" stroke-linecap="round" stroke-linejoin="round" stroke-width="3.393" d="M154.352 156.79l-16.146 40.378c-.833 2.268-.21 4.166 2.063 5.247 1.738.826 7.923 3.793 9.682 4.12 1.759.33 3.242-.138 4.72-2.859 1.306-2.4 15.695-37.925 15.695-37.925.726-2.168.595-4.161-1.62-5.316-2.214-1.155-6.87-3.495-8.812-4.48-1.94-.985-4.698-1.241-5.582.834z"/>
            <path fill="#FEFEFE" d="M126.827 170.871l-25.648 5.029a6.218 6.218 0 0 1-7.302-4.928l-8.423-43.493c-.655-3.385 1.552-6.665 4.929-7.326l25.649-5.029a6.218 6.218 0 0 1 7.301 4.928l8.422 43.493c.656 3.383-1.551 6.663-4.928 7.326"/>
            <path fill="#19AD5E" d="M123.66 161.6l-23.007 4.51a2.78 2.78 0 0 1-3.264-2.202l-7.057-36.431a2.798 2.798 0 0 1 2.204-3.276l23.01-4.512a2.78 2.78 0 0 1 3.264 2.204l7.055 36.43a2.797 2.797 0 0 1-2.204 3.276"/>
            <path stroke="#1D100D" stroke-linecap="round" stroke-linejoin="round" stroke-width="3.393" d="M126.827 170.871l-25.648 5.029a6.218 6.218 0 0 1-7.302-4.928l-8.423-43.493c-.655-3.385 1.552-6.665 4.929-7.328l25.649-5.027a6.218 6.218 0 0 1 7.301 4.928l8.422 43.493c.656 3.383-1.551 6.663-4.928 7.326z"/>
            <path fill="#C7C6C4" d="M115.003 167.475a2.111 2.111 0 0 1-1.664 2.473 2.099 2.099 0 0 1-2.463-1.663 2.11 2.11 0 0 1 1.663-2.473 2.098 2.098 0 0 1 2.464 1.663"/>
            <path fill="#FEFEFE" d="M118.81 121.893a2.78 2.78 0 0 0-3.265-2.203l-23.007 4.51a2.798 2.798 0 0 0-2.205 3.277l.49 2.53 31.903 12.113-3.917-20.227z" opacity=".3"/>
            <path fill="#FEFEFE" d="M117.532 146.583l-16.8 3.296a.67.67 0 0 1-.787-.53l-1.952-10.068a.675.675 0 0 1 .532-.79l16.8-3.296a.67.67 0 0 1 .787.531l1.95 10.067a.674.674 0 0 1-.53.79"/>
            <path fill="#19AD5E" d="M104.058 142.015c-.075-.384-.402-.623-.769-.55l-.788.153.262 1.354.788-.155c.367-.07.581-.418.507-.802m1.2-.235c.195 1-.453 1.962-1.488 2.165l-.789.155.287 1.478a.18.18 0 0 1-.143.211l-.848.168a.18.18 0 0 1-.21-.143l-.952-4.91a.181.181 0 0 1 .143-.213l1.812-.355c1.035-.204 1.995.444 2.189 1.444M108.9 142.705c-.11-.565-.554-.844-1.073-.742-.517.101-.824.528-.714 1.093.109.564.553.844 1.071.742.517-.1.824-.528.715-1.093m.78-2.009l.691 3.576a.095.095 0 0 1-.074.111l-.94.184a.095.095 0 0 1-.11-.075l-.05-.26c-.194.335-.529.58-1.031.678-.984.193-1.961-.512-2.178-1.633-.219-1.12.424-2.145 1.408-2.338.504-.098.906.002 1.207.24l-.05-.26a.096.096 0 0 1 .076-.112l.939-.186c.052-.009.1.025.111.075M113.427 139.967l-.441 2.35-1.318-2.007a.157.157 0 0 0-.162-.068l-.958.187a.095.095 0 0 0-.06.146l2.195 3.35-.278 1.477a.095.095 0 0 0 .111.11l.96-.187a.158.158 0 0 0 .125-.127l1.02-5.434a.095.095 0 0 0-.11-.112l-.96.188a.16.16 0 0 0-.124.127"/>
            <path fill="#945A43" d="M131.394 172.854c-1.503-.606-5.967-3.722-4.26-8.546 1.517-4.281 6.436-3.91 8.275-3.488"/>
            <path stroke="#1D100D" stroke-linecap="round" stroke-linejoin="round" stroke-width="3.393" d="M131.394 172.854c-1.503-.606-5.967-3.722-4.26-8.546 1.517-4.281 6.436-3.91 8.275-3.488"/>
            <path fill="#92C5EA" d="M169 197.512l9.482-34.025h65.176l9.482 34.025c.79 8.952 1.366 21.664 1.482 34.864H167.95l-.431-.004c.115-13.198.692-25.91 1.482-34.86"/>
            <path stroke="#1D100D" stroke-linecap="round" stroke-linejoin="round" stroke-width="3.393" d="M185.9 183.101c3.605 7.762 9.25 13.896 12.993 13.896 3.742 0 12.177-9.62 12.177-9.62v-.005.005s8.436 10.98 12.178 10.98c3.74 0 9.388-6.133 12.993-13.895"/>
            <path fill="#92C5EA" d="M172.611 171.538h77.305"/>
            <path stroke="#1D100D" stroke-linecap="round" stroke-linejoin="round" stroke-width="3.393" d="M253.14 197.512c1.78 20.183 2.475 59.482-.75 80.375 4.03 5.27 6.897 21.054-17.915 21.054-14.452 0-23.405-3.854-23.405-15.37 0 11.516-8.953 15.37-23.405 15.37-24.811 0-21.946-15.783-17.915-21.054-3.225-20.893-2.531-60.192-.75-80.375"/>
            <path fill="#003369" d="M211.042 264.66c-28.882 0-45.41-1.361-45.41-1.361-1.128-16.745-.763-29.906 0-38.476 6.354-4.385 12.335-10.011 14.659-20.93H241.793c2.322 10.919 8.305 16.545 14.66 20.93 1.303 14.686.71 27.894 0 38.476 0 0-16.53 1.361-45.411 1.361"/>
            <path stroke="#1D100D" stroke-linecap="round" stroke-linejoin="round" stroke-width="3.393" d="M211.042 264.66c-28.882 0-45.41-1.361-45.41-1.361-1.128-16.745-.763-29.906 0-38.476 6.354-4.385 12.335-10.011 14.659-20.93H241.793c2.322 10.919 8.305 16.545 14.66 20.93 1.303 14.686.71 27.894 0 38.476 0 0-16.53 1.361-45.411 1.361z"/>
            <path fill="#003369" d="M237.501 210.601c2.887.231 5.439-1.946 5.67-4.84l4.06-50.684c.232-2.896-1.94-5.454-4.827-5.687-2.887-.232-5.439 1.947-5.67 4.84l-4.06 50.685c-.233 2.895 1.94 5.453 4.827 5.686"/>
            <path stroke="#1D100D" stroke-linecap="round" stroke-linejoin="round" stroke-width="3.393" d="M237.501 210.6c2.887.233 5.439-1.946 5.67-4.84l4.06-50.683c.232-2.895-1.94-5.455-4.827-5.686-2.887-.233-5.439 1.946-5.67 4.84l-4.06 50.683c-.233 2.896 1.94 5.455 4.827 5.686z"/>
            <path fill="#003369" d="M184.638 210.601c-2.885.231-5.437-1.946-5.67-4.84l-4.059-50.684c-.232-2.896 1.941-5.454 4.828-5.687 2.887-.232 5.439 1.947 5.67 4.84l4.06 50.685c.232 2.895-1.94 5.453-4.829 5.686"/>
            <path stroke="#1D100D" stroke-linecap="round" stroke-linejoin="round" stroke-width="3.393" d="M184.638 210.6c-2.885.233-5.437-1.946-5.67-4.84l-4.059-50.683c-.232-2.895 1.941-5.455 4.828-5.686 2.887-.233 5.439 1.946 5.67 4.84l4.06 50.683c.232 2.896-1.94 5.455-4.829 5.686z"/>
            <path fill="#945A43" d="M284.293 65.332c1.707-3.525 4.62-10.575 2.998-18.787-1.751-8.86-9.768-16.081-20.19-15.66-9.897.397-15.014 7.236-17.73 11.916-6.946-2.124-11.367-3.423-22.717-4.997-11.389-1.251-15.991-1.077-23.239-.717-1.497-5.2-4.79-13.084-14.294-15.893-10.01-2.956-19.54 2.08-23.394 10.243-3.573 7.571-2.46 15.114-1.665 18.952-6.96 4.856-30.973 19.373-33.919 54.697-2.977 35.671 28.133 76.616 77.907 82.606 49.801 6.463 90.013-25.657 95.82-61.014 5.74-34.98-14.009-54.936-19.577-61.346"/>
            <path fill="#71422A" d="M275.078 40.768c7.708 5.248 4.539 16.486.623 21.365 0 0-3.071-3.219-9.643-7.99-6.574-4.768-10.366-6.679-10.366-6.679 2.053-4.197 9.886-13.162 19.386-6.696M178.912 28.854c-8.75 3.21-8.404 14.883-5.791 20.57 0 0 3.76-2.372 11.293-5.396 7.533-3.019 11.675-3.947 11.675-3.947-.973-4.571-6.394-15.18-17.177-11.227"/>
            <path stroke="#1D100D" stroke-linecap="round" stroke-linejoin="round" stroke-width="3.393" d="M284.293 65.332c1.707-3.525 4.62-10.575 2.998-18.787-1.751-8.86-9.768-16.081-20.19-15.66-9.897.397-15.014 7.236-17.73 11.916-6.946-2.124-11.367-3.423-22.717-4.997-11.389-1.251-15.991-1.077-23.239-.717-1.497-5.2-4.79-13.084-14.294-15.893-10.01-2.956-19.54 2.08-23.394 10.243-3.573 7.571-2.46 15.114-1.665 18.952-6.96 4.856-30.973 19.373-33.919 54.697-2.977 35.671 28.133 76.616 77.907 82.606 49.801 6.463 90.013-25.657 95.82-61.014 5.74-34.98-14.009-54.936-19.577-61.346z"/>
            <path fill="#FAD8BE" d="M233.024 137.536c-1.439 11.68-10.833 20.128-20.982 18.87-10.149-1.257-17.212-11.744-15.773-23.424 1.438-11.679 10.835-20.128 20.985-18.87 10.147 1.256 17.21 11.744 15.77 23.424"/>
            <path stroke="#1D100D" stroke-linecap="round" stroke-linejoin="round" stroke-width="3.393" d="M214.675 135.05l5.06 8.122m-11.131 2.587l6.07-10.71 1.3-10.547"/>
            <path fill="#1D100D" d="M215.542 127.997c-3.35-.415-6.65-6.836-5.8-9.136.85-2.3 4.448-1.811 7.108-1.482 2.66.33 6.269.734 6.534 3.173.27 2.437-4.496 7.86-7.842 7.445M234.52 109.717c-.395 3.206-3.309 5.485-6.505 5.09-3.199-.397-5.472-3.319-5.077-6.525a5.836 5.836 0 0 1 6.508-5.088c3.196.396 5.47 3.316 5.074 6.523M213.153 107.07a5.84 5.84 0 0 1-6.51 5.089c-3.197-.396-5.469-3.318-5.074-6.524.396-3.207 3.306-5.486 6.507-5.088 3.199.396 5.472 3.315 5.077 6.523"/>
        </g>
    </g>
</svg>
