<svg xmlns="http://www.w3.org/2000/svg" xmlns:xlink="http://www.w3.org/1999/xlink" width="300" height="401" viewBox="0 0 300 401">
    <defs>
        <path id="a" d="M1.248.005h33.437v23.127H1.248z"/>
    </defs>
    <g fill="none" fill-rule="evenodd">
        <path fill="#945A43" d="M188.34 272.86c.98 21.294 7.013 47.614 26.837 43.433 19.827-4.18 21.064-48.11-10.462-75.41h-16.376"/>
        <path fill="#92C5EA" d="M225.121 270.41l-35.543 14.971s-.026.02-.051.044c-.624-4.206-1-8.479-1.188-12.565v-31.976h16.374c10.142 8.782 16.88 19.286 20.712 29.634l-.304-.108z"/>
        <path stroke="#1D100D" stroke-linecap="round" stroke-linejoin="round" stroke-width="3.5" d="M204.715 240.883c31.527 27.3 30.289 71.23 10.461 75.41-19.823 4.182-25.855-22.14-26.837-43.434M189.578 285.381l35.542-14.97"/>
        <path fill="#92C5EA" d="M228.849 285.509l-36.365 8.278c-2.031.47-4.14-.511-4.711-2.19l-1.318-7.324c-.154-1.88.46-3.477 2.645-4.515l34.269-11.332c2.03-.47 4.14.511 4.71 2.191l3.414 11c.57 1.68-.614 3.421-2.644 3.892"/>
        <path stroke="#1D100D" stroke-linecap="round" stroke-linejoin="round" stroke-width="3.5" d="M228.849 285.509l-36.365 8.278c-2.031.47-4.14-.511-4.711-2.19l-1.318-7.326c-.154-1.879.46-3.475 2.645-4.513l34.269-11.332c2.03-.47 4.14.511 4.71 2.19l3.414 11c.57 1.68-.614 3.422-2.644 3.893z"/>
        <path fill="#92C5EA" d="M127.988 284.454s-19.728-8.373-42.826-20.34c-20.153-10.439-24.008-23.6-17.12-35.614 9.056-15.793 36.88-6.38 59.953 7.97"/>
        <path fill="#945A43" d="M106.687 225.485l-.211.226-16.394 40.924c-1.62-.822-3.259-1.66-4.922-2.52-20.154-10.44-24.009-23.601-17.117-35.615 6.353-11.078 21.941-9.747 38.644-3.015"/>
        <path stroke="#1D100D" stroke-linecap="round" stroke-linejoin="round" stroke-width="3.5" d="M127.988 284.454s-19.728-8.373-42.826-20.34c-20.153-10.439-24.008-23.6-17.12-35.614 9.056-15.793 36.88-6.38 59.953 7.97"/>
        <path fill="#92C5EA" d="M106.475 225.71l-16.64 41.538c-.858 2.332-.216 4.285 2.127 5.397 1.789.85 8.164 3.901 9.977 4.24 1.813.338 3.342-.144 4.864-2.941 1.345-2.471 16.176-39.014 16.176-39.014.749-2.23.612-4.281-1.671-5.468-2.28-1.19-7.078-3.596-9.08-4.61-2-1.013-4.843-1.276-5.753.859"/>
        <path stroke="#1D100D" stroke-linecap="round" stroke-linejoin="round" stroke-width="3.5" d="M106.475 225.71l-16.64 41.538c-.858 2.332-.216 4.285 2.127 5.397 1.789.85 8.164 3.901 9.977 4.239 1.813.339 3.342-.143 4.864-2.942 1.345-2.47 16.176-39.012 16.176-39.012.749-2.23.612-4.281-1.671-5.468-2.28-1.19-7.078-3.596-9.08-4.61-2-1.013-4.843-1.276-5.753.859z"/>
        <path fill="#FEFEFE" d="M78.108 240.196l-26.433 5.173a6.407 6.407 0 0 1-7.525-5.07l-8.68-44.739a6.432 6.432 0 0 1 5.077-7.536l26.435-5.173a6.409 6.409 0 0 1 7.526 5.07l8.679 44.739a6.436 6.436 0 0 1-5.08 7.536"/>
        <path fill="#19AD5E" d="M74.845 230.659l-23.712 4.64a2.864 2.864 0 0 1-3.364-2.266l-7.274-37.475a2.88 2.88 0 0 1 2.272-3.37l23.714-4.64a2.864 2.864 0 0 1 3.364 2.266l7.271 37.475a2.879 2.879 0 0 1-2.271 3.37"/>
        <path stroke="#1D100D" stroke-linecap="round" stroke-linejoin="round" stroke-width="3.5" d="M78.108 240.196l-26.433 5.173a6.407 6.407 0 0 1-7.525-5.07l-8.68-44.739a6.434 6.434 0 0 1 5.077-7.538l26.435-5.171a6.409 6.409 0 0 1 7.526 5.07l8.679 44.739a6.436 6.436 0 0 1-5.08 7.536z"/>
        <path fill="#C7C6C4" d="M65.922 236.703a2.173 2.173 0 0 1-1.716 2.544 2.162 2.162 0 0 1-2.538-1.711 2.171 2.171 0 0 1 1.715-2.544 2.163 2.163 0 0 1 2.539 1.711"/>
        <g transform="translate(39.196 187.488)">
            <mask id="b" fill="#fff">
                <use xlink:href="#a"/>
            </mask>
            <path fill="#FEFEFE" fill-opacity=".2" d="M30.649 2.326A2.864 2.864 0 0 0 27.285.059L3.573 4.699A2.877 2.877 0 0 0 1.3 8.069l.505 2.603 32.88 12.46-4.037-20.806z" mask="url(#b)"/>
        </g>
        <path fill="#FEFEFE" d="M68.528 215.211l-17.315 3.391a.69.69 0 0 1-.81-.546L48.39 207.7a.695.695 0 0 1 .549-.812l17.314-3.39a.69.69 0 0 1 .81.546l2.011 10.355a.694.694 0 0 1-.547.812"/>
        <path fill="#19AD5E" d="M54.642 210.513c-.079-.395-.414-.641-.792-.567l-.813.158.27 1.393.813-.16c.376-.072.599-.429.522-.824m1.237-.242c.2 1.029-.467 2.019-1.534 2.227l-.813.16.295 1.52c.02.101-.046.198-.146.217l-.875.173a.187.187 0 0 1-.218-.147l-.979-5.052a.184.184 0 0 1 .147-.218l1.866-.365c1.069-.21 2.056.456 2.257 1.485M59.632 211.223c-.114-.581-.571-.868-1.105-.763-.533.103-.85.543-.736 1.124.112.58.57.868 1.103.763.533-.104.85-.543.738-1.124m.801-2.067l.715 3.678a.098.098 0 0 1-.079.115l-.966.189a.098.098 0 0 1-.115-.077l-.052-.267c-.2.344-.544.596-1.061.697-1.016.199-2.021-.527-2.245-1.68-.227-1.152.438-2.207 1.452-2.405.519-.101.933.002 1.242.246l-.052-.267a.1.1 0 0 1 .08-.115l.966-.19a.1.1 0 0 1 .115.076M64.298 208.406l-.455 2.417-1.358-2.065a.162.162 0 0 0-.167-.07l-.987.194a.098.098 0 0 0-.063.15l2.262 3.445-.286 1.52a.097.097 0 0 0 .115.114l.988-.194a.164.164 0 0 0 .13-.13l1.052-5.59a.098.098 0 0 0-.115-.115l-.988.193a.164.164 0 0 0-.128.13"/>
        <path fill="#945A43" d="M82.815 242.236c-1.55-.623-6.15-3.829-4.392-8.79 1.565-4.405 6.634-4.023 8.53-3.589"/>
        <path stroke="#1D100D" stroke-linecap="round" stroke-linejoin="round" stroke-width="3.5" d="M82.815 242.236c-1.55-.623-6.15-3.829-4.392-8.79 1.565-4.405 6.634-4.023 8.53-3.589"/>
        <path fill="#945A43" d="M120.047 303.465h89.766c.147 17.034-.45 34.856-2.301 46.814 4.156 5.424 7.108 21.66-18.461 21.66-14.894 0-24.122-3.965-24.122-15.812 0 11.847-9.228 15.812-24.12 15.812-25.571 0-22.619-16.236-18.464-21.66-1.852-11.958-2.447-29.78-2.298-46.814"/>
        <path fill="#161118" d="M207.515 350.28h-.002c-10.998 4.552-32.408 4.062-42.559 0l-.033-.017c-10.15 4.062-31.56 4.55-42.558 0l-.024-.004c-1.845-11.96-2.445-29.772-2.294-46.798l89.77.005c.148 17.033-.452 34.855-2.302 46.814h.002z"/>
        <path fill="#92C5EA" d="M121.572 267.6l9.77-35h67.173l9.77 35c.814 9.21 1.41 22.286 1.529 35.865H120.49l-.447-.005c.12-13.575.715-26.651 1.53-35.86"/>
        <path stroke="#1D100D" stroke-linecap="round" stroke-linejoin="round" stroke-width="3.5" d="M138.989 252.777c3.713 7.984 9.532 14.294 13.389 14.294 3.858 0 12.55-9.895 12.55-9.895v-.006.006s8.696 11.295 12.552 11.295c3.854 0 9.675-6.31 13.39-14.294"/>
        <path fill="#92C5EA" d="M125.293 240.883h79.672"/>
        <path stroke="#1D100D" stroke-linecap="round" stroke-linejoin="round" stroke-width="3.5" d="M208.287 267.6c1.835 20.763 2.55 61.19-.775 82.68 4.156 5.423 7.108 21.659-18.461 21.659-14.894 0-24.122-3.965-24.122-15.812 0 11.847-9.228 15.812-24.12 15.812-25.571 0-22.619-16.236-18.464-21.658-3.324-21.492-2.61-61.918-.772-82.68M164.929 319.843v36.284"/>
        <path stroke="#1D100D" stroke-linecap="round" stroke-linejoin="round" stroke-width="3.5" d="M122.363 350.263c10.996 4.55 32.408 4.061 42.558 0l.033.017c10.151 4.063 31.56 4.551 42.56 0M209.105 303.465h-88.618"/>
        <path fill="#003369" d="M164.9 336.674c-29.766 0-46.8-1.4-46.8-1.4-1.162-17.225-.788-30.763 0-39.579 6.549-4.51 12.713-10.298 15.108-21.53H196.59c2.395 11.232 8.56 17.02 15.11 21.53 1.345 15.108.732 28.695 0 39.58 0 0-17.035 1.4-46.8 1.4"/>
        <path stroke="#1D100D" stroke-linecap="round" stroke-linejoin="round" stroke-width="3.5" d="M164.9 336.674c-29.766 0-46.8-1.4-46.8-1.4-1.162-17.225-.788-30.763 0-39.579 6.549-4.51 12.713-10.298 15.108-21.53H196.59c2.395 11.232 8.56 17.02 15.11 21.53 1.345 15.108.732 28.695 0 39.58 0 0-17.035 1.4-46.8 1.4z"/>
        <path fill="#003369" d="M192.17 281.066c2.975.238 5.604-2.002 5.843-4.98l4.184-52.136c.24-2.98-2.001-5.611-4.977-5.85-2.975-.239-5.605 2.003-5.841 4.979l-4.186 52.137c-.24 2.978 2.001 5.61 4.976 5.85"/>
        <path stroke="#1D100D" stroke-linecap="round" stroke-linejoin="round" stroke-width="3.5" d="M192.17 281.065c2.975.24 5.604-2.002 5.843-4.979l4.184-52.137c.24-2.978-2.001-5.611-4.977-5.85-2.975-.239-5.605 2.003-5.841 4.98l-4.186 52.137c-.24 2.979 2.001 5.61 4.976 5.849z"/>
        <path fill="#003369" d="M137.688 281.066c-2.974.238-5.603-2.002-5.844-4.98l-4.182-52.136c-.24-2.98 2-5.611 4.975-5.85 2.975-.239 5.605 2.003 5.842 4.979l4.186 52.137c.24 2.978-2 5.61-4.977 5.85"/>
        <path stroke="#1D100D" stroke-linecap="round" stroke-linejoin="round" stroke-width="3.5" d="M137.688 281.065c-2.974.24-5.603-2.002-5.844-4.979l-4.182-52.137c-.24-2.978 2-5.611 4.975-5.85 2.975-.239 5.605 2.003 5.842 4.98l4.186 52.137c.24 2.979-2 5.61-4.977 5.849z"/>
        <path fill="#945A43" d="M240.393 131.631c1.76-3.626 4.76-10.878 3.09-19.325-1.805-9.114-10.067-16.543-20.808-16.11-10.2.409-15.474 7.444-18.273 12.258-7.16-2.185-11.714-3.52-23.414-5.14-11.735-1.287-16.479-1.108-23.95-.738-1.54-5.35-4.934-13.458-14.73-16.348-10.316-3.04-20.14 2.14-24.11 10.536-3.682 7.789-2.535 15.547-1.715 19.495-7.173 4.996-31.922 19.93-34.957 56.266-3.07 36.694 28.992 78.813 80.29 84.975 51.326 6.648 92.769-26.393 98.753-62.764 5.914-35.982-14.437-56.51-20.176-63.105"/>
        <path fill="#71422A" d="M230.896 106.363c7.944 5.398 4.678 16.958.643 21.977 0 0-3.167-3.31-9.939-8.218-6.775-4.906-10.684-6.871-10.684-6.871 2.117-4.318 10.19-13.54 19.98-6.888M131.787 94.107c-9.018 3.302-8.661 15.31-5.97 21.16 0 0 3.876-2.44 11.64-5.551 7.764-3.105 12.032-4.06 12.032-4.06-1.003-4.703-6.59-15.616-17.702-11.549"/>
        <path stroke="#1D100D" stroke-linecap="round" stroke-linejoin="round" stroke-width="3.5" d="M240.393 131.631c1.76-3.626 4.76-10.878 3.09-19.325-1.805-9.114-10.067-16.543-20.808-16.11-10.2.409-15.474 7.444-18.273 12.258-7.16-2.185-11.714-3.52-23.414-5.14-11.735-1.287-16.479-1.108-23.95-.738-1.54-5.35-4.934-13.458-14.73-16.348-10.316-3.04-20.14 2.14-24.11 10.536-3.682 7.789-2.535 15.547-1.715 19.495-7.173 4.996-31.922 19.93-34.957 56.266-3.07 36.694 28.992 78.813 80.29 84.975 51.326 6.648 92.769-26.393 98.753-62.764 5.914-35.982-14.437-56.51-20.176-63.105z"/>
        <path fill="#FAD8BE" d="M187.555 205.905c-1.484 12.015-11.165 20.706-21.624 19.413-10.46-1.294-17.74-12.082-16.256-24.097 1.483-12.014 11.165-20.705 21.628-19.411 10.456 1.292 17.736 12.08 16.252 24.095"/>
        <path stroke="#1D100D" stroke-linecap="round" stroke-linejoin="round" stroke-width="3.5" d="M168.644 203.348l5.216 8.355m-11.474 2.661l6.258-11.016 1.34-10.85"/>
        <path fill="#1D100D" d="M169.538 196.094c-3.454-.427-6.853-7.033-5.977-9.399.875-2.366 4.583-1.863 7.325-1.524 2.742.339 6.461.754 6.732 3.263.28 2.508-4.631 8.087-8.08 7.66M189.097 177.29a6.015 6.015 0 0 1-6.704 5.234 6.02 6.02 0 0 1-5.233-6.712 6.012 6.012 0 0 1 6.707-5.233 6.017 6.017 0 0 1 5.23 6.71M167.076 174.566a6.017 6.017 0 0 1-6.708 5.234 6.018 6.018 0 0 1-5.23-6.71 6.011 6.011 0 0 1 6.705-5.234 6.018 6.018 0 0 1 5.233 6.71"/>
    </g>
</svg>
