<svg xmlns="http://www.w3.org/2000/svg" width="208" height="208" viewBox="0 0 208 208">
    <g fill="none" fill-rule="evenodd" stroke="#111" stroke-width="2">
        <path stroke-linecap="round" d="M152.811 164H55.19A5.182 5.182 0 0 1 50 158.825V92h108v66.825a5.182 5.182 0 0 1-5.189 5.175z"/>
        <path d="M90 164v-22.969C90 134.386 96.268 129 104 129s14 5.386 14 12.031V164"/>
        <path fill="#08BF5B" stroke-linecap="round" stroke-linejoin="round" d="M41.318 82.435l17.057-35.857c.423-.95 1.488-1.578 2.676-1.578h86.04c1.191 0 2.257.63 2.68 1.584l16.934 35.9c.115.258.177.523.184.8.056 2.12.111 6.235.111 6.235 0 7.742-7.625 13.96-16.797 13.452-8.37-.465-14.7-6.734-14.7-13.914V83.15h-.004v5.907c0 7.18-6.33 13.45-14.701 13.914-9.172.508-16.796-5.71-16.796-13.452v-6.37h-.005v6.37c0 7.445-7.05 13.481-15.748 13.481-8.697 0-15.748-6.036-15.748-13.481v-6.37h-.004v6.37c0 7.445-7.05 13.481-15.749 13.481C48.05 103 41 96.964 41 89.519l.13-6.235c.004-.29.067-.578.188-.85z"/>
        <path stroke-linecap="round" stroke-linejoin="round" d="M59 74.5h90"/>
    </g>
</svg>
