<svg xmlns="http://www.w3.org/2000/svg" width="208" height="208" viewBox="0 0 208 208">
    <g fill="none" fill-rule="evenodd" stroke-width="2">
        <g stroke="#111">
            <path d="M90.456 137l-1.47 24.957M117.92 137l1.47 24.957"/>
        </g>
        <path stroke="#111" stroke-linecap="round" stroke-linejoin="round" d="M77 162.453h56"/>
        <path fill="#FFF" stroke="#262424" stroke-linecap="round" stroke-linejoin="round" d="M160.515 145H48.485C42.72 145 38 140.284 38 134.52V55.48C38 49.715 42.72 45 48.485 45h112.03C166.282 45 171 49.715 171 55.48v79.04c0 5.764-4.718 10.48-10.485 10.48z"/>
        <g stroke="#111">
            <path fill="#08BF5B" d="M89.536 78.34h41.01l-3.909 15.64c-.766 3.063-3.478 5.208-6.587 5.208H93.16"/>
            <path stroke-linecap="round" d="M77 69h4.429a6.785 6.785 0 0 1 6.674 5.537l6.323 33.886h26.931"/>
            <path d="M102.071 113.711c0 2.92-2.374 5.289-5.304 5.289-2.929 0-5.303-2.368-5.303-5.289 0-2.92 2.374-5.288 5.303-5.288 2.93 0 5.304 2.368 5.304 5.288zM126.179 113.711c0 2.92-2.374 5.289-5.305 5.289-2.929 0-5.303-2.368-5.303-5.289 0-2.92 2.374-5.288 5.303-5.288 2.93 0 5.305 2.368 5.305 5.288z"/>
        </g>
    </g>
</svg>
