<svg xmlns="http://www.w3.org/2000/svg" width="77" height="22" viewBox="0 0 77 22">
    <g fill="none" fill-rule="evenodd" transform="translate(-27 -54)">
        <rect width="130" height="130" fill="#E3E5EC" rx="5"/>
        <path fill="#FFF" d="M37.965 75.883C31.919 75.867 27 70.96 27 64.942c0-6.017 4.92-10.926 10.965-10.941l.059-.001h54.968c6.062 0 10.993 4.908 10.993 10.942 0 6.033-4.93 10.942-10.993 10.942H38.024l-.06-.001zm8.141-6.194h1.56c.2 0 .36-.158.36-.352v-9.514a.357.357 0 0 0-.36-.352h-1.56a.357.357 0 0 0-.36.352v9.514c0 .194.162.352.36.352zm3.998 0h1.56c.2 0 .36-.158.36-.352V63.35l4.642 6.189a.357.357 0 0 0 .091.088l.071.037c.02.007.028.01.036.011.037.01.067.014.097.014h1.5c.2 0 .36-.158.36-.352v-9.514a.356.356 0 0 0-.36-.352h-1.56a.357.357 0 0 0-.36.352v5.93l-4.635-6.123a.396.396 0 0 0-.107-.103l-.096-.042-.067-.012-.019-.002h-1.513a.357.357 0 0 0-.36.352v9.514c0 .194.162.352.36.352zm-12.434 0h6.235c.198 0 .36-.159.36-.353v-1.532a.357.357 0 0 0-.36-.353H39.59v-7.628a.357.357 0 0 0-.36-.352h-1.56a.357.357 0 0 0-.36.352v9.513c0 .092.035.178.1.244a.368.368 0 0 0 .259.109zm22.983-.095a.36.36 0 0 0 .245.095h6.236c.198 0 .359-.159.359-.353v-1.532a.357.357 0 0 0-.36-.353H62.82v-1.752h4.314c.198 0 .359-.159.359-.353v-1.532a.357.357 0 0 0-.36-.353H62.82V61.71h4.314c.198 0 .359-.159.359-.353v-1.532a.357.357 0 0 0-.36-.353H60.9a.357.357 0 0 0-.36.352v9.513c0 .092.035.178.1.244l.014.014zm21.62-3.275h2.313v1.491h-2.284c-.367 0-.704-.242-.775-.596a.75.75 0 0 1 .745-.895zm0 3.37h3.801a.423.423 0 0 0 .427-.418v-4.519c0-1.417-.619-2.187-1.138-2.582-1.288-.982-3.223-.75-4.712-.411a.418.418 0 0 0-.315.511l.263 1.01c.057.22.284.354.51.304 1.899-.423 2.723-.203 3.08.07.084.064.312.242.378.787h-2.2c-1.423 0-2.668 1.051-2.763 2.444-.104 1.528 1.133 2.804 2.668 2.804zm7.575-1.243L88.58 71.41a.267.267 0 0 0 .25.37h1.753c.14 0 .267-.082.32-.21.61-1.422 4.125-9.64 4.125-9.64a.267.267 0 0 0-.25-.369h-1.702a.427.427 0 0 0-.393.257l-1.61 3.764-1.535-3.758a.426.426 0 0 0-.396-.263h-1.59a.343.343 0 0 0-.323.47l2.62 6.414zM73.72 61.709h1.45c.911 0 1.65.724 1.65 1.617s-.739 1.617-1.65 1.617h-1.45V61.71zm-1.92 7.98h1.56c.198 0 .36-.158.36-.352V67.18h1.45c2.17 0 3.93-1.726 3.93-3.855s-1.76-3.855-3.93-3.855H71.8a.357.357 0 0 0-.36.352v9.514c0 .194.161.352.36.352z"/>
    </g>
</svg>
