<svg xmlns="http://www.w3.org/2000/svg" xmlns:xlink="http://www.w3.org/1999/xlink" width="70" height="22" viewBox="0 0 70 22">
    <defs>
        <path id="a" d="M.092.136h32.161v20.089H.092z"/>
    </defs>
    <g fill="none" fill-rule="evenodd">
        <rect width="130" height="130" y="64" fill="#E3E5EC" rx="5" transform="translate(-31 -116)"/>
        <path fill="#FFF" d="M11.23 5.321H9.546a.467.467 0 0 0-.468.466v10.438c0 .257.21.466.468.466h1.684a.467.467 0 0 0 .468-.466V5.787a.467.467 0 0 0-.468-.466M7.16 14.081H2.62V5.787a.467.467 0 0 0-.468-.466H.468A.467.467 0 0 0 0 5.787v10.438c0 .257.21.466.468.466h6.691a.467.467 0 0 0 .468-.466v-1.678a.467.467 0 0 0-.468-.466M32.193 7.93a.467.467 0 0 0 .468-.465V5.787a.467.467 0 0 0-.468-.466h-6.691a.467.467 0 0 0-.468.466v10.438c0 .257.21.466.468.466h6.69a.467.467 0 0 0 .469-.466v-1.678a.467.467 0 0 0-.468-.466h-4.539v-1.77h4.539a.467.467 0 0 0 .468-.466v-1.678a.467.467 0 0 0-.468-.466h-4.539v-1.77h4.539zM22.788 5.321h-1.685a.467.467 0 0 0-.468.466v6.04L16.227 5.55c-.125-.178-.311-.229-.518-.229-.026-.004-.053 0-.08 0h-1.685a.467.467 0 0 0-.468.466v10.438c0 .257.21.466.468.466h1.685a.467.467 0 0 0 .468-.466V9.917l4.596 6.544a.568.568 0 0 0 .053.065.47.47 0 0 0 .324.165h1.718a.467.467 0 0 0 .468-.466V5.787a.467.467 0 0 0-.468-.466"/>
        <g transform="translate(36.967 .824)">
            <mask id="b" fill="#fff">
                <use xlink:href="#a"/>
            </mask>
            <path fill="#FFF" d="M31.084 20.225H1.26c-.645 0-1.169-.521-1.169-1.165V1.3C.092.658.616.137 1.262.137h29.822c.645 0 1.17.521 1.17 1.165v17.76c0 .643-.525 1.164-1.17 1.164zM9.555 7.97c0 .677-.48 1.194-1.132 1.194h-1.4V6.776h1.4c.653 0 1.132.517 1.132 1.194zm2.132 0c0-1.765-1.425-3.185-3.264-3.185H5.205a.313.313 0 0 0-.313.313v8.663c0 .173.14.313.313.313H6.71c.173 0 .314-.14.314-.313v-2.606h1.399c1.839 0 3.264-1.42 3.264-3.185zm5.918 2.786c0 .996-.666 1.62-1.586 1.62-.919 0-1.585-.624-1.585-1.62 0-.995.666-1.618 1.585-1.618.92 0 1.586.623 1.586 1.618zm1.999-3.152a.165.165 0 0 0-.165-.165H17.77a.165.165 0 0 0-.165.165v.459c-.44-.504-1.092-.81-1.985-.81-1.746 0-3.185 1.526-3.185 3.503 0 1.978 1.44 3.504 3.185 3.504.893 0 1.546-.306 1.985-.81v.46c0 .09.074.164.165.164h1.669a.165.165 0 0 0 .165-.165V7.604zm6.652.008l-1.534 3.848-1.587-3.85a.275.275 0 0 0-.254-.17H21.18a.165.165 0 0 0-.153.226l2.646 6.424-.964 2.42a.165.165 0 0 0 .153.225h1.702a.275.275 0 0 0 .256-.173l3.547-8.898a.165.165 0 0 0-.154-.225h-1.702a.275.275 0 0 0-.255.173z" mask="url(#b)"/>
        </g>
    </g>
</svg>
