<svg xmlns="http://www.w3.org/2000/svg" width="101" height="20" viewBox="0 0 101 20">
    <g fill="none" fill-rule="evenodd">
        <g transform="translate(-15 -56)">
            <rect width="130" height="130" fill="#E3E5EC" rx="5"/>
            <path fill="#FFF" d="M106.071 56.001c5.16 0 9.309 4.355 9.309 9.773 0 5.418-4.148 9.849-9.309 9.849H24.343c-5.268 0-9.518-4.578-9.338-10.152.172-5.327 4.502-9.471 9.578-9.471h81.5v.001h-.012zM72.744 69.454V68.28a.265.265 0 0 0-.257-.27h-3.092v-5.85a.265.265 0 0 0-.259-.27H68.02a.264.264 0 0 0-.259.27v7.295c0 .07.026.137.072.188.056.056.12.083.186.083h4.469a.265.265 0 0 0 .257-.27zm2.697 0V62.16c0-.15-.116-.27-.258-.27h-1.119a.265.265 0 0 0-.257.27v7.296c0 .149.115.27.257.27h1.119a.265.265 0 0 0 .258-.27zm7.737 0V62.16c0-.15-.116-.27-.258-.27h-1.119a.265.265 0 0 0-.257.27v4.547l-3.323-4.695a.158.158 0 0 0-.022-.029.125.125 0 0 0-.016-.018l-.019-.018a.18.18 0 0 0-.02-.014l-.068-.032-.049-.01h-.013l-1.084-.001a.265.265 0 0 0-.258.27v7.296c0 .149.116.27.258.27h1.118a.265.265 0 0 0 .258-.27v-4.591l3.327 4.746c.018.027.04.049.066.067l.05.029.026.01c.026.006.048.01.07.01h1.075a.265.265 0 0 0 .258-.271zm6.215-6.12V62.16a.265.265 0 0 0-.258-.27h-4.468a.25.25 0 0 0-.18.076.281.281 0 0 0-.078.193v7.296c0 .07.025.137.072.188l.01.01c.045.046.109.073.175.073h4.47a.264.264 0 0 0 .257-.271V68.28a.265.265 0 0 0-.258-.271h-3.091v-1.344h3.091a.265.265 0 0 0 .258-.27V65.22a.265.265 0 0 0-.258-.271h-3.091v-1.344h3.091a.265.265 0 0 0 .258-.27zm16.513 7.995c.1 0 .191-.062.23-.16l2.956-7.393c.054-.135-.04-.283-.179-.283h-1.22a.305.305 0 0 0-.282.197l-1.153 2.886-1.1-2.882a.306.306 0 0 0-.284-.201h-1.14c-.176 0-.297.188-.232.36l1.878 4.919-.91 2.274c-.053.135.041.283.18.283h1.256zm-11.01-9.44h-2.418a.265.265 0 0 0-.257.27v7.296c0 .15.116.27.257.27h1.119c.142 0 .258-.12.258-.27v-1.653h1.04c1.555 0 2.816-1.324 2.816-2.957 0-1.632-1.26-2.957-2.816-2.957zm0 4.197h-1.04v-2.48h1.04c.652 0 1.18.554 1.18 1.24 0 .685-.528 1.24-1.18 1.24zm7.27-2.128c-.924-.752-2.311-.574-3.378-.315a.321.321 0 0 0-.226.392l.189.776a.306.306 0 0 0 .365.232c1.361-.324 1.952-.155 2.207.054.06.049.224.186.271.604h-1.576a2 2 0 0 0-1.98 1.874c-.075 1.172.812 2.15 1.912 2.15h2.725a.314.314 0 0 0 .305-.32v-3.466c0-1.087-.443-1.677-.815-1.98zm-.558 4.327h-1.637a.565.565 0 0 1-.555-.458c-.068-.365.198-.686.534-.686h1.658v1.144zm-85.16-2.778c-.162 4.712 3.443 8.6 7.895 8.6l39.94-.035c-2.857-1.558-4.809-4.693-4.809-8.308 0-3.595 1.932-6.717 4.765-8.283l-39.543.035c-4.287 0-8.094 3.493-8.248 7.99zm15.19-1.839c1.83 0 3.156 1.455 3.156 3.462v2.975h-1.635v-.602l-.4.302c-.467.356-.81.475-1.366.475-1.633 0-2.964-1.475-2.964-3.285 0-1.867 1.412-3.327 3.21-3.327zm-.027 4.886c.835 0 1.512-.71 1.512-1.588 0-.875-.677-1.585-1.512-1.585-.833 0-1.508.71-1.508 1.585 0 .877.675 1.588 1.508 1.588zm7.382-4.886c1.61 0 2.975 1.497 2.975 3.27 0 1.875-1.412 3.342-3.207 3.342-1.83 0-3.156-1.475-3.156-3.502v-5.693h1.623v3.286l.41-.272c.456-.297.871-.43 1.355-.43zm-.208 4.886c.834 0 1.51-.71 1.51-1.588 0-.875-.676-1.585-1.51-1.585-.832 0-1.51.71-1.51 1.585 0 .877.678 1.588 1.51 1.588zm7.253-4.886c1.612 0 2.973 1.497 2.973 3.27 0 1.875-1.41 3.342-3.205 3.342-1.831 0-3.157-1.475-3.157-3.502v-5.693h1.62v3.286l.416-.272c.452-.297.868-.43 1.353-.43zm-.208 4.886c.833 0 1.513-.71 1.513-1.588 0-.875-.68-1.585-1.513-1.585-.834 0-1.51.71-1.51 1.585 0 .877.676 1.588 1.51 1.588zm3.97 1.55v-6.26h1.675v6.26h-1.676zm5.904-4.745h-1.636v2.122c0 .868.253 1.122 1.131 1.122h.505v1.501h-.681c-1.01 0-1.389-.09-1.853-.442-.537-.428-.724-.952-.724-2.006v-6.57h1.622v2.782h1.636v1.491zm-27.711-1.69c.023 0 .045 0 .074.003h.036v1.695c-.013 0-.025-.002-.043-.004-.016-.004-.036-.004-.054-.004-.962 0-1.534.737-1.534 1.973v2.773h-1.635V67.13c0-2.007 1.328-3.462 3.156-3.462z"/>
        </g>
    </g>
</svg>
