<svg xmlns="http://www.w3.org/2000/svg" xmlns:xlink="http://www.w3.org/1999/xlink" width="378" height="348" viewBox="0 0 378 348">
    <defs>
        <path id="a" d="M.325.348h28.476v33.488H.325z"/>
    </defs>
    <g fill="none" fill-rule="evenodd">
        <path fill="#F5F5F5" d="M-518 347l1024 1.071V527H-518z"/>
        <path fill="#945A43" d="M178.93 202.641s-20.117-7.298-44.014-17.535c-17.006-7.285-23.449-21.028-17.354-33.471 8.01-16.36 38.167-8.211 58.274 3.089"/>
        <path fill="#92C5EA" d="M172.532 153.002a161.09 161.09 0 0 1 3.304 1.722l3.093 47.916s-8.334-2.949-19.818-7.469c-2.797-12.573 2.585-35.745 13.42-42.169"/>
        <path stroke="#1D100D" stroke-linecap="round" stroke-linejoin="round" stroke-width="3.5" d="M178.93 202.641s-20.083-7.376-44.014-17.535c-17.16-7.285-23.449-21.028-17.354-33.471 8.01-16.36 38.456-8.115 58.274 3.089"/>
        <path fill="#92C5EA" d="M173.39 153.439c0-4.192-8.36-6.737-9.829-6.99-1.021-.173-2.88-.647-5.013 1.109-7.64 6.29-15.308 28.768-12.926 41.463.398 1.339 1.223 2.373 2.694 3.342 1.66 1.093 10.317 5.51 12.176 3.353l-1.38-.544c-2.801-12.576 2.585-35.75 13.422-42.17l.856.437z"/>
        <path stroke="#1D100D" stroke-linecap="round" stroke-linejoin="round" stroke-width="3.5" d="M159.113 195.171c-2.801-12.575 2.584-35.748 13.42-42.17M160.494 195.715c-1.859 2.158-10.515-2.257-12.179-3.352-1.471-.968-2.294-2.002-2.694-3.341-2.498-13.518 5.406-34.826 12.925-41.465 2.074-1.827 3.994-1.282 5.014-1.108 1.466.254 9.831 2.798 9.831 6.99"/>
        <path fill="#FEFEFE" d="M102.54 174.033l24.407-11.317c3.214-1.489 4.614-5.31 3.126-8.53l-19.105-41.406a6.407 6.407 0 0 0-8.511-3.135l-24.405 11.317c-3.215 1.49-4.615 5.31-3.13 8.532l19.106 41.404a6.408 6.408 0 0 0 8.512 3.135"/>
        <path fill="#19AD5E" d="M99.61 164.377l21.895-10.15a2.878 2.878 0 0 0 1.397-3.816L106.9 115.729a2.868 2.868 0 0 0-3.807-1.403L81.198 124.48a2.88 2.88 0 0 0-1.397 3.816l16.003 34.681a2.863 2.863 0 0 0 3.806 1.401"/>
        <path stroke="#1D100D" stroke-linecap="round" stroke-linejoin="round" stroke-width="3.5" d="M102.54 174.033l24.407-11.317c3.214-1.489 4.614-5.31 3.126-8.53l-19.105-41.406a6.405 6.405 0 0 0-8.511-3.135l-24.405 11.317c-3.215 1.49-4.615 5.31-3.13 8.532l19.106 41.404a6.408 6.408 0 0 0 8.512 3.135z"/>
        <path fill="#C7C6C4" d="M110.358 164.046a2.163 2.163 0 0 0 2.874 1.06 2.174 2.174 0 0 0 1.056-2.881 2.167 2.167 0 0 0-2.873-1.058 2.172 2.172 0 0 0-1.057 2.879"/>
        <g transform="matrix(-1 0 0 1 108.337 113.714)">
            <mask id="b" fill="#fff">
                <use xlink:href="#a"/>
            </mask>
            <path fill="#FEFEFE" fill-opacity=".2" d="M19.651 33.837l8.885-19.257c.665-1.44.039-3.15-1.4-3.815L5.24.614a2.86 2.86 0 0 0-3.802 1.401L.325 4.425l19.326 29.412z" mask="url(#b)"/>
        </g>
        <path fill="#FEFEFE" d="M111.307 138.855l-15.954 7.483a.692.692 0 0 1-.92-.33l-4.503-9.546a.695.695 0 0 1 .333-.923l15.953-7.484a.692.692 0 0 1 .92.334l4.5 9.548a.689.689 0 0 1-.33.918"/>
        <path fill="#19AD5E" d="M96.684 137.67c-.171-.364-.559-.521-.909-.357l-.747.35.605 1.286.749-.354c.349-.163.474-.563.302-.924m1.14-.536c.45.95.045 2.07-.939 2.53l-.748.35.661 1.404a.186.186 0 0 1-.09.247l-.804.378a.187.187 0 0 1-.249-.092l-2.194-4.656a.185.185 0 0 1 .088-.246l1.722-.808c.985-.463 2.107-.056 2.554.893M101.697 137.148c-.252-.535-.767-.704-1.257-.475-.493.235-.692.735-.44 1.272.251.535.767.701 1.259.47.49-.23.69-.733.438-1.267m.27-2.196l1.598 3.39a.099.099 0 0 1-.047.13l-.891.418a.103.103 0 0 1-.132-.047l-.115-.247c-.109.38-.38.709-.857.935-.935.436-2.09-.023-2.591-1.087-.503-1.062-.119-2.243.814-2.68.479-.225.905-.225 1.267-.064l-.114-.247a.096.096 0 0 1 .045-.13l.892-.419a.096.096 0 0 1 .13.048M105.528 133.286l.155 2.453-1.824-1.673a.168.168 0 0 0-.181-.026l-.91.428a.097.097 0 0 0-.024.16l3.043 2.79.098 1.54c.005.069.078.115.139.084l.911-.428a.155.155 0 0 0 .092-.155l-.355-5.675a.1.1 0 0 0-.142-.082l-.909.427a.159.159 0 0 0-.093.157"/>
        <path fill="#945A43" d="M131.908 164.373c-1.605-.458-6.51-3.17-5.276-8.29 1.095-4.547 6.171-4.696 8.1-4.462"/>
        <path stroke="#1D100D" stroke-linecap="round" stroke-linejoin="round" stroke-width="3.5" d="M131.908 164.373c-1.605-.458-6.51-3.17-5.276-8.29 1.095-4.547 6.171-4.696 8.1-4.462"/>
        <path fill="#92C5EA" d="M169.314 273.952l-.5-18.608-1.298-60.908c3.166-23.72 12.09-45.272 12.09-45.272l58.561-.293 18.553 45.981c.81 10.604 1.85 31.96 1.825 41.189-.03 9.619-1.398 31.681-4.924 44.442-3.705 13.416-12.45 17.633-27.329 17.803-8.974.103-14.757-2.05-18.283-5.054l.047.046c-4.092 1.528-10.236 3.368-19.372 3.492-25.65.353-24.314-18.976-19.37-22.818"/>
        <path fill="#92C5EA" d="M258.557 224.706c-12.356-1.76-22.947-14.004-23.81-25.69l-67.231-4.58c3.168-23.72 12.091-45.273 12.091-45.273l58.558-.292 18.557 45.98c.81 10.603 1.847 31.944 1.82 41.18-.126-7.553.015-11.325.015-11.325"/>
        <path fill="#161118" d="M169.314 273.952l-.482-17.813c18.81 4.507 69.74 4.707 88.503 1.509-.787 8.142-1.991 16.597-3.714 22.835-3.705 13.416-12.45 17.633-27.329 17.803-8.974.103-14.757-2.05-18.283-5.054l.047.046c-4.092 1.528-9.944 3.339-19.372 3.492-25.648.421-24.314-18.976-19.37-22.818"/>
        <path fill="#945A43" d="M169.314 273.952l-.002-.055c7.34 3.607 24.134 4.45 36.621 2.74l-.005-.029c10.935 5.37 36.097 4.55 48.641-.049-.299 1.372-.61 2.701-.948 3.924-3.705 13.416-12.45 17.633-27.329 17.803-8.974.103-14.757-2.05-18.283-5.054l.047.046c-4.092 1.528-10.656 3.437-19.372 3.492-26.009.166-24.314-18.976-19.37-22.818"/>
        <path stroke="#1D100D" stroke-linecap="round" stroke-linejoin="round" stroke-width="3.5" d="M169.31 273.897c7.341 3.606 24.136 4.45 36.623 2.74l-.005-.027c10.937 5.37 36.113 4.547 48.653-.056"/>
        <path stroke="#1D100D" stroke-linecap="round" stroke-linejoin="round" stroke-width="3.5" d="M168.813 255.344l.499 18.608c-4.944 3.841-6.433 23.187 19.375 22.817 8.71-.123 15.275-1.964 19.367-3.491"/>
        <path stroke="#1D100D" stroke-linecap="round" stroke-linejoin="round" stroke-width="3.5" d="M205.93 260.243v16.366c-4.944 3.842-5.292 21.975 20.358 21.676 14.883-.172 23.628-4.389 27.333-17.805 3.525-12.758 4.896-34.82 4.923-44.438.026-9.23-1.013-30.585-1.823-41.192M182.052 174.804c0 6.373 5.393 15.308 9.236 15.574 3.84.265 12.67-9.575 12.67-9.575v-.006.006s8.663 11.902 12.505 12.168c3.843.265 9.642-5.648 13.344-13.383"/>
        <path fill="#003369" d="M167.526 194.85l67.23 4.582c.865 11.684 11.446 23.515 23.802 25.276 0 0 .655 17.944.328 32.727-18.803 3.585-75.576 3.52-92.147-1.913-1.51-21.587-.973-38.878.787-60.671"/>
        <path stroke="#1D100D" stroke-linecap="round" stroke-linejoin="round" stroke-width="3.5" d="M167.526 194.85l67.23 4.582c.865 11.684 11.446 23.515 23.802 25.276 0 0 .655 17.944.328 32.727-18.803 3.585-75.576 3.52-92.147-1.913-1.51-21.587-.973-38.878.787-60.671z"/>
        <path fill="#92C5EA" d="M244.572 209.335c3.736 1.946 9.811 5.079 16.739 11.879 15.305 15.02 25.057 15.552 34.409 8.937 9.92-7.008 24.034-33.555-35.82-64.106-26.752-9.946-40.152 26.839-15.328 43.29"/>
        <path fill="#945A43" d="M290.137 186.041c.047.047.1.092.148.14l1.262 1.226c.006-.01.008-.02.014-.03 22.19 21.352 11.69 37.454 4.156 42.774-9.204 6.514-18.77 6.104-33.712-8.283.21-6.685 13.337-29.603 28.132-35.827"/>
        <path stroke="#1D100D" stroke-linecap="round" stroke-linejoin="round" stroke-width="3.5" d="M245.526 209.833c3.77 1.978 9.416 5.13 15.784 11.379 15.305 15.022 25.06 15.556 34.408 8.94 9.924-7.008 24.034-33.554-35.82-64.109"/>
        <path fill="#92C5EA" d="M291.547 187.407c.47-.874.314-1.816-.71-2.997-2.55-2.947-7.213-6.156-8.102-6.645-1.2-.662-2.858-1.703-4.28-1.003-10.522 5.176-23.408 23.132-26.986 34.237-.357 1.111-.46 3.222.416 4.52.99 1.466 7.32 6.219 8.46 7.028.683.488 1.956.967 2.793.493l-1.135-1.153c.19-6.665 13.329-29.622 28.14-35.847"/>
        <path stroke="#1D100D" stroke-linecap="round" stroke-linejoin="round" stroke-width="3.5" d="M262.004 221.886c.19-6.664 13.329-29.622 28.139-35.847M291.547 187.407c.47-.874.314-1.816-.71-2.997-2.55-2.947-7.213-6.156-8.102-6.645-1.2-.662-2.858-1.703-4.28-1.003-10.522 5.176-23.408 23.132-26.986 34.237-.357 1.111-.46 3.222.416 4.52.99 1.466 7.32 6.219 8.46 7.028.683.488 1.956.967 2.793.493"/>
        <path fill="#003369" d="M250.325 164.348c-14.942 1.787-24.946 16.03-24.946 36.008 0 3.4 1.993 5.752 4.96 6.195 2.964.444 5.747-2.334 5.823-5.01.575-19.644 11.767-31.444 25.46-33.495"/>
        <path stroke="#1D100D" stroke-linecap="round" stroke-linejoin="round" stroke-width="3.5" d="M250.325 164.348c-14.942 1.787-24.946 16.03-24.946 36.008 0 3.4 1.993 5.752 4.96 6.195 2.964.444 5.747-2.334 5.823-5.01.575-19.644 11.767-31.444 25.46-33.495"/>
        <path fill="#003369" d="M186.19 155.231c-13.685 5.984-19.223 20.345-18.631 40.313.099 3.399 2.162 5.692 5.14 6.048 2.977.354 5.67-2.505 5.67-5.182-.006-19.654 6.655-31.214 19.222-37.82"/>
        <path stroke="#1D100D" stroke-linecap="round" stroke-linejoin="round" stroke-width="3.5" d="M186.19 155.231c-13.685 5.984-19.223 20.345-18.631 40.313.099 3.399 2.162 5.692 5.14 6.048 2.977.354 5.67-2.505 5.67-5.182-.006-19.654 6.655-31.214 19.222-37.82"/>
        <path fill="#945A43" d="M156.142 40.712c-.906-3.93-2.216-11.675 1.295-19.542 3.788-8.487 13.488-13.886 23.853-11.064 9.845 2.678 13.415 10.718 15.067 16.04 7.458-.532 12.194-.816 23.948.218 11.719 1.368 16.296 2.603 23.49 4.631 2.695-4.872 7.806-12.024 17.99-12.653 10.726-.661 19.135 6.586 21.135 15.664 1.853 8.421-.992 15.734-2.67 19.402 5.873 6.475 26.651 26.573 21.514 62.697-5.184 36.48-45.794 70.399-97.127 64.946-51.47-4.983-84.475-46.475-82.202-83.29 2.253-36.422 26.647-51.899 33.707-57.049"/>
        <path fill="#71422A" d="M171.018 18.186c-8.939 3.491-8.334 15.498-5.519 21.295 0 0 3.818-2.523 11.508-5.796 7.692-3.27 11.937-4.315 11.937-4.315-1.099-4.683-6.907-15.485-17.926-11.184M270.277 28.38c8.049 5.235 5.027 16.868 1.1 21.974 0 0-3.228-3.248-10.099-8.015-6.869-4.766-10.816-6.65-10.816-6.65 2.025-4.365 9.895-13.761 19.815-7.31"/>
        <path stroke="#1D100D" stroke-linecap="round" stroke-linejoin="round" stroke-width="3.5" d="M156.142 40.712c-.906-3.93-2.216-11.675 1.295-19.542 3.788-8.487 13.488-13.886 23.853-11.064 9.845 2.678 13.415 10.718 15.067 16.04 7.458-.532 12.194-.816 23.948.218 11.719 1.368 16.296 2.603 23.49 4.631 2.695-4.872 7.806-12.024 17.99-12.653 10.726-.661 19.135 6.586 21.135 15.664 1.853 8.421-.992 15.734-2.67 19.402 5.873 6.475 26.651 26.573 21.514 62.697-5.184 36.48-45.794 70.399-97.127 64.946-51.47-4.983-84.475-46.475-82.202-83.29 2.253-36.422 26.647-51.899 33.707-57.049z"/>
        <path fill="#FAD8BE" d="M191.06 124.971c-1.232 12.052 6.263 22.693 16.738 23.768 10.475 1.077 19.968-7.822 21.2-19.871 1.229-12.052-6.265-22.693-16.741-23.77-10.472-1.075-19.965 7.822-21.198 19.873"/>
        <path stroke="#1D100D" stroke-linecap="round" stroke-linejoin="round" stroke-width="3.5" d="M210.048 126.703l-6.94 6.982m10.58 5.163l-3.64-12.145 1.113-10.883"/>
        <path fill="#1D100D" d="M210.795 119.427c3.456.355 8.24-5.33 7.915-7.833-.326-2.503-4.05-2.84-6.796-3.124-2.744-.281-6.46-.707-7.287 1.678-.827 2.386 2.712 8.925 6.168 9.28M195.932 96.713c-.338 3.307 2.067 6.266 5.364 6.605 3.303.34 6.254-2.07 6.592-5.378a6.02 6.02 0 0 0-5.368-6.604c-3.298-.34-6.25 2.066-6.588 5.377M217.986 98.978c-.337 3.307 2.066 6.266 5.368 6.605 3.3.34 6.25-2.07 6.589-5.378.338-3.31-2.063-6.265-5.364-6.604a6.012 6.012 0 0 0-6.593 5.377"/>
    </g>
</svg>
