<svg xmlns="http://www.w3.org/2000/svg" xmlns:xlink="http://www.w3.org/1999/xlink" width="378" height="347" viewBox="0 0 378 347">
    <defs>
        <path id="a" d="M0 0h378v347H0z"/>
        <path id="c" d="M60.762.296c-.029.006-.059.01-.089.017L5.851 10.9a6.97 6.97 0 0 0-5.654 6.842c.002.435.044.875.13 1.317L14.92 94.25c.016.085.035.17.055.252.739 3.18 3.575 5.37 6.753 5.388h.04c.402 0 .81-.035 1.218-.107l.114-.02 54.823-10.588a6.97 6.97 0 0 0 5.654-6.841 7.058 7.058 0 0 0-.128-1.318L68.858 5.825a6.956 6.956 0 0 0-3.163-4.585A6.987 6.987 0 0 0 62.007.183c-.41 0-.827.037-1.245.113"/>
        <path id="e" d="M60.673.313L5.851 10.9c-3.784.731-6.258 4.385-5.525 8.16L14.92 94.25c.732 3.775 4.394 6.242 8.18 5.513l54.823-10.588c3.784-.732 6.259-4.384 5.526-8.159L68.858 5.825c-.649-3.327-3.573-5.642-6.85-5.642-.44 0-.887.042-1.335.13z"/>
        <path id="g" d="M52.051.289L2.711 9.816A2.785 2.785 0 0 0 .5 13.079l13.531 69.724a2.791 2.791 0 0 0 3.271 2.204l49.343-9.528a2.787 2.787 0 0 0 2.21-3.264L55.322 2.492A2.79 2.79 0 0 0 52.586.236c-.175 0-.356.018-.535.053z"/>
        <path id="i" d="M.256 35.791l6.566 33.827a2.791 2.791 0 0 0 3.271 2.204l49.343-9.528a2.787 2.787 0 0 0 2.21-3.264L50.277.461C39.65 7.967 22.978 19.744.256 35.791z"/>
    </defs>
    <g fill="none" fill-rule="evenodd">
        <g>
            <mask id="b" fill="#fff">
                <use xlink:href="#a"/>
            </mask>
            <use fill="#FFF" xlink:href="#a"/>
            <g mask="url(#b)">
                <path fill="#905C47" d="M180.822 255.583c-12.64-3.222-36.45-9.379-57.117-19.734-25.973-13.013-39.678-32.262-28.138-53.27 17.803-32.409 92.64 8.422 92.64 8.422"/>
                <path fill="#905C47" d="M110.737 192.092c-2.712-1.324-4.065-4.533-3.105-7.404 1.215-3.642 5.055-4.681 8.33-3.112"/>
                <path stroke="#000" stroke-linecap="round" stroke-width="4.41" d="M110.737 192.092c-2.712-1.324-4.065-4.533-3.105-7.404 1.215-3.642 5.055-4.681 8.33-3.112"/>
                <path fill="#FFF" d="M189.458 257.97s-.388-.564-6.781-1.994c-8.525-1.888-23.674-4.813-37.8-10.567l19.271-63.297c10.568 4.712 17.983 9.019 17.983 9.019l1.374 12.478 5.953 54.362z"/>
                <path stroke="#000" stroke-linecap="round" stroke-linejoin="round" stroke-width="4.41" d="M145.235 244.882l19.228-66.998M180.822 255.583c-12.64-3.222-36.45-9.379-57.117-19.734-25.973-13.013-39.678-32.262-28.138-53.27 17.803-32.409 92.64 8.422 92.64 8.422"/>
                <path fill="#905C47" d="M288.066 295.693c0 8.164 6.605 14.783 14.752 14.783 8.15 0 14.755-6.619 14.755-14.783 0-8.165-6.605-14.784-14.755-14.784-8.147 0-14.752 6.619-14.752 14.784"/>
                <path stroke="#000" stroke-linecap="round" stroke-linejoin="round" stroke-width="4.41" d="M288.066 295.693c0 8.164 6.605 14.783 14.752 14.783 8.15 0 14.755-6.619 14.755-14.783 0-8.165-6.605-14.784-14.755-14.784-8.147 0-14.752 6.619-14.752 14.784z"/>
                <path fill="#8A8B89" d="M303.951 324.848c-4.526 15.065-9.15 26.813-13.197 35.665-53.843 7.855-65.163-4.637-65.163-4.637-28.908 5.062-39.902-4.23-39.902-4.23l-1.514-.227c.667-.601 1.088-.903 1.088-.903l8.415-40.244 2.096-11.417s38.659 7.284 111.081-2.888c1.399 10.904.487 17.613-2.904 28.88"/>
                <path fill="#282423" d="M307.486 298.855c-77.71 14.508-111.712 0-111.712 0l-19.158-44.11c-.889-3.1-.436-18.621.763-40.048l-.888-3.267.775-9.39 91.816 3.018s18.092-6.526 23.341 2.828c7.324 13.052 3.12 45.003 9.12 62.39 2.221 6.458 5.01 21.166 5.943 28.579"/>
                <path stroke="#000" stroke-linecap="round" stroke-linejoin="round" stroke-width="4.41" d="M306.393 299.537c-88.884 13.9-110.618-.683-110.618-.683M223.31 387.89c-7.36 2.147-15.048 2.189-20.058 1.885-16.521-1-25.301-8.84-26.244-19.955-1.007-11.887 8.728-18.925 8.728-18.925l10.039-52.04s-11.153-20.563-19.399-43.769"/>
                <path stroke="#000" stroke-linecap="round" stroke-linejoin="round" stroke-width="4.41" d="M233.933 320.693l-8.349 35.001s-10.777 6.546-9.77 18.432c.943 11.114 9.832 18.336 26.534 19.854 8.898.81 27.75-.1 36.684-11.65 0 0 13.081-16.524 25.208-57.941 5.55-18.953 2.68-38.766-2.978-54.685-2.297-6.46-5.154-13.173-8.22-19.725M176.485 255.574s-2.869-16.804.021-40.543"/>
                <path fill="#FFDA00" d="M207.431 261.62l-18.714-.48c-.313-.01-.66-.278-.776-.602l-3.102-8.592c-.118-.325.04-.583.354-.576l18.714.482c.311.007.66.277.776.602l3.1 8.592c.118.323-.04.58-.352.573"/>
                <path fill="#905C47" d="M358.795 267.056c-8.248 11.845-23.027 15.507-46.637 3.471-.562-.287-1.125-.557-1.67-.845l19.556-53.323c36.369 16.615 35.25 41.325 28.751 50.697"/>
                <path fill="#FFF" d="M330.044 216.358l-19.557 53.324c-5.254-2.554-13.676-6.193-18.118-7.54-7.044-6.188-12.164-16.04-14.136-25.243-2.056-9.492-1.59-19.455.093-29.12l.845-5.885c20.312 2.897 39.265 9.152 50.873 14.464"/>
                <path stroke="#000" stroke-linecap="round" stroke-linejoin="round" stroke-width="4.41" d="M330.044 216.358l-19.557 53.324c-5.254-2.554-13.676-6.193-18.118-7.54-8.728-7.056-12.164-16.04-14.136-25.243-2.056-9.492-1.59-19.455.093-29.12l.845-5.885c20.312 2.897 39.265 9.152 50.873 14.464z"/>
                <path stroke="#000" stroke-linecap="round" stroke-linejoin="round" stroke-width="4.41" d="M292.122 262.056c4.969 1.506 14.054 5.419 20.035 8.47 23.608 12.045 38.382 8.382 46.63-3.473 8.75-12.575 4.233-54.582-84.133-65.761l-12.486-1.545"/>
                <path fill="#FFF" d="M247.336 223.689s-.026.072-.095.198c-.675 1.355-4.852 9.417-11.026 16.123-3.278 3.351-7.284 6.495-12.024 8.567-.014.017-.032.02-.048.02-.222.082-.463.146-.688.211-.235-.04-.485-.081-.722-.14-.018 0-.036-.015-.052-.014-5.102-1.572-9.688-4.278-13.595-7.266-7.438-6.011-13.167-13.57-14.103-14.843-.093-.119-.133-.187-.133-.187l24.837-10.65 27.649 7.98z"/>
                <path stroke="#000" stroke-linecap="round" stroke-linejoin="round" stroke-width="4.41" d="M247.336 223.689s-.026.072-.095.198c-.675 1.355-4.852 9.417-11.026 16.123-3.278 3.351-7.284 6.495-12.024 8.567-.014.017-.032.02-.048.02-.222.082-.463.146-.688.211-.235-.04-.485-.081-.722-.14-.018 0-.036-.015-.052-.014-5.102-1.572-9.688-4.278-13.595-7.266-7.438-6.011-13.167-13.57-14.103-14.843-.093-.119-.133-.187-.133-.187l24.837-10.65 27.649 7.98z"/>
                <path fill="#FFF" d="M185.773 221.354l12.99 19.422c.533.798 1.676.944 2.271.291l17.613-17.32"/>
                <path stroke="#000" stroke-linecap="round" stroke-linejoin="round" stroke-width="4.41" d="M185.773 221.354l12.99 19.422c.533.798 1.676.944 2.271.291l17.613-17.32"/>
                <path fill="#FFF" d="M257.293 221.185l-13.909 19.037c-.35.81-1.456.988-2.2.354L219.69 223.81"/>
                <path stroke="#000" stroke-linecap="round" stroke-linejoin="round" stroke-width="4.41" d="M257.293 221.185l-13.909 19.037c-.35.81-1.456.988-2.2.354L219.69 223.81"/>
                <path fill="#000" d="M256.315 224.228c-9.002 7.566-21.983 12.206-35.962 11.88-13.966-.325-25.937-5.534-33.4-13.467 10.487 2.792 21.897 4.451 34.102 4.705 12.338.346 24.153-.785 35.26-3.118"/>
                <path fill="#905C47" d="M307.707 63.989c1.98-4.68 5.285-14.005 2.635-24.532-2.857-11.357-13.73-20.173-27.209-18.93-12.8 1.175-18.978 10.374-22.183 16.618-9.143-2.287-14.96-3.673-29.775-4.952-14.842-.858-20.795-.325-30.164.624-2.286-6.632-7.078-16.622-19.584-19.624-13.169-3.16-25.184 3.999-29.635 14.829-4.128 10.044-2.182 19.741-.897 24.657-8.697 6.754-38.852 27.163-40.315 73.11-1.485 46.398 41.56 97.344 106.466 101.772 64.97 5.04 114.947-39.25 120.118-85.432 5.11-45.688-21.813-70.21-29.457-78.14"/>
                <path fill="#6D4437" d="M294.13 32.792c10.34 6.282 6.979 21.046 2.23 27.627 0 0-4.193-3.964-13.03-9.702-8.836-5.734-13.879-7.956-13.879-7.956 2.382-5.572 11.937-17.71 24.68-9.969M168.707 23.796c-11.127 4.742-9.9 19.836-6.135 27.029 0 0 4.715-3.326 14.277-7.745 9.56-4.414 14.867-5.893 14.867-5.893-1.564-5.857-9.296-19.233-23.01-13.391"/>
                <path stroke="#000" stroke-linecap="round" stroke-linejoin="round" stroke-width="4.41" d="M307.707 63.989c1.98-4.68 5.285-14.005 2.635-24.532-2.857-11.357-13.73-20.173-27.209-18.93-12.8 1.175-18.978 10.374-22.183 16.618-9.143-2.287-14.96-3.673-29.775-4.952-14.842-.858-20.795-.325-30.164.624-2.286-6.632-7.078-16.622-19.584-19.624-13.169-3.16-25.184 3.999-29.635 14.829-4.128 10.044-2.182 19.741-.897 24.657-8.697 6.754-38.852 27.163-40.315 73.11-1.485 46.398 41.56 97.344 106.466 101.772 64.97 5.04 114.947-39.25 120.118-85.432 5.11-45.688-21.813-70.21-29.457-78.14z"/>
                <path fill="#E0C6B9" d="M245.92 160.806c-1.164 16.294-12.84 28.735-26.074 27.786-13.238-.948-23.027-14.93-21.863-31.225 1.163-16.294 12.84-28.735 26.078-27.786 13.234.95 23.024 14.93 21.86 31.225"/>
                <path stroke="#000" stroke-linecap="round" stroke-linejoin="round" stroke-width="4.41" d="M222.059 157.656l8.107 11.623m-16.405 4.935l8.298-16.558 1.016-14.23"/>
                <path fill="#000" d="M222.747 147.981c-4.368-.314-9.073-8.41-8.125-11.446.948-3.036 5.645-2.642 9.115-2.393 3.468.249 8.172.53 8.68 3.67.508 3.14-5.306 10.481-9.67 10.17M246.129 123.036c-.298 4.178-3.925 7.325-8.093 7.026-4.173-.298-7.313-3.932-7.016-8.11.3-4.18 3.924-7.324 8.097-7.026 4.169.3 7.31 3.929 7.012 8.11M218.26 121.037c-.298 4.177-3.924 7.326-8.097 7.026-4.172-.298-7.309-3.932-7.011-8.11.3-4.18 3.92-7.325 8.093-7.026 4.172.3 7.313 3.929 7.015 8.11"/>
            </g>
            <g mask="url(#b)">
                <g transform="translate(31 108)">
                    <mask id="d" fill="#fff">
                        <use xlink:href="#c"/>
                    </mask>
                    <path fill="#FFF" d="M5.852 10.9L60.674.312c3.785-.73 7.448 1.74 8.183 5.514l14.591 75.191c.734 3.775-1.741 7.426-5.524 8.158L23.1 99.762c-3.787.73-7.448-1.738-8.18-5.512L.326 19.059c-.733-3.775 1.742-7.427 5.526-8.16" mask="url(#d)"/>
                </g>
                <g transform="translate(31 108)">
                    <mask id="f" fill="#fff">
                        <use xlink:href="#e"/>
                    </mask>
                    <path stroke="#000" stroke-width="7.986" d="M5.852 10.9L60.674.312c3.785-.73 7.448 1.74 8.183 5.514l14.591 75.191c.734 3.775-1.741 7.426-5.524 8.158L23.1 99.762c-3.787.73-7.448-1.738-8.18-5.512L.326 19.059c-.733-3.775 1.742-7.427 5.526-8.16z" mask="url(#f)"/>
                </g>
                <g transform="translate(38.21 115.39)">
                    <mask id="h" fill="#fff">
                        <use xlink:href="#g"/>
                    </mask>
                    <path fill="#DFE6EF" d="M-8.21 4.832L60.32-8.401l17.245 88.862L9.036 93.695z" mask="url(#h)"/>
                </g>
                <g transform="translate(45.42 128.575)">
                    <mask id="j" fill="#fff">
                        <use xlink:href="#i"/>
                    </mask>
                    <path fill="#CAD3E0" d="M-12.723 5.536L55.802-7.7l14.553 74.975L1.825 80.51z" mask="url(#j)"/>
                </g>
                <path fill="#905C47" d="M121.483 183.606c0 3.318-3.223 6.01-7.197 6.01-3.975 0-7.198-2.692-7.198-6.01 0-3.32 3.223-6.012 7.198-6.012 3.974 0 7.197 2.692 7.197 6.012"/>
                <path fill="#905C47" d="M112.543 189.238l-1.758-.241c-2.72-.315-4.796-3.092-4.837-5.83-.052-3.469 2.924-5.51 6.204-5.153l1.903.182"/>
                <path stroke="#000" stroke-linecap="round" stroke-linejoin="round" stroke-width="3.992" d="M112.543 189.238l-1.758-.241c-2.72-.315-4.796-3.092-4.837-5.83-.052-3.469 2.924-5.51 6.204-5.153l1.903.182"/>
            </g>
        </g>
        <path fill="#F5F5F5" d="M-518 346l1024 1.071V526H-518z"/>
    </g>
</svg>
