<svg xmlns="http://www.w3.org/2000/svg" width="208" height="208" viewBox="0 0 208 208">
    <g fill="none" fill-rule="evenodd">
        <path fill="#08BF5B" d="M30.49 75.757h102.708V59.341H30.49z"/>
        <g stroke="#111" stroke-width="2">
            <path d="M126.53 118.047H34.383A3.392 3.392 0 0 1 31 114.664V50.382A3.392 3.392 0 0 1 34.383 47h94.748a3.392 3.392 0 0 1 3.382 3.382v49.592"/>
            <path stroke-linecap="round" d="M132.78 64.349s1.133-.515 5.391-1.338c2.351-.455 4.825.165 6.593 1.78.166.152.333.314.5.489l15.616 17.719s4.18 4.228 5.647 15.505c0 0 3.434 21.706 3.434 28.351M142.385 108.139s-7.697-3.516-12.071-11.739c0 0-5.62-10.688-12.171-8.28a3.745 3.745 0 0 0-1.26.802c-1.298 1.222-3.482 4.387.252 9.914 0 0 9.745 12.072 9.635 16.169 0 0 0 18.938 13.844 25.694l1.273.608M132.78 80.099s1.771-.368 3.376-.826a1.639 1.639 0 0 1 1.755.604l6.578 8.771M146.482 97.84s-4.54 5.759-7.863 7.642M146.817 161.143s-1.272-6.518-4.253-11.287l-2.9-4.921c-.56-.951-.2-2.177.786-2.672l31.03-15.623a1.908 1.908 0 0 1 2.573.868l8.453 17.34M145.247 155.102s32.888-15.262 34.16-16.533M41.282 89.478h30.654M41.282 103.011h47.194"/>
        </g>
    </g>
</svg>
