<svg xmlns="http://www.w3.org/2000/svg" xmlns:xlink="http://www.w3.org/1999/xlink" width="208" height="208" viewBox="0 0 208 208">
    <defs>
        <path id="a" d="M1.167 1.272a.477.477 0 0 0-.347.582l.29 1.149a.472.472 0 0 0 .561.345c2.088-.481 2.995-.231 3.387.079.093.073.345.276.417.895H3.054C1.489 4.322.12 5.518.015 7.102-.099 8.84 1.261 10.29 2.95 10.29h4.183a.472.472 0 0 0 .469-.476V4.676c0-1.612-.681-2.487-1.252-2.936-.758-.597-1.719-.8-2.7-.8-.854 0-1.721.153-2.483.332zm.964 6.203a.847.847 0 0 1 .819-1.017h2.545v1.696H2.984c-.405 0-.775-.276-.853-.679z"/>
        <path id="c" d="M6.836.049c-.19 0-.36.114-.433.292L4.632 4.62 2.943.348a.466.466 0 0 0-.435-.299H.759a.39.39 0 0 0-.357.534l2.882 7.293-1.395 3.373a.302.302 0 0 0 .276.419h1.927a.382.382 0 0 0 .354-.236L8.983.469a.303.303 0 0 0-.275-.42H6.836z"/>
        <path id="e" d="M.428.671a.398.398 0 0 0-.395.401V11.89c0 .22.178.4.395.4h1.717a.4.4 0 0 0 .397-.4V9.438h1.595c2.387 0 4.322-1.963 4.322-4.384 0-2.421-1.935-4.383-4.322-4.383H.428zm2.114 2.544h1.595c1.002 0 1.814.824 1.814 1.839 0 1.016-.812 1.84-1.814 1.84H2.542V3.215z"/>
    </defs>
    <g fill="none" fill-rule="evenodd">
        <path stroke="#111" stroke-linecap="round" stroke-width="2" d="M102.181 143.003h-46.01c-4.4 0-8-3.6-8-8V37c0-4.4 3.6-8 8-8h46.01c4.4 0 8 3.6 8 8v98.003c0 4.4-3.6 8-8 8zM74.234 36.853h9.884M74.234 134.609h9.884"/>
        <path fill="#08BF5B" d="M77.95 90.378h2.546v1.696h-2.512c-.404 0-.775-.277-.852-.679a.845.845 0 0 1 .819-1.017m0 3.832h4.183a.472.472 0 0 0 .468-.476v-5.138c0-1.612-.68-2.487-1.252-2.937-1.417-1.116-3.545-.852-5.182-.467a.477.477 0 0 0-.348.582l.29 1.148a.47.47 0 0 0 .56.345c2.09-.48 2.996-.23 3.388.08.093.073.345.276.417.895h-2.42c-1.566 0-2.935 1.196-3.04 2.78-.114 1.737 1.247 3.188 2.936 3.188"/>
        <g transform="translate(75 83.92)">
            <mask id="b" fill="#fff">
                <use xlink:href="#a"/>
            </mask>
            <path fill="#08BF5B" d="M-3.296 13.595h14.203V-2.364H-3.296z" mask="url(#b)"/>
        </g>
        <path fill="#08BF5B" d="M86.285 92.796l-1.396 3.372c-.082.2.062.42.276.42h1.928a.38.38 0 0 0 .353-.237l4.537-10.962a.303.303 0 0 0-.275-.42h-1.872c-.19 0-.36.115-.433.291l-1.771 4.28-1.69-4.272a.466.466 0 0 0-.433-.299h-1.75a.39.39 0 0 0-.356.534l2.882 7.293z"/>
        <g transform="translate(83 84.92)">
            <mask id="d" fill="#fff">
                <use xlink:href="#c"/>
            </mask>
            <path fill="#07B53B" d="M-2.929 14.973h15.24V-3.256h-15.24z" mask="url(#d)"/>
        </g>
        <path fill="#08BF5B" d="M68.541 85.135h1.597c1.002 0 1.813.824 1.813 1.84 0 1.015-.811 1.84-1.813 1.84h-1.596v-3.68zM66.43 94.21h1.716a.399.399 0 0 0 .397-.4v-2.452h1.596c2.385 0 4.321-1.963 4.321-4.384 0-2.42-1.936-4.383-4.322-4.383h-3.709a.398.398 0 0 0-.396.4V93.81c0 .222.178.401.396.401z"/>
        <g transform="translate(66 81.92)">
            <mask id="f" fill="#fff">
                <use xlink:href="#e"/>
            </mask>
            <path fill="#08BF5B" d="M-3.272 15.595h15.036V-2.634H-3.272z" mask="url(#f)"/>
        </g>
        <g>
            <path stroke="#08BF5B" stroke-linecap="round" stroke-width="2" d="M59.074 97.91a21.708 21.708 0 0 1-1.504-7.967c0-12.022 9.746-21.77 21.769-21.77 6.81 0 12.89 3.129 16.882 8.027M99.915 82.819a21.729 21.729 0 0 1 1.192 7.124c0 12.023-9.746 21.769-21.768 21.769-6.863 0-12.985-3.176-16.975-8.138"/>
            <path stroke="#08BF5B" stroke-linecap="round" stroke-width="2" d="M88.71 76.659h7.943v-7.943M70.16 103.421H62.22v7.943"/>
            <path stroke="#111" stroke-linecap="round" stroke-width="2" d="M48.002 74.492s-2.303-6.228-8.937-3.926c0 0-3.925.857-3.52 6.634 0 0 .46 14.041-1.378 24.084-.223 1.216-.547 2.402-.917 3.582-1.07 3.407-2.848 9.471 1.753 22.973 0 0 4.062 8.936-2.572 20.445M110.283 64.177s4.435-2.57 6.148 1.764c0 0 2.47 6.249-5.544 11.39"/>
            <path stroke="#111" stroke-linecap="round" stroke-width="2" d="M110.237 78.67s2.303-3.384 5.936.045c0 0 3.974 3.14-.165 9.684 0 0-2.521 3.438-5.438 6.188M81.684 143.454l-2.447 4.882"/>
            <path fill="#FFF" d="M167.149 140.665l-.11-1.268c-1.79-18.3-16.113-32.224-16.113-32.224-4.445-5.128-8.951-.597-8.951-.597-5.172-6.365-9.448-1.79-9.448-1.79l-2.686 2.586c-5.768-6.764-10.543-1.592-10.543-1.592l-3.728 3.932-12.185-11.092c-8.753-8.952-12.333-3.78-12.333-3.78-3.978 4.774 2.601 10.288 2.601 10.288 6.417 5.292 16.297 18.157 16.297 18.157-5.454 3.249-5.831 7.852-5.198 11.123.355 1.84 1.138 3.57 2.171 5.135l6.607 9.999c1.79 2.785 7.558 7.758 14.123 9.548 3.794 1.035 6.146 2.406 7.543 3.503"/>
            <path stroke="#111" stroke-width="2" d="M167.149 140.665l-.11-1.268c-1.79-18.3-16.113-32.224-16.113-32.224-4.445-5.128-8.951-.597-8.951-.597-5.172-6.365-9.448-1.79-9.448-1.79l-2.686 2.586c-5.768-6.764-10.543-1.592-10.543-1.592l-3.728 3.932-12.185-11.092c-8.753-8.952-12.333-3.78-12.333-3.78-3.978 4.774 2.601 10.288 2.601 10.288 6.417 5.292 16.297 18.157 16.297 18.157-5.454 3.249-5.831 7.852-5.198 11.123.355 1.84 1.138 3.57 2.171 5.135l6.607 9.999c1.79 2.785 7.558 7.758 14.123 9.548 3.794 1.035 6.146 2.406 7.543 3.503"/>
            <path fill="#FFF" d="M118.304 136.016s-4.276-7.762-8.354-12.73"/>
            <path stroke="#111" stroke-linecap="round" stroke-width="2" d="M118.304 136.016s-4.276-7.762-8.354-12.73"/>
            <path fill="#FFF" d="M115.262 109.451s6.05 5.855 7.516 7.594"/>
            <path stroke="#111" stroke-linecap="round" stroke-width="2" d="M115.262 109.451s6.05 5.855 7.516 7.594"/>
            <path fill="#FFF" d="M129.841 107.371c.1.1 2.858 3.706 3.58 5.57"/>
            <path stroke="#111" stroke-linecap="round" stroke-width="2" d="M129.841 107.371c.1.1 2.858 3.706 3.58 5.57"/>
            <g>
                <path fill="#FFF" d="M141.975 106.576s2.591 3.15 3.287 4.344"/>
                <path stroke="#111" stroke-linecap="round" stroke-width="2" d="M141.975 106.576s2.591 3.15 3.287 4.344"/>
            </g>
            <path stroke="#111" stroke-linecap="round" stroke-width="2" d="M146.737 179.92c-1.312-3.586-9.244-13.932-11.124-16.138a1.012 1.012 0 0 1-.105-1.16c10.222-17.626 29.562-21.94 33.284-22.621a.985.985 0 0 1 .986.404c1.794 2.534 8.709 12.848 14.125 16.932"/>
            <path stroke="#111" stroke-width="2" d="M176.698 150.004s-23.147 2.628-33.964 23.35"/>
        </g>
    </g>
</svg>
