<svg xmlns="http://www.w3.org/2000/svg" width="300" height="347" viewBox="0 0 300 347">
    <g fill="none" fill-rule="evenodd">
        <path fill="#003369" d="M219.841 229.766l12.588 10.582-8.701 4.288"/>
        <path stroke="#1D100D" stroke-linecap="round" stroke-linejoin="round" stroke-width="3.5" d="M219.841 229.766l12.588 10.582-8.701 4.288"/>
        <g>
            <path fill="#003369" d="M217.926 222.133s5.356-2.429 6.8 3.1c1.299 4.973-2.585 6.133-2.585 6.133"/>
            <path stroke="#1D100D" stroke-linecap="round" stroke-linejoin="round" stroke-width="3.5" d="M217.926 222.133s5.356-2.429 6.8 3.1c1.299 4.973-2.585 6.133-2.585 6.133"/>
            <path fill="#945A43" d="M136.38 254.796l-5.138 33.05s-5.026 4.567-4.382 11.222c.8 8.462 8.432 13.08 18.133 13.892 3.766.32 11.355.118 17.403-2.11 3.26 3.067 8.259 5.016 14.14 5.422 6.454.447 12.992-.224 18.913-2.944 13.273-6.08 19.587-31.716 21.882-40.32 2.717-10.114 5.586-21.364 4.788-31.968-.812-10.817-4.24-17.988-9.058-27.516-3.598-7.131-10.794-19.935-14.895-26.785l-79.367 37.88 17.581 30.177z"/>
            <path fill="#161118" d="M118.8 224.62l79.365-37.881c4.102 6.85 11.298 19.654 14.896 26.785.402.795.791 1.572 1.175 2.338l.283.569a286.633 286.633 0 0 1 1.169 2.394c3.414 7.132 5.776 13.488 6.431 22.215.798 10.604-2.072 21.854-4.788 31.969-1.127 4.222-3.224 12.541-6.63 20.642-14.613 3.484-40.174 1.308-47.28-2.676l-1.453 1.33c-13.16.387-25.412-1.532-30.475-4.37l-.38.037c.076-.077.13-.126.13-.126l5.138-33.05-17.582-30.177z"/>
            <path fill="#92C5EA" d="M136.38 254.796L118.8 224.62l79.367-37.88c4.1 6.85 11.297 19.654 14.895 26.785.403.795.792 1.572 1.174 2.338a231.038 231.038 0 0 1 1.452 2.963c3.416 7.132 5.777 13.488 6.432 22.215"/>
            <path fill="#161118" d="M222.12 241.04c.797 10.605-2.071 21.855-4.789 31.97-1.127 4.22-3.224 12.541-6.63 20.641-14.613 3.483-40.175 1.309-47.28-2.675l-1.453 1.328c-13.16.388-25.413-1.531-30.474-4.368l-.382.035.13-.125 5.138-33.049"/>
            <path stroke="#1D100D" stroke-linecap="round" stroke-linejoin="round" stroke-width="3.5" d="M118.8 224.62c3.41 5.724 14.795 25.397 17.58 30.176l-5.137 33.05s-5.026 4.567-4.382 11.222c.798 8.462 8.43 13.08 18.132 13.892 3.765.32 11.354.118 17.404-2.11 3.26 3.067 8.258 5.016 14.138 5.422 6.456.447 12.992-.224 18.914-2.944 13.272-6.08 19.586-31.716 21.882-40.32 2.716-10.114 5.586-21.364 4.788-31.968-.812-10.817-4.242-17.988-9.058-27.516-3.598-7.131-10.794-19.935-14.896-26.785"/>
            <path stroke="#1D100D" stroke-linecap="round" stroke-linejoin="round" stroke-width="3.5" d="M160.128 262.46s3.079 2.536 7.644 3.727l-4.48 24.685s-6.076 5.436-4.817 12.887c.462 2.734 1.85 5.143 3.921 7.09M163.422 290.975c7.105 3.987 32.67 6.159 47.28 2.674M131.494 287.935c5.06 2.837 17.313 4.758 30.475 4.368"/>
            <path fill="#003369" d="M133.122 254.607c-4.462-7.79-11.893-24.6-14.322-29.986l59.437-13.331c4.77 8.403 13.012 15.025 22.09 16.888 10.597 2.176 19.322.241 19.322.241 4.553 10.248 4.388 29.545.185 44.359h-.002c-30.363 5.356-71.456 1.138-89.535-3.318 0 0 .855-6.913 2.825-14.853"/>
            <path stroke="#1D100D" stroke-linecap="round" stroke-linejoin="round" stroke-width="3.5" d="M133.122 254.607c-4.462-7.79-11.756-24.341-14.322-29.986l59.437-13.331c4.77 8.403 13.012 15.025 22.09 16.888 10.597 2.176 19.322.241 19.322.241 4.553 10.248 4.388 29.545.185 44.359h-.002c-30.363 5.356-71.456 1.138-89.535-3.318 0 0 .855-6.913 2.825-14.853zM178.236 231.825c6.565-2.01 14.71-10.268 18.777-20.535"/>
            <path fill="#92C5EA" d="M181.369 196.854s7.945 7.52 8.085 23.593c.051 5.875-2.893 8.298-4.592 10-2.095 2.096-6.625 4.71-9.002 2.854-6.739-20.96-9.957-38.303 5.509-36.447"/>
            <path stroke="#1D100D" stroke-linecap="round" stroke-linejoin="round" stroke-width="3.5" d="M181.369 196.854s7.945 7.52 8.085 23.593c.051 5.875-2.893 8.298-4.592 10-2.095 2.096-6.625 4.71-9.002 2.854"/>
            <path fill="#945A43" d="M96.261 59.416c-.77-3.96-1.809-11.747 1.981-19.485 4.09-8.348 13.992-13.403 24.27-10.218 9.76 3.022 13.051 11.184 14.52 16.56 7.486-.27 12.236-.387 23.967 1.06 11.683 1.78 16.224 3.173 23.354 5.454 2.87-4.775 8.235-11.743 18.452-12.014 10.76-.284 18.927 7.255 20.61 16.397 1.56 8.48-1.546 15.69-3.352 19.296 5.652 6.678 25.75 27.494 19.34 63.415-6.468 36.275-48.313 68.746-99.51 61.492-51.354-6.789-82.94-49.416-79.375-86.128 3.53-36.322 28.497-50.93 35.743-55.829"/>
            <path fill="#71422A" d="M111.944 37.426c-9.07 3.176-8.885 15.195-6.272 21.089 0 0 3.91-2.387 11.727-5.39 7.813-2.998 12.099-3.89 12.099-3.89-.937-4.72-6.373-15.719-17.554-11.809M210.956 51.102c7.874 5.517 4.44 17.034.329 22 0 0-3.118-3.357-9.828-8.366-6.71-5.004-10.595-7.026-10.595-7.026 2.18-4.29 10.39-13.404 20.094-6.608"/>
            <path stroke="#1D100D" stroke-linecap="round" stroke-linejoin="round" stroke-width="3.5" d="M96.261 59.416c-.77-3.96-1.809-11.747 1.981-19.485 4.09-8.348 13.992-13.403 24.27-10.218 9.76 3.022 13.051 11.184 14.52 16.56 7.486-.27 12.236-.387 23.967 1.06 11.683 1.78 16.224 3.173 23.354 5.454 2.87-4.775 8.235-11.743 18.452-12.014 10.76-.284 18.927 7.255 20.61 16.397 1.56 8.48-1.546 15.69-3.352 19.296 5.652 6.678 25.75 27.494 19.34 63.415-6.468 36.275-48.313 68.746-99.51 61.492-51.354-6.789-82.94-49.416-79.375-86.128 3.53-36.322 28.497-50.93 35.743-55.829z"/>
            <path fill="#FAD8BE" d="M128.266 144.85c-1.656 12.001 5.475 22.9 15.922 24.342 10.451 1.445 20.266-7.114 21.92-19.115 1.656-11.999-5.476-22.898-15.925-24.344-10.448-1.44-20.262 7.118-21.917 19.117"/>
            <path stroke="#1D100D" stroke-linecap="round" stroke-linejoin="round" stroke-width="3.5" d="M147.214 147.247l-7.193 6.738m10.413 5.53l-3.22-12.268 1.495-10.835"/>
            <path fill="#1D100D" d="M148.216 140.003c3.45.476 8.438-5.036 8.198-7.55-.236-2.513-3.955-2.982-6.693-3.36-2.739-.379-6.443-.934-7.353 1.421-.913 2.354 2.402 9.013 5.848 9.49M134.132 116.78a6.024 6.024 0 0 0 5.14 6.79 6.023 6.023 0 0 0 1.646-11.93 6.019 6.019 0 0 0-6.786 5.14M156.133 119.82a6.025 6.025 0 0 0 5.142 6.79 6.02 6.02 0 0 0 6.785-5.143 6.02 6.02 0 1 0-11.927-1.648"/>
            <path fill="#945A43" d="M116.352 178.78c-19.041.66-23.898 22.864-19.376 37.38 4.297 13.785 18.452 21.67 33.782 15.998 16.029-5.954 14.209-27.768 7.153-40.153-4.536-7.971-12.138-13.56-21.559-13.225"/>
            <path stroke="#1D100D" stroke-linecap="round" stroke-linejoin="round" stroke-width="3.5" d="M116.352 178.78c-19.041.66-23.898 22.864-19.376 37.38 4.297 13.785 18.452 21.67 33.782 15.998 16.029-5.954 14.209-27.768 7.153-40.153-4.536-7.971-12.138-13.56-21.559-13.225z"/>
            <path fill="#945A43" d="M178.236 231.824c.408-9.595-.847-17.67-2.657-22.755-4.208-11.818-9.885-24.629-23.926-27.753-8.415-1.877-18.284.817-22.708 8.116-4.87 8.014-4.347 17.703-.918 27.254 2.356 6.563 7.943 13.03 14.187 16.617 7.728 4.427 19.196 4.864 27.806 2.413a27.657 27.657 0 0 0 8.216-3.89v-.002z"/>
            <path stroke="#1D100D" stroke-linecap="round" stroke-linejoin="round" stroke-width="3.5" d="M178.236 231.824c.51-9.012-.847-17.67-2.657-22.755-4.208-11.818-9.885-24.629-23.926-27.753-8.415-1.877-18.284.817-22.708 8.116-4.87 8.014-4.347 17.703-.918 27.254 2.356 6.563 7.943 13.03 14.187 16.617 7.728 4.427 19.196 4.864 27.806 2.413a27.657 27.657 0 0 0 8.216-3.89v-.002z"/>
        </g>
    </g>
</svg>
