<svg xmlns="http://www.w3.org/2000/svg" xmlns:xlink="http://www.w3.org/1999/xlink" width="72" height="72" viewBox="0 0 72 72">
    <defs>
        <path id="a" d="M0 52h52V0H0z"/>
    </defs>
    <g fill="none" fill-rule="evenodd">
        <path d="M0 0h72v72H0z"/>
        <g transform="translate(10 10)">
            <path stroke="#262424" d="M48 51H4a3 3 0 0 1-3-3V4a3 3 0 0 1 3-3h44a3 3 0 0 1 3 3v44a3 3 0 0 1-3 3z"/>
            <path fill="#08BF5B" d="M40.528 43.529H11.471c-1.656 0-3-1.344-3-3V11.472a3 3 0 0 1 3-3h29.057a3 3 0 0 1 3 3v29.057a3 3 0 0 1-3 3"/>
            <mask id="b" fill="#fff">
                <use xlink:href="#a"/>
            </mask>
            <path fill="#262424" d="M30.898 21.012h4.183v-3.929h-4.183v3.929zm-1.716 1.966H37.048v-7.861h-8.116v7.861h.25zM16.898 21.012h4.183v-3.929h-4.183v3.929zm-1.716 1.966H23.048v-7.861h-8.116v7.861h.25zM25.182 22.978h1.717v-7.861h-1.967v7.86zM29.182 32.876h1.607V26.85h4.407v6.026H37.052v-7.859h-8.12v7.86zM16.898 34.916h4.183v-3.928h-4.183v3.928zm-1.966 1.967h8.116v-7.861h-8.116v7.861z" mask="url(#b)"/>
            <path fill="#262424" d="M27.165 34.832v-9.815H14.932v1.966h10.266V36.8h11.87v-1.967z" mask="url(#b)"/>
        </g>
    </g>
</svg>
