<svg xmlns="http://www.w3.org/2000/svg" width="72" height="72" viewBox="0 0 72 72">
    <g fill="none" fill-rule="evenodd">
        <path d="M0 0h72v72H0z" opacity=".3"/>
        <path fill="#FFF" stroke="#262424" stroke-width="2" d="M52 65H20c-1.65 0-3-1.35-3-3V10c0-1.65 1.35-3 3-3h32c1.65 0 3 1.35 3 3v52c0 1.65-1.35 3-3 3z"/>
        <path stroke="#262424" stroke-linecap="round" stroke-width="2" d="M33 60.02h6"/>
        <path fill="#08BF5B" d="M42.56 37.694H29.44c-3.396 0-6.174-2.777-6.174-6.173 0-3.395 2.778-6.173 6.174-6.173H42.56c3.395 0 6.173 2.778 6.173 6.173 0 3.396-2.778 6.173-6.173 6.173"/>
        <path fill="#FFF" d="M31.515 31.135h-.965v-1.917h.965c.606 0 1.097.43 1.097.96 0 .528-.491.957-1.097.957m-.112-3.102h-1.92a.203.203 0 0 0-.205.2v5.391c0 .11.092.2.205.2h.889a.202.202 0 0 0 .205-.2v-1.22h.826c1.236 0 2.237-.98 2.237-2.186 0-1.207-1.001-2.185-2.237-2.185M42.567 29.218h-.969a.244.244 0 0 0-.224.146l-.916 2.132-.874-2.129a.244.244 0 0 0-.225-.149h-.906a.195.195 0 0 0-.184.267l1.491 3.633-.722 1.681a.15.15 0 0 0 .143.21h.997c.08 0 .152-.047.183-.119l2.35-5.462a.152.152 0 0 0-.144-.21M36.73 32.785h-1.292c-.246 0-.473-.145-.52-.356-.063-.285.186-.535.5-.535h1.313v.891zm.477-3.223c-.734-.556-1.835-.424-2.683-.233a.237.237 0 0 0-.18.29l.15.572c.033.125.162.2.29.172 1.082-.239 1.55-.114 1.754.04.048.036.178.138.215.445H35.5c-.81 0-1.52.597-1.573 1.386-.06.865.645 1.59 1.519 1.59h2.165a.24.24 0 0 0 .243-.238v-2.56c0-.804-.353-1.24-.648-1.464z"/>
    </g>
</svg>
