<svg xmlns="http://www.w3.org/2000/svg" width="72" height="72" viewBox="0 0 72 72">
    <g fill="none" fill-rule="evenodd">
        <path d="M0 0h72v72H0z" opacity=".3"/>
        <path fill="#FFF" stroke="#262424" stroke-linecap="round" stroke-width="2" d="M26.078 45.66c3.383 7.71 11.085 13.096 20.045 13.096C58.205 58.756 68 48.96 68 36.878 68 24.796 58.205 15 46.123 15c-8.98 0-16.696 5.41-20.067 13.148"/>
        <path fill="#08BF5B" d="M47.755 36.877c0 3.124-.654 6.094-1.833 8.782-3.383 7.71-11.085 13.096-20.045 13.096C13.795 58.755 4 48.96 4 36.877 4 24.795 13.795 15 25.877 15c8.98 0 16.696 5.41 20.067 13.15a21.797 21.797 0 0 1 1.811 8.728"/>
        <path fill="#08BF5B" d="M45.922 45.66c-3.383 7.71-11.085 13.096-20.045 13.096C13.795 58.756 4 48.96 4 36.878 4 24.796 13.795 15 25.877 15c8.98 0 16.696 5.41 20.067 13.148"/>
        <path stroke="#262424" stroke-linecap="round" stroke-width="2" d="M45.922 45.66c-3.383 7.71-11.085 13.096-20.045 13.096C13.795 58.756 4 48.96 4 36.878 4 24.796 13.795 15 25.877 15c8.98 0 16.696 5.41 20.067 13.148"/>
        <path stroke="#FFF" stroke-linecap="round" stroke-linejoin="round" stroke-width="2" d="M25.877 34.981l-5.064-6.032M25.877 34.981l5.064-6.032M25.877 34.851v9.956M20.544 39.829h10.667M20.544 34.851h10.667"/>
        <path stroke="#262424" stroke-linecap="round" stroke-linejoin="round" stroke-width="2" d="M48.382 32.42l5.121 5.118H36.171"/>
    </g>
</svg>
