<svg xmlns="http://www.w3.org/2000/svg" width="72" height="72" viewBox="0 0 72 72">
    <g fill="none" fill-rule="evenodd">
        <path d="M0 0h72v72H0z" opacity=".3"/>
        <path fill="#08BF5B" d="M65.376 36.268c0 3.179-.666 6.202-1.866 8.938-3.444 7.847-11.282 13.33-20.402 13.33-12.297 0-22.267-9.97-22.267-22.268 0-12.3 9.97-22.268 22.267-22.268 9.14 0 16.994 5.506 20.425 13.382a22.208 22.208 0 0 1 1.843 8.886"/>
        <path stroke="#262424" stroke-linecap="round" stroke-width="2" d="M65.376 36.268c0 3.179-.666 6.202-1.866 8.938-3.444 7.847-11.282 13.33-20.402 13.33-12.297 0-22.267-9.97-22.267-22.268 0-12.3 9.97-22.268 22.267-22.268 9.14 0 16.994 5.506 20.425 13.382a22.208 22.208 0 0 1 1.843 8.886z"/>
        <path stroke="#FFF" stroke-linecap="round" stroke-linejoin="round" stroke-width="2" d="M43.108 34.336l-5.154-6.14M43.108 34.336l5.155-6.14M43.108 34.204v10.134M37.68 39.27h10.857M37.68 34.204h10.857"/>
        <path stroke="#262424" stroke-linecap="round" stroke-width="2" d="M10.536 29.633H17.5M6 36.268h11.501M10.536 42.902H17.5"/>
    </g>
</svg>
