<svg xmlns="http://www.w3.org/2000/svg" width="72" height="72" viewBox="0 0 72 72">
    <g fill="none" fill-rule="evenodd">
        <path d="M0 0h72v72H0z" opacity=".3"/>
        <path stroke="#262424" stroke-linecap="round" stroke-width="2" d="M60 29.337c-14.885-14.883-39.111-14.887-54 0M51.895 37.443c-10.417-10.42-27.37-10.418-37.788 0M43.788 45.552a15.158 15.158 0 0 0-10.79-4.47 15.155 15.155 0 0 0-10.786 4.47M36.992 56.453a3.882 3.882 0 1 1-7.765.001 3.882 3.882 0 0 1 7.765-.001z"/>
        <path fill="#08BF5B" d="M65.19 25.44c0 7.421-6.017 13.437-13.439 13.437S38.312 32.861 38.312 25.44C38.312 18.016 44.33 12 51.752 12c7.421 0 13.438 6.016 13.438 13.44"/>
        <path stroke="#262424" stroke-linecap="round" stroke-width="2" d="M65.19 25.44c0 7.421-6.017 13.437-13.439 13.437S38.312 32.861 38.312 25.44C38.312 18.016 44.33 12 51.752 12c7.421 0 13.438 6.016 13.438 13.44z"/>
        <path stroke="#FFF" stroke-linecap="round" stroke-width="2" d="M47.102 24.728l4.006 3.657 5.573-5.747"/>
    </g>
</svg>
