<svg xmlns="http://www.w3.org/2000/svg" width="120" height="120" viewBox="0 0 120 120">
    <g fill="none" fill-rule="evenodd">
        <path d="M0 0h120v120H0z" opacity=".2"/>
        <path fill="#08BF5B" d="M50.233 42.55H32.767c-.424 0-.767-.246-.767-.548v-4.905c0-.302.343-.547.767-.547h17.466c.424 0 .767.245.767.547v4.905c0 .302-.343.548-.767.548"/>
        <path stroke="#08BF5B" stroke-linecap="round" stroke-width="2" d="M59.982 96h7.625"/>
        <g stroke="#262424" stroke-linecap="round" stroke-linejoin="round" stroke-width="2">
            <path d="M67.65 91.835V36.609M72.837 28.55H32.252A6.252 6.252 0 0 0 26 34.8v57.035"/>
            <path fill="#FFF" d="M78.475 39.05H67.642v-5.083a5.417 5.417 0 1 1 10.833 0v5.083z"/>
        </g>
        <g stroke="#262424" stroke-linecap="round" stroke-linejoin="round" stroke-width="2">
            <path d="M33 51.05h27M33 59.2h27M33 67.352h14"/>
        </g>
        <path stroke="#262424" stroke-linecap="round" stroke-linejoin="round" stroke-width="2" d="M26.192 92.118l5.248 4 5.247-4 5.248 4 5.25-4 5.247 4 5.25-4 5.255 4 5.255-4"/>
        <g stroke="#08BF5B" stroke-linecap="round" stroke-linejoin="round" stroke-width="2">
            <path d="M23.082 24.315l2.395 2.395M34.649 18v3.387M16 36.65h3.386"/>
        </g>
        <g>
            <path fill="#FFF" stroke="#262424" stroke-linecap="round" stroke-linejoin="round" stroke-width="2" d="M101.007 103.997H56.993c-1.646 0-2.993-1.333-2.993-2.963V70.96c0-1.63 1.347-2.963 2.993-2.963h44.014c1.646 0 2.993 1.332 2.993 2.963v30.074c0 1.63-1.347 2.963-2.993 2.963z"/>
            <path fill="#08BF5B" d="M55 83h48v-8H55zM98.233 97.55H80.767c-.424 0-.767-.246-.767-.548v-4.905c0-.302.343-.547.767-.547h17.466c.424 0 .767.245.767.547v4.905c0 .302-.343.548-.767.548"/>
        </g>
    </g>
</svg>
