<svg xmlns="http://www.w3.org/2000/svg" width="208" height="208" viewBox="0 0 208 208">
    <g fill="none" fill-rule="evenodd">
        <g stroke="#111" stroke-width="2">
            <path d="M129.319 166H46.68c-3.69 0-6.681-2.826-6.681-6.312V48.312C40 44.826 42.992 42 46.681 42h82.638c3.69 0 6.681 2.826 6.681 6.312v111.376c0 3.486-2.992 6.312-6.681 6.312z"/>
            <path stroke-linecap="round" d="M84 49.5h8M92 155.5a3.5 3.5 0 1 1-7 0 3.5 3.5 0 0 1 7 0z"/>
        </g>
        <g fill="#111">
            <path d="M96.796 94.977h7.806v-7.315h-7.806v7.315zm-3.203 3.661H108.273V84H93.125v14.64h.467zM70.67 94.977h7.806v-7.315H70.67v7.315zm-3.203 3.661H82.145V84H67.001v14.64h.466zM86.129 98.638H89.332V84h-3.67v14.64zM93.593 117.071h2.999V105.85h8.223v11.222H108.279v-14.636H93.125v14.636zM70.67 120.87h7.806v-7.315H70.67v7.314zM67 124.531h15.145v-14.639H67.001v14.639z"/>
            <path d="M89.829 120.713v-18.278H67v3.663H86.16v18.278h22.15v-3.663z"/>
        </g>
        <g stroke="#111" stroke-linecap="round" stroke-width="2">
            <path fill="#FFF" d="M160.971 159H125.03c-3.867 0-7.029-3.234-7.029-7.188V72.188c0-3.953 3.162-7.188 7.029-7.188h35.942c3.865 0 7.029 3.235 7.029 7.188v79.624c0 3.954-3.164 7.188-7.029 7.188z"/>
            <path d="M139 72.5h9M139 152.5h9"/>
        </g>
        <g>
            <path fill="#08BF5B" d="M158.265 115.457c0 2.161-.453 4.215-1.269 6.074-2.339 5.333-7.667 9.059-13.863 9.059-8.357 0-15.133-6.776-15.133-15.133s6.776-15.132 15.133-15.132c6.21 0 11.547 3.742 13.879 9.094a15.08 15.08 0 0 1 1.253 6.038"/>
            <g stroke="#FFF" stroke-linecap="round" stroke-linejoin="round">
                <path d="M140.548 111h3.096c1.57 0 2.856 1.125 2.856 2.5s-1.285 2.5-2.856 2.5H140.5M140.548 116.325h3.096c1.57 0 2.856 1.125 2.856 2.5s-1.285 2.5-2.856 2.5H140.5M140.5 111v10.325M143 109.325v13"/>
            </g>
            <g stroke="#08BF5B" stroke-linecap="round" stroke-linejoin="round" stroke-width="2">
                <path d="M143.471 93v2.826M154.026 96.1l-2 1.998M132.011 96.1l1.999 1.998"/>
            </g>
        </g>
    </g>
</svg>
