<svg xmlns="http://www.w3.org/2000/svg" width="72" height="72" viewBox="0 0 72 72">
    <g fill="none" fill-rule="evenodd">
        <path d="M0 0h72v72H0z" opacity=".3"/>
        <g stroke-width="2">
            <path fill="#FFF" stroke="#262424" d="M45 56H13c-1.65 0-3-1.326-3-2.948V14.948C10 13.327 11.35 12 13 12h32c1.65 0 3 1.327 3 2.948v38.104C48 54.674 46.65 56 45 56z"/>
            <path stroke="#262424" stroke-linecap="round" d="M17 24.771h24M17 33.771h12"/>
            <path fill="#08BF5B" stroke="#262424" d="M61.79 45.032c0 8.284-6.717 15-15 15-8.285 0-15-6.716-15-15 0-8.284 6.715-15 15-15 8.283 0 15 6.716 15 15z"/>
            <path stroke="#FFF" stroke-linecap="round" d="M41.79 44.97l3.162 3.164 6.101-6.102"/>
        </g>
    </g>
</svg>
