<svg xmlns="http://www.w3.org/2000/svg" width="72" height="72" viewBox="0 0 72 72">
    <g fill="none" fill-rule="evenodd">
        <path d="M0 0h72v72H0z" opacity=".3"/>
        <path fill="#FFF" stroke="#262424" stroke-linecap="round" stroke-width="2" d="M55.446 61H16.725a3 3 0 0 1-3-3V31.108h44.72V58a3 3 0 0 1-3 3z"/>
        <path fill="#08BF5B" d="M10.132 27.328l7.059-15.675c.175-.393.616-.653 1.108-.653h35.608c.493 0 .934.262 1.109.656l7.009 15.693a.889.889 0 0 1 .076.332c.023.877.045 2.582.045 2.582 0 3.207-3.155 5.782-6.951 5.571-3.464-.193-6.084-2.789-6.084-5.763v-2.446h-.001v2.446c0 2.974-2.621 5.571-6.084 5.763-3.797.211-6.952-2.364-6.952-5.57v-2.639h-.002v2.638c0 3.084-2.918 5.584-6.517 5.584h-.001c-3.599 0-6.517-2.5-6.517-5.584v-2.638h-.002v2.638c0 3.084-2.918 5.584-6.517 5.584-3.6 0-6.518-2.5-6.518-5.584l.054-2.583a.88.88 0 0 1 .078-.352"/>
        <path stroke="#262424" stroke-linecap="round" stroke-linejoin="round" stroke-width="2" d="M10.132 27.328l7.059-15.675c.175-.393.616-.653 1.108-.653h35.608c.493 0 .934.262 1.109.656l7.009 15.693a.889.889 0 0 1 .076.332c.023.877.045 2.582.045 2.582 0 3.207-3.155 5.782-6.951 5.571-3.464-.193-6.084-2.789-6.084-5.763v-2.446h-.001v2.446c0 2.974-2.621 5.571-6.084 5.763-3.797.211-6.952-2.364-6.952-5.57v-2.639h-.002v2.638c0 3.084-2.918 5.584-6.517 5.584h-.001c-3.599 0-6.517-2.5-6.517-5.584v-2.638h-.002v2.638c0 3.084-2.918 5.584-6.517 5.584-3.6 0-6.518-2.5-6.518-5.584l.054-2.583a.88.88 0 0 1 .078-.352zM17.53 23.72h37.227"/>
        <g stroke="#262424" stroke-linecap="round" stroke-linejoin="round" stroke-width="1.836">
            <path d="M36.169 43.998l2.884-2.874c.53-.528 1.24-.82 1.997-.82a2.808 2.808 0 0 1 2.82 2.81c0 .754-.293 1.461-.824 1.99l-3.771 3.76a2.836 2.836 0 0 1-3.995 0"/>
            <path d="M36.39 51.737l-2.44 2.433c-.53.529-1.24.82-1.996.82a2.809 2.809 0 0 1-1.998-4.8l3.551-3.538c.53-.53 1.24-.82 1.996-.82s1.466.29 1.997.82"/>
        </g>
    </g>
</svg>
