<svg xmlns="http://www.w3.org/2000/svg" width="72" height="72" viewBox="0 0 72 72">
    <g fill="none" fill-rule="evenodd">
        <path d="M0 0h72v72H0z" opacity=".3"/>
        <path fill="#FFF" stroke="#262424" stroke-width="2" d="M52.357 61.377H20.643A2.65 2.65 0 0 1 18 58.72l2.026-46.18a2.65 2.65 0 0 1 2.643-2.655h27.926a2.65 2.65 0 0 1 2.643 2.655L55 58.721a2.65 2.65 0 0 1-2.643 2.656z"/>
        <path fill="#08BF5B" d="M45.498 47.453H27.501a.694.694 0 0 1-.691-.696l1.384-25.504c0-.383.31-.694.692-.694h15.228c.383 0 .692.311.692.694l1.385 25.504c0 .385-.31.696-.693.696"/>
        <path stroke="#262424" stroke-width="2" d="M40.17 55.031h-7.34a1.624 1.624 0 0 1 0-3.246h7.34a1.624 1.624 0 0 1 0 3.246z"/>
        <path stroke="#262424" stroke-linecap="round" stroke-width="2" d="M33.857 16.119h5.286"/>
    </g>
</svg>
