<svg xmlns="http://www.w3.org/2000/svg" width="72" height="72" viewBox="0 0 72 72">
    <g fill="none" fill-rule="evenodd">
        <path d="M0 0h72v72H0z" opacity=".3"/>
        <g stroke="#262424" stroke-linecap="round" stroke-linejoin="round" stroke-width="2.1">
            <path d="M18.936 22.405h-9.44M5 33.953h7.193M18.786 45.801h-7.042"/>
            <g>
                <path fill="#FFF" d="M48.569 25.359h8.714l9.165 11.36v13.903H48.57"/>
                <path fill="#08BF5B" d="M16.569 51.359h32.603v-36H16.57z"/>
                <path fill="#FFF" d="M61.336 51.732a4.572 4.572 0 0 1-4.57 4.575 4.572 4.572 0 0 1-4.57-4.575 4.572 4.572 0 0 1 4.57-4.575 4.572 4.572 0 0 1 4.57 4.575zM29.91 51.732a4.572 4.572 0 0 1-4.57 4.575 4.573 4.573 0 0 1-4.57-4.575 4.573 4.573 0 0 1 4.57-4.575 4.572 4.572 0 0 1 4.57 4.575z"/>
            </g>
        </g>
    </g>
</svg>
