<svg xmlns="http://www.w3.org/2000/svg" width="88" height="88" viewBox="0 0 88 88">
    <g fill="none" fill-rule="evenodd">
        <path d="M0 0h88v88H0z" opacity=".5"/>
        <g stroke="#111" stroke-linecap="round" stroke-width="2">
            <path d="M24.567 58.217v-41.35a3.677 3.677 0 0 1 3.666-3.667h31.403a3.677 3.677 0 0 1 3.667 3.667V70.56a3.677 3.677 0 0 1-3.667 3.667H28.233a3.677 3.677 0 0 1-3.666-3.667V55.842M40.778 68.988h6.313M40.778 18.877h6.313"/>
        </g>
        <path fill="#08BF5B" d="M56.056 57.095H31.814a.734.734 0 0 1-.734-.733V32.12c0-.405.33-.734.734-.734h24.242c.405 0 .733.329.733.734v24.242a.733.733 0 0 1-.733.733"/>
        <path stroke="#FFF" stroke-linecap="round" stroke-width="1.5" d="M34.643 37.16v14.353M43.988 37.16v14.353M39.316 37.16v10.047M43.988 37.16v10.047M48.66 37.16v10.047M53.332 37.16v14.353"/>
        <path stroke="#FFF" stroke-linecap="round" stroke-width="2" d="M48.66 49.924v1.59"/>
        <g stroke="#57BA66" stroke-linecap="round" stroke-linejoin="round" stroke-width="2">
            <path d="M21.267 34.63v-7.763h7.763M66.603 34.63v-7.763H58.84M66.603 53.85v7.764H58.84M21.267 53.85v7.764h7.763"/>
        </g>
    </g>
</svg>
