<svg xmlns="http://www.w3.org/2000/svg" width="140" height="140" viewBox="0 0 140 140">
    <g fill="none" fill-rule="evenodd">
        <path d="M0 0h140v140H0z"/>
        <g stroke-width="2">
            <path stroke="#111" d="M78.993 113.333H34.34c-1.837 0-3.34-1.56-3.34-3.468V23.469C31 21.56 32.503 20 34.34 20h44.653c1.837 0 3.34 1.56 3.34 3.469v86.396c0 1.907-1.503 3.468-3.34 3.468z"/>
            <path stroke="#111" stroke-linecap="round" d="M52 105.556h9.333M52 27.778h9.333"/>
            <g stroke="#08BF5B" stroke-linecap="round" stroke-linejoin="round">
                <path d="M67.936 40.443h3.633c1.843 0 3.351 1.194 3.351 2.655 0 1.46-1.508 2.655-3.351 2.655H67.88M67.936 45.753h3.633c1.843 0 3.351 1.195 3.351 2.656 0 1.46-1.508 2.655-3.351 2.655H67.88M67.88 40.443v10.621M71.4 38.673v14.161"/>
            </g>
        </g>
        <g fill="#ECECEC" transform="translate(38 62)">
            <circle cx="33.444" cy="3.889" r="3.889"/>
            <circle cx="33.444" cy="17.111" r="3.889"/>
            <circle cx="31.889" cy="30.333" r="3.889"/>
            <circle cx="17.889" cy="3.889" r="3.889"/>
            <circle cx="17.889" cy="17.111" r="3.889"/>
            <circle cx="17.889" cy="30.333" r="3.889"/>
            <circle cx="3.889" cy="3.889" r="3.889"/>
            <circle cx="3.889" cy="17.111" r="3.889"/>
            <circle cx="3.889" cy="30.333" r="3.889"/>
        </g>
        <path fill="#FFF" d="M104.834 104.176l.147-.766c2-11.098-4.097-21.712-4.097-21.712-1.758-3.77-5.163-1.851-5.163-1.851-1.98-4.621-5.257-2.638-5.257-2.638l-2.01 1.076c-2.263-4.956-5.933-2.704-5.933-2.704l-2.848 1.696-5.313-8.585c-3.653-6.748-6.62-4.296-6.62-4.296-3.136 2.151-.188 6.507-.188 6.507 2.89 4.197 6.553 13.442 6.553 13.442-3.748 1.004-4.738 3.657-4.912 5.693-.097 1.145.074 2.297.42 3.393l2.217 7.006c.587 1.944 3.15 5.844 6.71 8 2.058 1.245 3.213 2.448 3.85 3.329"/>
        <path stroke="#111" stroke-width="2" d="M104.834 104.176l.147-.766c2-11.098-4.097-21.712-4.097-21.712-1.758-3.77-5.163-1.851-5.163-1.851-1.98-4.621-5.257-2.638-5.257-2.638l-2.01 1.076c-2.263-4.956-5.933-2.704-5.933-2.704l-2.848 1.696-5.313-8.585c-3.653-6.748-6.62-4.296-6.62-4.296-3.136 2.151-.188 6.507-.188 6.507 2.89 4.197 6.553 13.442 6.553 13.442-3.748 1.004-4.738 3.657-4.912 5.693-.097 1.145.074 2.297.42 3.393l2.217 7.006c.587 1.944 3.15 5.844 6.71 8 2.058 1.245 3.213 2.448 3.85 3.329"/>
        <path fill="#FFF" d="M76.893 93.256s-1.219-5.297-2.789-8.911"/>
        <path stroke="#111" stroke-linecap="round" stroke-width="2" d="M76.893 93.256s-1.219-5.297-2.789-8.911"/>
        <path fill="#FFF" d="M79.536 77.072s2.579 4.467 3.152 5.738"/>
        <path stroke="#111" stroke-linecap="round" stroke-width="2" d="M79.536 77.072s2.579 4.467 3.152 5.738"/>
        <g>
            <path fill="#FFF" d="M88.454 78.285c.042.075 1.063 2.665 1.176 3.887"/>
            <path stroke="#111" stroke-linecap="round" stroke-width="2" d="M88.454 78.285c.042.075 1.063 2.665 1.176 3.887"/>
        </g>
        <g>
            <path fill="#FFF" d="M95.72 79.847s.999 2.293 1.209 3.114"/>
            <path stroke="#111" stroke-linecap="round" stroke-width="2" d="M95.72 79.847s.999 2.293 1.209 3.114"/>
        </g>
        <path fill="#FFF" stroke="#111" stroke-linecap="round" stroke-width="2" d="M108.36 111.134c-1.59-3.243-1.831-4.988-2.386-6.564a.597.597 0 0 0-.506-.399c-2.288-.22-14.39-.92-23.347 7.775a.623.623 0 0 0-.132.702 359.7 359.7 0 0 1 2.666 6.29.718.718 0 0 0 1.062.326c2.54-1.686 11.261-7.053 21.984-7.085a.727.727 0 0 0 .66-1.045z"/>
    </g>
</svg>
