<svg xmlns="http://www.w3.org/2000/svg" width="140" height="140" viewBox="0 0 140 140">
    <g fill="none" fill-rule="evenodd">
        <path d="M0 0h140v140H0z"/>
        <path fill="#FFF" d="M108.767 78.642l-5.404 2.42-13.881 7.766-.974-1.314-2.032-3.78-7.175-1.89-7.807-.783-5.818-2.065L58.921 77l-4.731.452-4.768 1.19-4.17 3.203L56.108 97.12l11.567 8.079 9.604.83 11.492-5.573s12.98-10.902 13.237-10.902c.172 0 3.063-2.25 8.673-6.75l-1.913-4.162z"/>
        <path stroke="#111" stroke-width="2" d="M52.438 108.835c2.598-1.53 3.002-1.841 6.933-2.527 4.294-.748 19.386.34 23.306.15 3.503-.167 4.577-.718 6.235-1.877 5.198-3.633 18.723-14.12 23.235-17.528 3.282-2.48 4.993-4.991 3.556-7.384-1.551-2.584-5.643-2.427-9.21-.508-8.573 4.61-17.803 9.844-17.803 9.844"/>
        <path stroke="#111" stroke-width="2" d="M38.614 91.006s2.746-7.213 7.896-10.76c3.072-2.117 7.749-3.971 13.7-2.964 3.877.657 8.953 3.36 12.177 4.037 3.226.678 7.293.073 10.836.92 4.618 1.104 6.075 3.523 5.938 6.051-.14 2.555-2.112 4.191-7.447 3.994-2.711-.1-6.83-.123-10.347.054-3.984.202-5.571.995-5.571.995"/>
        <path fill="#FFF" stroke="#111" stroke-linecap="round" stroke-linejoin="round" stroke-width="2" d="M34.43 85.522l-10.32 10.43L49.57 121.3l10.318-10.43z"/>
        <g>
            <path fill="#08BF5B" stroke="#111" stroke-linecap="round" stroke-linejoin="round" stroke-width="2" d="M98.035 43.104c0-12.784-12.56-23.185-28-23.185-15.439 0-28 10.401-28 23.185 0 11.461 9.961 21.06 23.416 22.875.912.2 2.154.613 2.467 1.409.282.721.185 1.853.09 2.583l-.399 2.445c-.122.723-.563 2.825 2.425 1.54 2.989-1.284 16.125-9.688 22-16.587h-.002c4.059-4.54 6.003-9.148 6.003-14.265"/>
            <path fill="#FFF" d="M65.564 37.583h-1.617a.454.454 0 0 0-.45.459V48.3c0 .253.202.458.45.458h1.617c.248 0 .45-.205.45-.458V38.042a.454.454 0 0 0-.45-.459M76.695 37.583h-1.617a.453.453 0 0 0-.45.459v6.094l-4.602-6.349-.035-.046-.004-.003a.354.354 0 0 0-.06-.056l-.01-.01-.024-.017-.013-.007-.024-.014a.151.151 0 0 1-.015-.008l-.025-.01-.015-.006-.026-.009c-.005 0-.01-.002-.016-.004l-.026-.006-.019-.002c-.007-.002-.016-.003-.023-.003l-.023-.002h-1.633a.453.453 0 0 0-.45.458V48.3c0 .253.201.458.45.458h1.616c.248 0 .45-.205.45-.458v-6.093l4.609 6.357a.454.454 0 0 0 .114.113l.005.004.027.017a.125.125 0 0 1 .013.007c.007.004.014.008.021.01.008.004.015.008.022.01l.014.005a.264.264 0 0 0 .037.012c.036.01.075.016.115.016h1.617a.453.453 0 0 0 .449-.458V38.042c0-.253-.2-.459-.449-.459M61.666 46.189h-4.394v-8.147c0-.253-.2-.459-.448-.459h-1.618a.454.454 0 0 0-.449.459v10.257c0 .124.049.236.126.318l.007.007.006.006a.44.44 0 0 0 .31.128h6.46a.454.454 0 0 0 .448-.459v-1.652c0-.253-.2-.458-.448-.458M85.625 40.153a.453.453 0 0 0 .449-.46v-1.65c0-.254-.201-.46-.449-.46h-6.46c-.122 0-.23.05-.312.13l-.005.005-.008.007a.466.466 0 0 0-.124.317V48.3a.46.46 0 0 0 .126.318l.006.007.006.006c.081.08.19.128.31.128h6.461a.453.453 0 0 0 .449-.459v-1.651c0-.253-.201-.459-.449-.459h-4.394v-1.734h4.394a.453.453 0 0 0 .449-.459v-1.651c0-.254-.201-.46-.449-.46h-4.394v-1.732h4.394z"/>
        </g>
    </g>
</svg>
