<svg xmlns="http://www.w3.org/2000/svg" width="140" height="140" viewBox="0 0 140 140">
    <g fill="none" fill-rule="evenodd">
        <path d="M0 0h140v140H0z"/>
        <g stroke-width="1.5">
            <path stroke="#111" d="M79.364 115H33.436c-1.89 0-3.436-1.605-3.436-3.568V22.568C30 20.605 31.546 19 33.436 19h45.928c1.89 0 3.436 1.605 3.436 3.568v88.864c0 1.963-1.546 3.568-3.436 3.568z"/>
            <path stroke="#111" stroke-linecap="round" d="M51.6 107h9.6M51.6 27h9.6"/>
            <g stroke="#08BF5B" stroke-linecap="round">
                <path d="M70.8 43.8l-4-4.8M71.6 43.8l4-4.8M71.2 43.8v8M66.8 47.4h8.8M66.8 43.4h8.8"/>
            </g>
        </g>
        <g fill="#ECECEC" transform="translate(37.2 62.2)">
            <circle cx="34.4" cy="4" r="4"/>
            <circle cx="34.4" cy="17.6" r="4"/>
            <circle cx="32.8" cy="31.2" r="4"/>
            <circle cx="18.4" cy="4" r="4"/>
            <circle cx="18.4" cy="17.6" r="4"/>
            <circle cx="18.4" cy="31.2" r="4"/>
            <circle cx="4" cy="4" r="4"/>
            <circle cx="4" cy="17.6" r="4"/>
            <circle cx="4" cy="31.2" r="4"/>
        </g>
        <path fill="#FFF" d="M105.944 105.581l.15-.788c2.058-11.415-4.214-22.332-4.214-22.332-1.808-3.878-5.31-1.904-5.31-1.904-2.036-4.754-5.407-2.713-5.407-2.713l-2.067 1.106c-2.329-5.097-6.103-2.781-6.103-2.781l-2.929 1.745-5.465-8.831c-3.757-6.94-6.81-4.418-6.81-4.418-3.224 2.212-.192 6.692-.192 6.692 2.972 4.317 6.74 13.826 6.74 13.826-3.856 1.033-4.874 3.762-5.053 5.856-.1 1.178.076 2.363.432 3.49l2.28 7.207c.605 1.998 3.24 6.01 6.902 8.227 2.118 1.281 3.305 2.518 3.961 3.424"/>
        <path stroke="#111" stroke-width="1.5" d="M105.944 105.581l.15-.788c2.058-11.415-4.214-22.332-4.214-22.332-1.808-3.878-5.31-1.904-5.31-1.904-2.036-4.754-5.407-2.713-5.407-2.713l-2.067 1.106c-2.329-5.097-6.103-2.781-6.103-2.781l-2.929 1.745-5.465-8.831c-3.757-6.94-6.81-4.418-6.81-4.418-3.224 2.212-.192 6.692-.192 6.692 2.972 4.317 6.74 13.826 6.74 13.826-3.856 1.033-4.874 3.762-5.053 5.856-.1 1.178.076 2.363.432 3.49l2.28 7.207c.605 1.998 3.24 6.01 6.902 8.227 2.118 1.281 3.305 2.518 3.961 3.424"/>
        <path fill="#FFF" d="M77.204 94.349s-1.254-5.448-2.868-9.166"/>
        <path stroke="#111" stroke-linecap="round" stroke-width="1.5" d="M77.204 94.349s-1.254-5.448-2.868-9.166"/>
        <path fill="#FFF" d="M79.923 77.702s2.652 4.595 3.242 5.903"/>
        <path stroke="#111" stroke-linecap="round" stroke-width="1.5" d="M79.923 77.702s2.652 4.595 3.242 5.903"/>
        <g>
            <path fill="#FFF" d="M89.096 78.95c.042.078 1.093 2.742 1.209 3.998"/>
            <path stroke="#111" stroke-linecap="round" stroke-width="1.5" d="M89.096 78.95c.042.078 1.093 2.742 1.209 3.998"/>
        </g>
        <g>
            <path fill="#FFF" d="M96.57 80.557s1.026 2.358 1.243 3.203"/>
            <path stroke="#111" stroke-linecap="round" stroke-width="1.5" d="M96.57 80.557s1.026 2.358 1.243 3.203"/>
        </g>
        <path fill="#FFF" stroke="#111" stroke-linecap="round" stroke-width="1.5" d="M109.571 112.738c-1.636-3.335-1.884-5.13-2.455-6.752a.614.614 0 0 0-.52-.41c-2.353-.227-14.801-.947-24.015 7.997a.64.64 0 0 0-.135.722c.27.593 1.893 4.402 2.742 6.469a.738.738 0 0 0 1.092.336c2.614-1.735 11.583-7.255 22.612-7.287a.748.748 0 0 0 .68-1.075z"/>
    </g>
</svg>
