<svg xmlns="http://www.w3.org/2000/svg" xmlns:xlink="http://www.w3.org/1999/xlink" width="120" height="120" viewBox="0 0 120 120">
    <defs>
        <path id="a" d="M0 0h20v12.658H0z"/>
    </defs>
    <g fill="none" fill-rule="evenodd">
        <path d="M0 0h120v120H0z" opacity=".5"/>
        <g stroke="#111" stroke-width="2">
            <path d="M55.986 98H26.013C23.256 98 21 95.735 21 92.967V27.033C21 24.265 23.256 22 26.013 22h29.973c2.757 0 5.013 2.265 5.013 5.033v65.934C61 95.735 58.743 98 55.986 98z"/>
            <path stroke-linecap="round" d="M37.796 92h6M37.796 28h6"/>
        </g>
        <path fill="#FFF" stroke="#111" stroke-linecap="round" stroke-linejoin="round" stroke-width="2" d="M96.427 79.657H48.011a3.302 3.302 0 0 1-3.292-3.292V42.949a3.3 3.3 0 0 1 3.292-3.292h48.416a3.3 3.3 0 0 1 3.292 3.292v33.416a3.302 3.302 0 0 1-3.292 3.292z"/>
        <g transform="translate(73 46)">
            <mask id="b" fill="#fff">
                <use xlink:href="#a"/>
            </mask>
            <path fill="#08BF5B" d="M19.273 12.658H.727A.73.73 0 0 1 0 11.924V.734A.73.73 0 0 1 .727 0h18.546A.73.73 0 0 1 20 .734v11.19a.73.73 0 0 1-.727.734" mask="url(#b)"/>
        </g>
        <path fill="#FFF" d="M79.047 51.214c0-.435-.297-.768-.702-.768h-.867v1.537h.867c.405 0 .702-.333.702-.769m1.32 0c0 1.136-.883 2.05-2.022 2.05h-.867v1.677a.198.198 0 0 1-.194.201h-.932a.198.198 0 0 1-.195-.2v-5.576c0-.111.087-.201.195-.201h1.993c1.14 0 2.023.914 2.023 2.05M84.008 52.505c0-.65-.424-1.056-1.009-1.056s-1.009.407-1.009 1.056c0 .65.424 1.056 1.01 1.056.584 0 1.008-.407 1.008-1.056m1.272-2.057v4.114c0 .06-.047.107-.105.107h-1.062a.106.106 0 0 1-.105-.107v-.3c-.28.33-.695.529-1.263.529-1.11 0-2.026-.996-2.026-2.286s.915-2.285 2.026-2.285c.568 0 .984.199 1.263.528v-.3c0-.059.047-.107.105-.107h1.062c.058 0 .105.048.105.107M89.228 50.33l-.95 2.475-.982-2.476a.17.17 0 0 0-.158-.11h-1.054c-.073 0-.122.077-.094.147l1.639 4.13-.598 1.556c-.026.07.023.145.095.145h1.054a.17.17 0 0 0 .159-.111l2.197-5.721c.027-.07-.023-.145-.095-.145h-1.054a.17.17 0 0 0-.159.11"/>
        <path stroke="#08BF5B" stroke-linecap="round" stroke-width="2" d="M51 66.5h10M51 73h20"/>
    </g>
</svg>
