<svg xmlns="http://www.w3.org/2000/svg" xmlns:xlink="http://www.w3.org/1999/xlink" width="120" height="120" viewBox="0 0 120 120">
    <defs>
        <path id="a" d="M0 0h20v12.658H0z"/>
    </defs>
    <g fill="none" fill-rule="evenodd">
        <path d="M0 0h120v120H0z" opacity=".5"/>
        <path fill="#FFF" d="M92.82 87.515c-.537-3.321 5.56-17.816 7.179-22.06.978-2.564-.133-5.335-1.84-7.25-2.336-2.62-8.328-9.153-9.191-10.086-.863-.932-2.307-1.513-3.984-2.22-1.676-.706-7.77-2.24-8.804-2.613-1.033-.375-3.166-1.292-4.827-.531"/>
        <path stroke="#111" stroke-linecap="round" stroke-linejoin="round" stroke-width="2" d="M92.82 87.515c-.537-3.321 5.56-17.816 7.179-22.06.978-2.564-.133-5.335-1.84-7.25-2.336-2.62-8.328-9.153-9.191-10.086-.863-.932-2.307-1.513-3.984-2.22-1.676-.706-7.77-2.24-8.804-2.613-1.033-.375-3.166-1.292-4.827-.531"/>
        <path fill="#FFF" stroke="#111" stroke-linecap="round" stroke-linejoin="round" stroke-width="2" d="M79.288 66H24.71A3.718 3.718 0 0 1 21 62.297V24.704A3.717 3.717 0 0 1 24.71 21h54.578A3.717 3.717 0 0 1 83 24.704v37.593A3.718 3.718 0 0 1 79.29 66z"/>
        <g transform="translate(55 29)">
            <mask id="b" fill="#fff">
                <use xlink:href="#a"/>
            </mask>
            <path fill="#08BF5B" d="M19.273 12.658H.727A.73.73 0 0 1 0 11.924V.734A.73.73 0 0 1 .727 0h18.546A.73.73 0 0 1 20 .734v11.19a.73.73 0 0 1-.727.734" mask="url(#b)"/>
        </g>
        <path fill="#FFF" d="M61.047 34.214c0-.435-.297-.768-.702-.768h-.867v1.537h.867c.405 0 .702-.333.702-.769m1.32 0c0 1.136-.883 2.05-2.022 2.05h-.867v1.677a.198.198 0 0 1-.194.201h-.932a.198.198 0 0 1-.195-.2v-5.576c0-.111.087-.201.195-.201h1.993c1.14 0 2.023.914 2.023 2.05M66.008 35.505c0-.65-.424-1.056-1.009-1.056s-1.009.407-1.009 1.056c0 .65.424 1.056 1.01 1.056.584 0 1.008-.407 1.008-1.056m1.272-2.057v4.114c0 .06-.047.107-.105.107h-1.062a.106.106 0 0 1-.105-.107v-.3c-.28.33-.695.529-1.263.529-1.11 0-2.026-.996-2.026-2.286s.915-2.285 2.026-2.285c.568 0 .984.199 1.263.528v-.3c0-.059.047-.107.105-.107h1.062c.058 0 .105.048.105.107M71.228 33.33l-.95 2.475-.982-2.476a.17.17 0 0 0-.158-.11h-1.054c-.073 0-.122.077-.094.147l1.639 4.13-.598 1.556c-.026.07.023.145.095.145h1.054a.17.17 0 0 0 .159-.111l2.197-5.721c.027-.07-.023-.145-.095-.145h-1.054a.17.17 0 0 0-.159.11"/>
        <path stroke="#08BF5B" stroke-linecap="round" stroke-width="2" d="M29 51.5h10M29 58h20"/>
        <g>
            <path fill="#FFF" d="M88.93 61.707c-1.407-.323-5.058-2.13-6.377-3.469-1.32-1.34-2.812-4.971-3.228-6.373-.862-2.898-2.223-4.062-3.39-5.151-1.454-1.358-3.043-1.42-4.47-.73-1.15.556-2.713 2.514-2.359 5.303.467 3.683 2.578 6.255 2.81 11.672.22 5.123-1.318 7.824-1.849 11.862-.432 3.282-.695 7.449 3.43 16.903l18.277.465"/>
            <path stroke="#111" stroke-linecap="round" stroke-linejoin="round" stroke-width="2" d="M88.93 61.707c-1.407-.323-5.058-2.13-6.377-3.469-1.32-1.34-2.812-4.971-3.228-6.373-.862-2.898-2.223-4.062-3.39-5.151-1.454-1.358-3.043-1.42-4.47-.73-1.15.556-2.713 2.514-2.359 5.303.467 3.683 2.578 6.255 2.81 11.672.22 5.123-1.318 7.824-1.849 11.862-.432 3.282-.695 7.449 3.43 16.903l18.277.465"/>
            <path fill="#FFF" d="M67.652 99.446l-.004-11.575 28.347-.01.004 11.574z"/>
            <path stroke="#111" stroke-linecap="round" stroke-linejoin="round" stroke-width="2" d="M67.652 99.446l-.004-11.575 28.347-.01.004 11.574z"/>
        </g>
    </g>
</svg>
