<svg xmlns="http://www.w3.org/2000/svg" width="140" height="140" viewBox="0 0 140 140">
    <g fill="none" fill-rule="evenodd">
        <path d="M0 0h140v140H0z"/>
        <path fill="#DFDFDF" d="M64.85 47.909c10.781-4.344 17.918-8.846 17.918-8.846L64.85 47.91z"/>
        <path stroke="#DFDFDF" stroke-width="1.587" d="M64.85 47.909c10.781-4.344 17.918-8.846 17.918-8.846L64.85 47.91z"/>
        <path fill="#FFF" d="M86.76 33.444c-6.538 0-11.837 13.78-11.837 30.778 0 13.325 3.257 24.67 7.814 28.95-.36-.236-8.337-5.447-20.033-10.148l20.045 10.16C84.003 94.358 85.352 95 86.761 95c6.537 0 11.838-13.78 11.838-30.778 0-16.998-5.301-30.778-11.838-30.778"/>
        <path fill="#FFF" d="M64.85 43.959c10.781-4.345 17.918-8.847 17.918-8.847L64.85 43.959zM24.722 63.77l6.63-3.274v6.636l-6.63-3.361zm9.866-4.87L64.85 43.96c-10.052 4.051-23.272 7.966-36.859 7.966H26.55c-3.923 0-7.104 3.156-7.104 7.048v9.526c0 3.893 3.181 7.048 7.104 7.048h1.441c1.125 0 2.245.038 3.362.092v24.572c0 3.324 2.743 6.044 6.095 6.044s6.094-2.72 6.094-6.044V77.443l-.139-.287C50.42 78.561 57 80.731 62.705 83.024L40.9 71.971 34.588 58.9z"/>
        <path fill="#FFF" d="M85.538 37.65L23.476 60.464l2.779 7.197 13.74 5.819L84.92 94.765z"/>
        <path stroke="#111" stroke-linecap="round" stroke-linejoin="round" stroke-width="2" d="M82.444 35.112S55.962 51.843 27.947 51.843h-1.433c-3.903 0-7.07 3.14-7.07 7.014v7.366"/>
        <path stroke="#111" stroke-linecap="round" stroke-linejoin="round" stroke-width="2" d="M81.667 92.207S55.51 75.103 27.843 75.103h-1.417c-3.854 0-6.982-3.058-6.982-6.83v-7.177"/>
        <path stroke="#111" stroke-linecap="round" stroke-linejoin="round" stroke-width="2" d="M43.798 77.625v22.933c0 3.349-2.8 6.09-6.223 6.09-3.421 0-6.222-2.741-6.222-6.09V52.203"/>
        <path fill="#FFF" stroke="#111" stroke-linecap="round" stroke-linejoin="round" stroke-width="1.556" d="M98 64.167c0 16.967-5.224 30.722-11.667 30.722S74.667 81.134 74.667 64.167c0-16.968 5.223-30.723 11.666-30.723C92.776 33.444 98 47.2 98 64.167z"/>
        <path fill="#08BF5B" d="M75.224 54.287c5.572 0 10.087 4.479 10.087 10.005 0 5.525-4.515 10.004-10.087 10.004"/>
        <path stroke="#111" stroke-linecap="round" stroke-linejoin="round" stroke-width="2" d="M76.043 54.287c5.572 0 10.087 4.479 10.087 10.005 0 5.525-4.515 10.004-10.087 10.004"/>
        <path stroke="#111" stroke-linecap="round" stroke-linejoin="round" stroke-width="2" d="M98 64.167c0 16.967-5.224 30.722-11.667 30.722S74.667 81.134 74.667 64.167c0-16.968 5.223-30.723 11.666-30.723C92.776 33.444 98 47.2 98 64.167z"/>
        <g stroke="#ECECEC" stroke-linecap="round" stroke-width="2">
            <path d="M106.06 65.232l14.772-.407M105.778 49.796l7.704-3.722M114.608 84.232l-7.9-3.285"/>
        </g>
    </g>
</svg>
