<svg xmlns="http://www.w3.org/2000/svg" width="88" height="88" viewBox="0 0 88 88">
    <g fill="none" fill-rule="evenodd">
        <path d="M0 0h88v88H0z" opacity=".5"/>
        <path fill="#08BF5B" d="M54.55 48.986H33.278a2.196 2.196 0 0 1-2.197-2.196V25.516c0-1.213.984-2.196 2.197-2.196H54.55c1.213 0 2.196.983 2.196 2.196V46.79a2.196 2.196 0 0 1-2.196 2.196"/>
        <g stroke="#FFF" stroke-linecap="round" stroke-width="1.467">
            <path d="M35.114 29.186V43.12M44.458 29.186V43.54M39.786 29.186v9.534M44.458 29.186V43.12M49.13 29.186v9.534M53.447 29.186V43.12M49.047 41.653v1.467"/>
        </g>
        <g stroke-width="2">
            <g stroke="#231815">
                <path d="M31.533 62.333v-3.266c0-1.031.992-1.867 2.216-1.867h20.494c1.225 0 2.217.836 2.217 1.867v2.753h.007M38.133 74.8l-.032-.508c-.179-2.757-1.207-6.323-3.077-7.068-2.283-.91-3.488-1.946-3.488-3.199v-1.692h-.003"/>
                <path d="M56.467 61.6v2.265c0 1.271-1.071 2.323-3.103 3.246-1.662.756-2.576 4.375-2.736 7.174l-.028.515M31.533 62.333h24.934"/>
            </g>
            <path stroke="#231815" d="M27.133 61.6V17.22c0-2.22 1.79-4.02 3.996-4.02h26.475c2.207 0 3.996 1.8 3.996 4.02V61.6"/>
            <path stroke="#111" stroke-linecap="round" d="M40.333 19.067h6.6M17.967 35.158H70.4"/>
        </g>
    </g>
</svg>
