<svg xmlns="http://www.w3.org/2000/svg" width="100" height="100" viewBox="0 0 100 100">
    <g fill="none" fill-rule="evenodd">
        <path d="M0 100V0h100v100z"/>
        <path fill="#08BF5B" stroke="#111" stroke-width="1.25" d="M87.5 50c0 20.71-16.79 37.5-37.5 37.5S12.5 70.71 12.5 50 29.29 12.5 50 12.5 87.5 29.29 87.5 50z"/>
        <path fill="#FFF" d="M48.22 54.73l-.225-19.545c0-1.282.879-2.137 2.005-2.137s2.006.855 2.006 2.137L51.78 54.73c-.022 1.21-.676 1.971-1.78 1.971s-1.758-.76-1.78-1.97m-.788 10.543c0-1.543 1.126-2.707 2.568-2.707 1.464 0 2.568 1.164 2.568 2.707 0 1.52-1.104 2.706-2.568 2.706-1.442 0-2.568-1.187-2.568-2.706"/>
    </g>
</svg>
