<svg xmlns="http://www.w3.org/2000/svg" width="180" height="180" viewBox="0 0 180 180">
    <g fill="none" fill-rule="evenodd">
        <path d="M0 0h180v180H0z"/>
        <g stroke="#111" stroke-linecap="round" stroke-linejoin="round" stroke-width="2">
            <path d="M81 149.5h73M134 51.5v11M145.5 44v28"/>
        </g>
        <path stroke="#111" stroke-linecap="round" stroke-linejoin="round" stroke-width="2" d="M47 43.878c5.818.895 31.176-9.492 38.599-12.25 4.489-1.667 9.345.201 12.704 3.08 4.601 3.943 16.073 14.05 17.71 15.508 1.638 1.455 2.664 3.897 3.91 6.73 1.245 2.833 3.958 13.14 4.618 14.887.66 1.746 2.277 5.353.953 8.167"/>
        <g stroke-linecap="round" stroke-linejoin="round" stroke-width="2">
            <path fill="#08BF5B" stroke="#111" d="M91.391 130.574c13.392 14.288 36.163 15.315 50.858 2.295s15.75-35.156 2.36-49.444c-13.391-14.287-36.162-15.315-50.857-2.294-14.695 13.02-15.753 35.157-2.36 49.443z"/>
            <g stroke="#FFF">
                <path d="M128.905 96L107 117.905M113.571 99.286a3.286 3.286 0 1 1-6.571 0 3.286 3.286 0 0 1 6.571 0zM130 115.714a3.286 3.286 0 1 1-6.572 0 3.286 3.286 0 0 1 6.572 0z"/>
            </g>
        </g>
        <path fill="#FFF" d="M91.935 50c.567 2.407 3.713 8.654 6.04 10.91 2.327 2.254 8.627 4.793 11.057 5.5 5.025 1.46 7.049 3.79 8.94 5.783 2.36 2.485 2.477 5.207 1.288 7.656-.958 1.972-4.344 4.66-9.178 4.067-6.383-.783-10.85-4.39-20.237-4.761-8.877-.35-13.549 2.296-20.543 3.225-5.683.755-12.905 1.225-29.302-5.797"/>
        <path stroke="#111" stroke-linecap="round" stroke-linejoin="round" stroke-width="2" d="M91.935 50c.567 2.407 3.713 8.654 6.04 10.91 2.327 2.254 8.627 4.793 11.057 5.5 5.025 1.46 7.049 3.79 8.94 5.783 2.36 2.485 2.477 5.207 1.288 7.656-.958 1.972-4.344 4.66-9.178 4.067-6.383-.783-10.85-4.39-20.237-4.761-8.877-.35-13.549 2.296-20.543 3.225-5.683.755-12.905 1.225-29.302-5.797"/>
        <path fill="#FFF" stroke="#111" stroke-linecap="round" stroke-linejoin="round" stroke-width="2" d="M26.123 86L47 85.954 46.877 38 26 38.047z"/>
    </g>
</svg>
