<svg xmlns="http://www.w3.org/2000/svg" width="457" height="248" viewBox="0 0 457 248">
    <g fill="none" fill-rule="evenodd">
        <path d="M1 0h456v248H1z"/>
        <path fill="#08BF5B" d="M265.738 75.399c0 15.416-12.496 27.913-27.913 27.913-15.416 0-27.912-12.497-27.912-27.913s12.496-27.912 27.912-27.912c15.417 0 27.913 12.496 27.913 27.912"/>
        <g fill="#FFF" transform="translate(230.913 59.487)">
            <path d="M1.736 10.189H8.77c.965-.021 1.448.425 1.448 1.338 0 1.37-2.08 13.311-2.08 14.019 0 .708-.244 2.271.632 2.63.876.358 2.566-.546 2.965-.826.265-.188.556-.188.873 0 .329.563.037 1.31-.873 2.241C10.37 30.986 8.771 31.6 7.114 31.6H5.516c-1.753 0-3.292-1.173-3.78-2.008-.49-.836-.576-1.386-.288-3.454.288-2.067 1.715-10.69 1.715-11.492 0-.804.113-1.993-.902-2.276C1.244 12.086 0 12.23 0 11.164c0-.711.578-1.035 1.736-.975"/>
            <ellipse cx="6.139" cy="4" rx="3.972" ry="4"/>
        </g>
        <path fill="#EFEFEF" d="M138.386 204h201v-45h-201z"/>
        <path stroke="#262424" stroke-width="2" d="M137.386 196.832V12.05l201.193-1.217v184.783M338.579 55.06v140.577"/>
        <path stroke="#262424" stroke-linejoin="round" stroke-width="2" d="M337.913 59.654c-11.333-9.834-44-6.501-44-6.501 0-28.333-11-41.666-11-41.666s35.323 16.34 55 48.167z"/>
        <path fill="#FFF" d="M344.5 194.604l-53.838 7.506-34.549 2.733 21.236 18.956 46.193-3.015 20.958-14.298z"/>
        <path stroke="#262424" stroke-linecap="round" stroke-linejoin="round" stroke-width="2" d="M79.246 181.9s131.54 51.622 317.462 0"/>
        <g>
            <path fill="#FFF" d="M168.42 192.85v11.554h-33.762l-20.654-7.254-1.584-11.336 46.42-1.41 9.58 8.446z"/>
            <path fill="#FFF" d="M96.04 191.73s2.48 4.204 20.086 12.369c0 0 21.573 10.472 40.17 6.02"/>
            <path stroke="#262424" stroke-width="2" d="M96.04 191.73s2.48 4.204 20.086 12.369c0 0 21.573 10.472 40.17 6.02"/>
            <path fill="#FFF" d="M102.69 125.877l-21.03-21.229s-4.902-5.811-10.23-7.966c-5.481-2.216-10.926 3.132-9.054 8.727.944 2.82 3.1 6.521 7.545 11.196l23.144 24.08"/>
            <path stroke="#262424" stroke-width="2" d="M102.69 125.877l-21.03-21.229s-4.902-5.811-10.23-7.966c-5.481-2.216-10.926 3.132-9.054 8.727.944 2.82 3.1 6.521 7.545 11.196l23.144 24.08"/>
            <g stroke="#262424" stroke-width="2">
                <path fill="#FFF" d="M154.781 192.222H94.997c-4.46 0-8.108-3.612-8.108-8.028V79.25c0-4.415 3.648-8.028 8.108-8.028h59.784c4.46 0 8.108 3.613 8.108 8.028v104.944c0 4.416-3.649 8.028-8.108 8.028z"/>
                <path stroke-linecap="round" d="M118.628 182.3h11.903M118.178 80.348h11.903"/>
            </g>
            <g>
                <path fill="#FFF" d="M181.506 196.1c6.943-27.46-.431-41.733-.431-41.733-2.183-6.013-3.722-8.943-5.747-13.906-2.026-4.963-2.254-11.645-4.641-17.068-3.112-7.068-7.392-8.696-11.382-7.74-4.028.964-6.056 4.594-4.177 13.072.954 4.309 2.196 10.89 2.945 16.573.14 1.073.212 2.112.234 3.1.093 4.274-1.316 8.419-3.89 11.836-3.565 4.732-10.155 19.588-10.684 35.7"/>
                <path stroke="#262424" stroke-width="2" d="M181.506 196.1c6.943-27.46-.431-41.733-.431-41.733-2.183-6.013-3.722-8.943-5.747-13.906-2.026-4.963-2.254-11.645-4.641-17.068-3.112-7.068-7.392-8.696-11.382-7.74-4.028.964-6.056 4.594-4.177 13.072.954 4.309 2.196 10.89 2.945 16.573.14 1.073.212 2.112.234 3.1.093 4.274-1.316 8.419-3.89 11.836-3.565 4.732-10.155 19.588-10.684 35.7"/>
                <path fill="#FFF" stroke="#262424" stroke-linejoin="round" stroke-width="2" d="M205.694 198.628l-49.667 37.947-16.333-21.054 49.666-37.946z"/>
                <path fill="#FFF" d="M89.955 156.53c-1.776-1.341-4.81-3.465-7.095-4.39-2.903-1.175-7.034-.604-9.26 3.445 0 0-2.915 4.338 1.166 9.672 1.01 1.32 2.304 2.4 3.7 3.308l12.395 8.059s4.415 2.618 8.776 3.19c5.105.671 8.749-4.71 6.37-9.267-.536-1.03-1.29-2.17-2.327-3.419-1.427-1.717-3.106-3.21-4.888-4.557l-8.837-6.04z"/>
                <path stroke="#262424" stroke-width="2" d="M89.955 156.53c-1.776-1.341-4.81-3.465-7.095-4.39-2.903-1.175-7.034-.604-9.26 3.445 0 0-2.915 4.338 1.166 9.672 1.01 1.32 2.304 2.4 3.7 3.308l12.395 8.059s4.415 2.618 8.776 3.19c5.105.671 8.749-4.71 6.37-9.267-.536-1.03-1.29-2.17-2.327-3.419-1.427-1.717-3.106-3.21-4.888-4.557l-8.837-6.04z"/>
                <path fill="#FFF" d="M90.03 176.739c-1.418-1.154-3.033-2.075-4.8-2.545-2.488-.66-5.756-.704-7.703 2.553 0 0-2.52 3.474.669 7.973.79 1.114 1.82 2.038 2.94 2.824l9.933 6.98s3.545 2.28 7.108 2.879c4.17.7 7.32-3.607 5.504-7.418-.411-.862-.995-1.82-1.81-2.874-1.12-1.453-2.453-2.727-3.876-3.886l-7.965-6.486z"/>
                <path stroke="#262424" stroke-width="2" d="M90.03 176.739c-1.418-1.154-3.033-2.075-4.8-2.545-2.488-.66-5.756-.704-7.703 2.553 0 0-2.52 3.474.669 7.973.79 1.114 1.82 2.038 2.94 2.824l9.933 6.98s3.545 2.28 7.108 2.879c4.17.7 7.32-3.607 5.504-7.418-.411-.862-.995-1.82-1.81-2.874-1.12-1.453-2.453-2.727-3.876-3.886l-7.965-6.486z"/>
                <path fill="#FFF" d="M91.657 136.776c-.456-.368-.934-.71-1.422-1.035-1.691-1.122-3.224-2.2-5.107-2.701-3.028-.805-7.008-.857-9.38 3.109 0 0-3.258 4.492 1.192 10.213.892 1.146 2.012 2.098 3.202 2.934l12.097 8.5s4.317 2.775 8.654 3.504c5.079.854 8.914-4.392 6.702-9.031-.5-1.05-1.21-2.217-2.202-3.5-1.365-1.768-2.989-3.32-4.721-4.731l-9.015-7.262z"/>
                <path stroke="#262424" stroke-width="2" d="M91.657 136.776c-.456-.368-.934-.71-1.422-1.035-1.691-1.122-3.224-2.2-5.107-2.701-3.028-.805-7.008-.857-9.38 3.109 0 0-3.258 4.492 1.192 10.213.892 1.146 2.012 2.098 3.202 2.934l12.097 8.5s4.317 2.775 8.654 3.504c5.079.854 8.914-4.392 6.702-9.031-.5-1.05-1.21-2.217-2.202-3.5-1.365-1.768-2.989-3.32-4.721-4.731l-9.015-7.262z"/>
            </g>
            <path fill="#08BF5B" d="M140.324 131.455H108.34c-6.055 0-11.008-4.95-11.008-11s4.953-11 11.008-11h31.983c6.055 0 11.009 4.95 11.009 11s-4.954 11-11.01 11"/>
        </g>
    </g>
</svg>
