<svg xmlns="http://www.w3.org/2000/svg" xmlns:xlink="http://www.w3.org/1999/xlink" width="208" height="208" viewBox="0 0 208 208">
    <defs>
        <path id="a" d="M.038 27.875c0 14.911 12.088 27 27 27s27-12.089 27-27c0-14.912-12.088-27-27-27s-27 12.088-27 27z"/>
    </defs>
    <g fill="none" fill-rule="evenodd">
        <path fill="#DFDFDF" d="M108.038 104.875c0 14.912-12.088 27-27 27-14.911 0-27-12.088-27-27s12.089-27 27-27c14.912 0 27 12.088 27 27"/>
        <path fill="#FFF" stroke="#111" stroke-linecap="round" stroke-width="2" d="M91.163 98.909c0 5.591-4.533 10.124-10.125 10.124s-10.125-4.532-10.125-10.124c0-5.593 4.533-10.126 10.125-10.126s10.125 4.534 10.125 10.126z"/>
        <g transform="translate(54 77)">
            <mask id="b" fill="#fff">
                <use xlink:href="#a"/>
            </mask>
            <path fill="#FFF" stroke="#111" stroke-linecap="round" stroke-width="2" d="M45.359 50.596c0 10.119-8.202 18.321-18.321 18.321-10.118 0-18.322-8.202-18.322-18.321 0-10.119 8.204-18.321 18.322-18.321 10.119 0 18.32 8.202 18.32 18.321z" mask="url(#b)"/>
        </g>
        <path stroke="#111" stroke-linecap="round" stroke-width="2" d="M108.038 104.875c0 14.912-12.088 27-27 27-14.911 0-27-12.088-27-27s12.089-27 27-27c14.912 0 27 12.088 27 27z"/>
        <g stroke="#111" stroke-linecap="round" stroke-width="2">
            <path d="M32 145.42V49.709C32 43.795 36.812 39 42.748 39h76.046c5.937 0 10.748 4.795 10.748 10.709v51.37M73.785 50.78h13.972"/>
        </g>
        <g>
            <path fill="#FFF" d="M170.33 133.648l-.1-1.138c-1.611-16.42-14.51-28.913-14.51-28.913-4.003-4.601-8.061-.536-8.061-.536-4.658-5.712-8.51-1.606-8.51-1.606l-2.418 2.32c-5.195-6.069-9.495-1.428-9.495-1.428l-3.357 3.527-10.974-9.952c-7.883-8.032-11.107-3.39-11.107-3.39-3.582 4.283 2.343 9.23 2.343 9.23 5.779 4.748 14.675 16.292 14.675 16.292-4.91 2.915-5.25 7.045-4.68 9.98.32 1.65 1.025 3.204 1.955 4.607l5.95 8.972c1.613 2.499 6.807 6.961 12.72 8.567 3.416.929 5.534 2.159 6.793 3.143"/>
            <path stroke="#111" stroke-width="2" d="M170.33 133.648l-.1-1.138c-1.611-16.42-14.51-28.913-14.51-28.913-4.003-4.601-8.061-.536-8.061-.536-4.658-5.712-8.51-1.606-8.51-1.606l-2.418 2.32c-5.195-6.069-9.495-1.428-9.495-1.428l-3.357 3.527-10.974-9.952c-7.883-8.032-11.107-3.39-11.107-3.39-3.582 4.283 2.343 9.23 2.343 9.23 5.779 4.748 14.675 16.292 14.675 16.292-4.91 2.915-5.25 7.045-4.68 9.98.32 1.65 1.025 3.204 1.955 4.607l5.95 8.972c1.613 2.499 6.807 6.961 12.72 8.567 3.416.929 5.534 2.159 6.793 3.143"/>
            <path fill="#FFF" d="M126.34 129.476s-3.85-6.964-7.523-11.422"/>
            <path stroke="#111" stroke-linecap="round" stroke-width="1.8" d="M126.34 129.476s-3.85-6.964-7.523-11.422"/>
            <path fill="#FFF" d="M123.602 105.641s5.447 5.254 6.768 6.814"/>
            <path stroke="#111" stroke-linecap="round" stroke-width="1.8" d="M123.602 105.641s5.447 5.254 6.768 6.814"/>
            <path fill="#FFF" d="M136.731 103.775c.09.09 2.574 3.325 3.224 4.998"/>
            <path stroke="#111" stroke-linecap="round" stroke-width="1.8" d="M136.731 103.775c.09.09 2.574 3.325 3.224 4.998"/>
            <g>
                <path fill="#FFF" d="M147.659 103.061s2.333 2.827 2.96 3.898"/>
                <path stroke="#111" stroke-linecap="round" stroke-width="1.8" d="M147.659 103.061s2.333 2.827 2.96 3.898"/>
            </g>
            <path stroke="#111" stroke-linecap="round" stroke-width="2" d="M151.947 168.87c-1.181-3.218-8.325-12.5-10.018-14.48a.905.905 0 0 1-.095-1.04c9.205-15.816 26.624-19.688 29.975-20.298a.888.888 0 0 1 .888.363c1.616 2.273 7.844 11.528 12.721 15.192"/>
            <path stroke="#111" stroke-width="2" d="M178.93 142.027s-20.846 2.358-30.588 20.951"/>
        </g>
    </g>
</svg>
