<svg xmlns="http://www.w3.org/2000/svg" width="64" height="64" viewBox="0 0 64 64">
    <g fill="none" fill-rule="evenodd">
        <path d="M-8-8h80v80H-8z"/>
        <g>
            <path fill="#07B53B" stroke="#111" stroke-width="1.796" d="M.898 45.382h62.204V24.845c0-.854-.405-1.658-1.092-2.166L33.602 1.666a2.694 2.694 0 0 0-3.204 0L1.99 22.679a2.694 2.694 0 0 0-1.092 2.166v20.537z"/>
            <path fill="#FFF" stroke="#111" stroke-width="1.796" d="M12.57 20.63a2.694 2.694 0 0 0-2.694 2.693v30.083A2.694 2.694 0 0 0 12.57 56.1H51.1a2.694 2.694 0 0 0 2.695-2.694V23.323a2.694 2.694 0 0 0-2.694-2.694H12.57z"/>
            <path fill="#FFF" stroke="#111" stroke-width="1.796" d="M63.102 24.994v35.313A2.694 2.694 0 0 1 60.408 63H12.384a2.694 2.694 0 0 1-1.442-4.97l52.16-33.036z"/>
            <path fill="#FFF" stroke="#111" stroke-width="1.796" d="M.898 24.994v35.313A2.694 2.694 0 0 0 3.592 63h57.312L.898 24.994z"/>
            <ellipse cx="31.836" cy="31.5" fill="#07B53B" rx="7.184" ry="7.192"/>
            <path stroke="#FFF" stroke-width="1.497" d="M28.57 31.571l2.455 2.544 4.076-4.577"/>
        </g>
    </g>
</svg>
