<svg xmlns="http://www.w3.org/2000/svg" width="88" height="88" viewBox="0 0 88 88">
    <g fill="none" fill-rule="evenodd">
        <path fill="#07B53B" stroke="#111" stroke-width="1.796" d="M.898 62.737h86.204V33.483c0-.854-.405-1.658-1.092-2.166L45.602 1.427a2.694 2.694 0 0 0-3.204 0L1.99 31.317a2.694 2.694 0 0 0-1.092 2.166v29.254z"/>
        <path fill="#FFF" stroke="#111" stroke-width="1.796" d="M15.937 28.028a2.694 2.694 0 0 0-2.694 2.694v44.059a2.694 2.694 0 0 0 2.694 2.694h55.674a2.694 2.694 0 0 0 2.694-2.694V30.722a2.694 2.694 0 0 0-2.694-2.694H15.937z"/>
        <path fill="#FFF" stroke="#111" stroke-width="1.796" d="M87.102 33.755v50.513a2.694 2.694 0 0 1-2.694 2.694H12.384a2.694 2.694 0 0 1-1.442-4.97l76.16-48.237z"/>
        <path fill="#FFF" stroke="#111" stroke-width="1.796" d="M.898 33.755v50.513a2.694 2.694 0 0 0 2.694 2.694h81.312L.898 33.755z"/>
        <ellipse cx="43.774" cy="43.312" fill="#07B53B" rx="9.878" ry="9.889"/>
        <path stroke="#FFF" stroke-width="1.497" d="M39.284 43.41l3.376 3.498 5.604-6.293"/>
    </g>
</svg>
