<svg xmlns="http://www.w3.org/2000/svg" width="95" height="27" viewBox="0 0 95 27">
    <g fill="none" fill-rule="evenodd">
        <path fill="#F5F5F5" d="M-132-27H892v730H-132z"/>
        <path fill="#08BF5B" d="M13.457 26.856C6.037 26.837 0 20.814 0 13.43S6.037.019 13.457 0L13.529 0h67.46c7.441 0 13.493 6.024 13.493 13.429 0 7.404-6.052 13.428-13.492 13.428H13.457z"/>
        <path fill="#FFF" d="M23.449 19.255a.438.438 0 0 1-.442-.433V7.147c0-.239.198-.433.442-.433h1.915c.243 0 .442.194.442.433v11.675a.438.438 0 0 1-.442.433h-1.915zm4.906 0a.438.438 0 0 1-.442-.433V7.147c0-.239.198-.433.442-.433h1.857l.023.003.082.014.118.052a.51.51 0 0 1 .094.08.486.486 0 0 1 .038.047l5.688 7.514V7.147c0-.239.199-.433.442-.433h1.915c.244 0 .442.194.442.433v11.675a.437.437 0 0 1-.442.433H36.77a.468.468 0 0 1-.163-.031l-.086-.046a.438.438 0 0 1-.113-.108l-5.696-7.595v7.347a.437.437 0 0 1-.442.433h-1.915zm-15.26 0a.452.452 0 0 1-.318-.134.424.424 0 0 1-.123-.3V7.147c0-.239.198-.433.442-.433h1.914c.244 0 .443.194.443.433v9.361h5.294c.243 0 .44.195.44.434v1.88a.438.438 0 0 1-.44.433h-7.652zm28.206-.117l-.016-.017a.426.426 0 0 1-.124-.3V7.147a.438.438 0 0 1 .442-.433h7.652c.243 0 .44.195.44.434v1.88a.438.438 0 0 1-.44.433H43.96v2.15h5.294c.243 0 .44.195.44.434v1.88a.438.438 0 0 1-.44.433H43.96v2.15h5.294c.243 0 .44.195.44.434v1.88a.438.438 0 0 1-.44.433h-7.653a.442.442 0 0 1-.301-.117zm26.533-4.019a.922.922 0 0 0-.914 1.098c.086.434.5.732.951.732h2.803v-1.83h-2.84zm0 4.136c-1.884 0-3.402-1.566-3.274-3.441.116-1.71 1.644-3 3.39-3h2.7c-.08-.669-.361-.888-.464-.966-.438-.334-1.45-.605-3.78-.086a.525.525 0 0 1-.625-.372l-.323-1.24a.512.512 0 0 1 .386-.628c1.827-.415 4.202-.7 5.783.504.637.486 1.397 1.43 1.397 3.17v5.545a.519.519 0 0 1-.524.514h-4.666zm9.298-1.526l-3.215-7.871a.421.421 0 0 1 .398-.577h1.95c.215 0 .407.128.486.323l1.884 4.611 1.976-4.62a.523.523 0 0 1 .483-.314h2.088c.238 0 .4.238.307.453l-5.061 11.831a.426.426 0 0 1-.394.256h-2.151a.327.327 0 0 1-.308-.453l1.557-3.64zM57.337 9.46v3.97h1.78c1.118 0 2.023-.89 2.023-1.985 0-1.097-.905-1.985-2.022-1.985h-1.781zm-2.357 9.794a.437.437 0 0 1-.442-.433V7.147c0-.239.198-.433.442-.433h4.138c2.662 0 4.821 2.119 4.821 4.732 0 2.612-2.159 4.73-4.821 4.73h-1.781v2.646a.438.438 0 0 1-.442.433H54.98z"/>
    </g>
</svg>
